<svg version="1.1" xmlns="http://www.w3.org/2000/svg" xmlns:xlink="http://www.w3.org/1999/xlink" width="69.875" height="69.875" viewBox="0,0,69.875,69.875"><g transform="translate(-205.0625,-145.0625)"><g data-paper-data="{&quot;isPaintingLayer&quot;:true}" fill-rule="nonzero" stroke="none" stroke-width="0" stroke-linecap="butt" stroke-linejoin="miter" stroke-miterlimit="10" stroke-dasharray="" stroke-dashoffset="0" style="mix-blend-mode: normal"><path d="M235.2568,180c0,-2.6196 2.1236,-4.7432 4.7432,-4.7432c2.6196,0 4.7432,2.1236 4.7432,4.7432c0,2.6196 -2.1236,4.7432 -4.7432,4.7432c-2.6196,0 -4.7432,-2.1236 -4.7432,-4.7432z" fill="#980000"/><path d="M205.0625,214.9375v-69.875h69.875v69.875z" fill="none"/><path d="M236.94743,179.63563c0.20123,-1.68589 1.73105,-2.88944 3.41694,-2.68821c1.68589,0.20123 2.88944,1.73105 2.68821,3.41694c-0.20123,1.68589 -1.73105,2.88944 -3.41694,2.68821c-1.68589,-0.20123 -2.88944,-1.73105 -2.68821,-3.41694z" fill="#e50000"/></g></g></svg>