<svg version="1.1" xmlns="http://www.w3.org/2000/svg" xmlns:xlink="http://www.w3.org/1999/xlink" width="72.26982" height="79.30928" viewBox="0,0,72.26982,79.30928"><defs><radialGradient cx="240" cy="180" r="15.67911" gradientUnits="userSpaceOnUse" id="color-1"><stop offset="0" stop-color="#ffea00"/><stop offset="1" stop-color="#ffea00" stop-opacity="0"/></radialGradient><radialGradient cx="240" cy="180" r="15.67911" gradientUnits="userSpaceOnUse" id="color-2"><stop offset="0" stop-color="#000000" stop-opacity="0"/><stop offset="1" stop-color="#000000" stop-opacity="0"/></radialGradient></defs><g transform="translate(-207,-147)"><g data-paper-data="{&quot;isPaintingLayer&quot;:true}" fill-rule="nonzero" stroke-linejoin="miter" stroke-miterlimit="10" stroke-dasharray="" stroke-dashoffset="0" style="mix-blend-mode: normal"><path d="M207,213v-66h66v66z" fill="#3f3f3f" stroke="none" stroke-width="0" stroke-linecap="butt"/><text transform="translate(262.77789,218.02448) scale(0.6904,0.6904)" font-size="40" xml:space="preserve" fill="#989898" fill-rule="nonzero" stroke="#979797" stroke-width="0" stroke-linecap="butt" stroke-linejoin="miter" stroke-miterlimit="10" stroke-dasharray="" stroke-dashoffset="0" font-family="Sans Serif" font-weight="normal" text-anchor="start" style="mix-blend-mode: normal"><tspan x="0" dy="0">8</tspan></text><g><path d="M223.27083,180c0,-9.23925 7.48993,-16.72917 16.72917,-16.72917c9.23924,0 16.72917,7.48992 16.72917,16.72917c0,9.23925 -7.48993,16.72917 -16.72917,16.72917c-9.23925,0 -16.72917,-7.48992 -16.72917,-16.72917z" fill="#808080" stroke="#343434" stroke-width="1.5" stroke-linecap="butt"/><path d="M240,196.32473v-32.64945" fill="none" stroke="#343434" stroke-width="1.5" stroke-linecap="round"/><path d="M255.70703,180h-31.41406" fill="none" stroke="#343434" stroke-width="1.5" stroke-linecap="round"/><path d="M224.32089,180c0,-8.65934 7.01977,-15.6791 15.67911,-15.6791c8.65934,0 15.67911,7.01977 15.67911,15.6791c0,8.65934 -7.01981,15.67909 -15.67911,15.67909c-8.65934,0 -15.67911,-7.01977 -15.67911,-15.67909z" fill="url(#color-1)" stroke="url(#color-2)" stroke-width="0" stroke-linecap="butt"/><path d="M228.70637,180c0,-6.23729 5.05634,-11.29363 11.29363,-11.29363c6.23729,0 11.29363,5.05634 11.29363,11.29363c0,6.23729 -5.05634,11.29363 -11.29363,11.29363c-6.2373,0 -11.29363,-5.05634 -11.29363,-11.29363z" fill="#989898" stroke-opacity="0.50196" stroke="#ffde00" stroke-width="1.5" stroke-linecap="butt"/><path d="M234.73485,180c0,-2.90786 2.35729,-5.26515 5.26516,-5.26515c2.90786,0 5.26515,2.35729 5.26515,5.26515c0,2.90786 -2.35729,5.26515 -5.26515,5.26515c-2.90787,0 -5.26516,-2.35729 -5.26516,-5.26515z" fill="#808080" stroke="#343434" stroke-width="1.5" stroke-linecap="butt"/></g></g></g></svg>