<svg version="1.1" xmlns="http://www.w3.org/2000/svg" xmlns:xlink="http://www.w3.org/1999/xlink" width="71.45439" height="52.62188" viewBox="0,0,71.45439,52.62188"><g transform="translate(-204.27281,-153.68906)"><g data-paper-data="{&quot;isPaintingLayer&quot;:true}" fill-rule="nonzero" stroke-linejoin="miter" stroke-miterlimit="10" stroke-dasharray="" stroke-dashoffset="0" style="mix-blend-mode: normal"><path d="M204.27282,206.31094v-52.62188h71.45439v52.62188z" fill="#299bcc" stroke="none" stroke-width="0" stroke-linecap="butt"/><text transform="translate(208.06037,167.24022) scale(0.29716,0.29716)" font-size="40" xml:space="preserve" fill="#1a6380" fill-rule="nonzero" stroke="none" stroke-width="1" stroke-linecap="butt" stroke-linejoin="miter" stroke-miterlimit="10" stroke-dasharray="" stroke-dashoffset="0" font-family="Sans Serif" font-weight="normal" text-anchor="start" style="mix-blend-mode: normal"><tspan x="0" dy="0">强化III</tspan></text><g fill="none" stroke="#1a6380" stroke-width="2" stroke-linecap="round"><path d="M247.75154,182.17904l0.16458,9.35999l-7.8719,4.78657l-8.29571,-4.72095l-0.16458,-9.35999l8.13114,-4.63903z"/><path d="M253.44746,194.68679l-27.39487,-15.58997"/><path d="M239.52845,171.13324l0.44308,31.51716"/><path d="M253.41136,179.03378l-27.32274,15.71609" data-paper-data="{&quot;index&quot;:null}"/></g><g fill="none" stroke="#1a6380" stroke-width="1.5" stroke-linecap="round"><path d="M265.15668,168.52247l0.09147,5.20226l-4.37518,2.66036l-4.61074,-2.62389l-0.09147,-5.20226l4.51927,-2.57836z"/><path d="M268.32246,175.47425l-15.226,-8.66487"/><path d="M260.5863,162.38324l0.24626,17.51716"/><path d="M268.30239,166.77434l-15.18591,8.73496" data-paper-data="{&quot;index&quot;:null}"/></g><g fill="none" stroke="#1a6380" stroke-width="1.5" stroke-linecap="round"><path d="M221.15667,191.02247l0.09148,5.20226l-4.37518,2.66036l-4.61074,-2.62389l-0.09147,-5.20226l4.51927,-2.57836z"/><path d="M224.32245,197.97425l-15.226,-8.66486"/><path d="M216.5863,184.88324l0.24626,17.51716"/><path d="M224.30239,189.27434l-15.18591,8.73497" data-paper-data="{&quot;index&quot;:null}"/></g></g></g></svg>