<svg version="1.1" xmlns="http://www.w3.org/2000/svg" xmlns:xlink="http://www.w3.org/1999/xlink" width="72.26982" height="79.30928" viewBox="0,0,72.26982,79.30928"><defs><radialGradient cx="240" cy="180" r="9.40176" gradientUnits="userSpaceOnUse" id="color-1"><stop offset="0" stop-color="#ff0000"/><stop offset="1" stop-color="#ff0000" stop-opacity="0"/></radialGradient><radialGradient cx="240" cy="180" r="9.40176" gradientUnits="userSpaceOnUse" id="color-2"><stop offset="0" stop-color="#000000" stop-opacity="0"/><stop offset="1" stop-color="#000000" stop-opacity="0"/></radialGradient></defs><g transform="translate(-207,-147)"><g data-paper-data="{&quot;isPaintingLayer&quot;:true}" fill-rule="nonzero" stroke-linejoin="miter" stroke-miterlimit="10" stroke-dasharray="" stroke-dashoffset="0" style="mix-blend-mode: normal"><path d="M207,213v-66h66v66z" fill="#3f3f3f" stroke="none" stroke-width="0" stroke-linecap="butt"/><text transform="translate(262.77789,218.02448) scale(0.6904,0.6904)" font-size="40" xml:space="preserve" fill="#989898" fill-rule="nonzero" stroke="#979797" stroke-width="0" stroke-linecap="butt" stroke-linejoin="miter" stroke-miterlimit="10" stroke-dasharray="" stroke-dashoffset="0" font-family="Sans Serif" font-weight="normal" text-anchor="start" style="mix-blend-mode: normal"><tspan x="0" dy="0">4</tspan></text><g><path d="M221.27083,180c0,-10.34382 8.38535,-18.72917 18.72917,-18.72917c10.34382,0 18.72917,8.38535 18.72917,18.72917c0,10.34382 -8.38536,18.72917 -18.72917,18.72917c-10.34382,0 -18.72917,-8.38536 -18.72917,-18.72917z" fill="#808080" stroke="#343434" stroke-width="2" stroke-linecap="butt"/><path d="M252.50439,192.50439l-25.00878,-25.00878" fill="none" stroke="#343434" stroke-width="2" stroke-linecap="round"/><path d="M252.50439,167.49561l-25.00878,25.00878" data-paper-data="{&quot;index&quot;:null}" fill="none" stroke="#343434" stroke-width="2" stroke-linecap="round"/><path d="M227.74982,180c0,-6.76558 5.48459,-12.25018 12.25018,-12.25018c6.76558,0 12.25018,5.48459 12.25018,12.25018c0,6.76558 -5.48459,12.25018 -12.25018,12.25018c-6.76558,0 -12.25018,-5.48459 -12.25018,-12.25018z" fill="#9a9a9a" stroke="#343434" stroke-width="2" stroke-linecap="butt"/><path d="M230.59824,180c0,-5.19244 4.20931,-9.40175 9.40176,-9.40175c5.19244,0 9.40176,4.20931 9.40176,9.40175c0,5.19244 -4.20933,9.40175 -9.40176,9.40175c-5.19244,0 -9.40176,-4.20931 -9.40176,-9.40175z" fill="url(#color-1)" stroke="url(#color-2)" stroke-width="0" stroke-linecap="butt"/><path d="M235.18839,180c0,-2.90688 2.3565,-5.26337 5.26337,-5.26337c2.90688,0 5.26337,2.3565 5.26337,5.26337c0,2.90688 -2.3565,5.26337 -5.26337,5.26337c-2.90688,0 -5.26337,-2.3565 -5.26337,-5.26337z" fill="#9a9a9a" stroke-opacity="0.50196" stroke="#ff0000" stroke-width="2" stroke-linecap="butt"/></g></g></g></svg>