<svg version="1.1" xmlns="http://www.w3.org/2000/svg" xmlns:xlink="http://www.w3.org/1999/xlink" width="71.45439" height="52.62188" viewBox="0,0,71.45439,52.62188"><g transform="translate(-204.2728,-153.68906)"><g data-paper-data="{&quot;isPaintingLayer&quot;:true}" fill-rule="nonzero" stroke-linejoin="miter" stroke-miterlimit="10" stroke-dasharray="" stroke-dashoffset="0" style="mix-blend-mode: normal"><path d="M204.27281,206.31094v-52.62188h71.45439v52.62188z" fill="#99d5ff" stroke="none" stroke-width="0" stroke-linecap="butt"/><text transform="translate(208.0604,167.24022) scale(0.29716,0.29716)" font-size="40" xml:space="preserve" fill="#6c95b3" fill-rule="nonzero" stroke="none" stroke-width="1" stroke-linecap="butt" stroke-linejoin="miter" stroke-miterlimit="10" stroke-dasharray="" stroke-dashoffset="0" font-family="Sans Serif" font-weight="normal" text-anchor="start" style="mix-blend-mode: normal"><tspan x="0" dy="0">强化III</tspan></text><g><path d="M237.23123,186.31298c0,-1.77498 1.4389,-3.21388 3.21388,-3.21388c1.77498,0 3.21388,1.4389 3.21388,3.21388c0,1.77498 -1.4389,3.21388 -3.21388,3.21388c-1.77498,0 -3.21388,-1.4389 -3.21388,-3.21388z" fill="#6c95b3" stroke="none" stroke-width="0" stroke-linecap="butt"/><path d="M230.36017,170.90851c0,0 3.27143,-0.89921 6.81567,2.05171c3.71741,3.0951 2.9368,7.03582 2.9368,7.03582" fill="none" stroke="#6c95b3" stroke-width="2.5" stroke-linecap="round"/><path d="M224.81258,196.04042c0,0 -0.90308,-3.27037 2.04365,-6.81809c3.0907,-3.72107 7.03234,-2.94512 7.03234,-2.94512" fill="none" stroke="#6c95b3" stroke-width="2.5" stroke-linecap="round"/><path d="M250.51192,201.87891c0,0 -3.24228,0.99925 -6.87546,-1.84145c-3.8107,-2.97949 -3.15148,-6.94232 -3.15148,-6.94232" fill="none" stroke="#6c95b3" stroke-width="2.5" stroke-linecap="round"/><path d="M255.44755,176.23604c0,0 1.06778,3.22035 -1.69522,6.91297c-2.898,3.87303 -6.87392,3.298 -6.87392,3.298" fill="none" stroke="#6c95b3" stroke-width="2.5" stroke-linecap="round"/></g></g></g></svg>