<svg version="1.1" xmlns="http://www.w3.org/2000/svg" xmlns:xlink="http://www.w3.org/1999/xlink" width="72.26982" height="79.30928" viewBox="0,0,72.26982,79.30928"><g transform="translate(-207,-147)"><g data-paper-data="{&quot;isPaintingLayer&quot;:true}" fill-rule="nonzero" stroke-linecap="butt" stroke-linejoin="miter" stroke-miterlimit="10" stroke-dasharray="" stroke-dashoffset="0" style="mix-blend-mode: normal"><path d="M207,213v-66h66v66z" fill="#3f3f3f" stroke="none" stroke-width="0"/><text transform="translate(262.77789,218.02448) scale(0.6904,0.6904)" font-size="40" xml:space="preserve" fill="#989898" fill-rule="nonzero" stroke="#979797" stroke-width="0" stroke-linecap="butt" stroke-linejoin="miter" stroke-miterlimit="10" stroke-dasharray="" stroke-dashoffset="0" font-family="Sans Serif" font-weight="normal" text-anchor="start" style="mix-blend-mode: normal"><tspan x="0" dy="0">1</tspan></text><g fill="#999999" stroke-width="1.5"><path d="M228.27083,180c0,-6.47783 5.25134,-11.72917 11.72917,-11.72917c6.47783,0 11.72917,5.25134 11.72917,11.72917c0,6.47783 -5.25134,11.72917 -11.72917,11.72917c-6.47783,0 -11.72917,-5.25134 -11.72917,-11.72917z" stroke="#343434"/><path d="M232.32831,180c0,-4.23696 3.43473,-7.67169 7.67169,-7.67169c4.23696,0 7.67169,3.43473 7.67169,7.67169c0,4.23696 -3.43473,7.67169 -7.67169,7.67169c-4.23696,0 -7.67169,-3.43473 -7.67169,-7.67169z" stroke="#323232"/></g></g></g></svg>