<svg version="1.1" xmlns="http://www.w3.org/2000/svg" xmlns:xlink="http://www.w3.org/1999/xlink" width="71.45439" height="52.62188" viewBox="0,0,71.45439,52.62188"><g transform="translate(-204.27296,-153.68906)"><g data-paper-data="{&quot;isPaintingLayer&quot;:true}" fill-rule="nonzero" stroke-linejoin="miter" stroke-miterlimit="10" stroke-dasharray="" stroke-dashoffset="0" style="mix-blend-mode: normal"><path d="M204.27297,206.31094v-52.62188h71.45439v52.62188z" fill="#cd2a2a" stroke="none" stroke-width="0" stroke-linecap="butt"/><text transform="translate(208.0604,167.24022) scale(0.29716,0.29716)" font-size="40" xml:space="preserve" fill="#7f1919" fill-rule="nonzero" stroke="none" stroke-width="1" stroke-linecap="butt" stroke-linejoin="miter" stroke-miterlimit="10" stroke-dasharray="" stroke-dashoffset="0" font-family="Sans Serif" font-weight="normal" text-anchor="start" style="mix-blend-mode: normal"><tspan x="0" dy="0">强化II</tspan></text><path d="M239.37502,185.93586l14.25,16.75h-30z" fill="#7f1919" stroke="#000000" stroke-width="0" stroke-linecap="round"/><path d="M234.77383,188.66801c0,-0.75939 0.61561,-1.375 1.375,-1.375c0.75939,0 1.375,0.61561 1.375,1.375c0,0.75939 -0.61561,1.375 -1.375,1.375c-0.75939,0 -1.375,-0.61561 -1.375,-1.375z" fill="#7f1919" stroke="none" stroke-width="0" stroke-linecap="butt"/><path d="M240.47026,186.79301c0,-0.75939 0.61561,-1.375 1.375,-1.375c0.75939,0 1.375,0.61561 1.375,1.375c0,0.75939 -0.61561,1.375 -1.375,1.375c-0.75939,0 -1.375,-0.61561 -1.375,-1.375z" fill="#7f1919" stroke="none" stroke-width="0" stroke-linecap="butt"/><path d="M236.13097,184.40015c0,-0.75939 0.61561,-1.375 1.375,-1.375c0.75939,0 1.375,0.61561 1.375,1.375c0,0.75939 -0.61561,1.375 -1.375,1.375c-0.75939,0 -1.375,-0.61561 -1.375,-1.375z" fill="#7f1919" stroke="none" stroke-width="0" stroke-linecap="butt"/><path d="M238.7024,180.98944c0,-0.75939 0.61561,-1.375 1.375,-1.375c0.75939,0 1.375,0.61561 1.375,1.375c0,0.75939 -0.61561,1.375 -1.375,1.375c-0.75939,0 -1.375,-0.61561 -1.375,-1.375z" fill="#7f1919" stroke="none" stroke-width="0" stroke-linecap="butt"/><path d="M236.63097,176.90015c0,-0.75939 0.61561,-1.375 1.375,-1.375c0.75939,0 1.375,0.61561 1.375,1.375c0,0.75939 -0.61561,1.375 -1.375,1.375c-0.75939,0 -1.375,-0.61561 -1.375,-1.375z" fill="#7f1919" stroke="none" stroke-width="0" stroke-linecap="butt"/><path d="M237.34526,171.73944c0,-0.75939 0.61561,-1.375 1.375,-1.375c0.75939,0 1.375,0.61561 1.375,1.375c0,0.75939 -0.61561,1.375 -1.375,1.375c-0.75939,0 -1.375,-0.61561 -1.375,-1.375z" fill="#7f1919" stroke="none" stroke-width="0" stroke-linecap="butt"/><path d="M236.81493,192.49249c0,-0.75939 0.61561,-1.375 1.375,-1.375c0.75939,0 1.375,0.61561 1.375,1.375c0,0.75939 -0.61561,1.375 -1.375,1.375c-0.75939,0 -1.375,-0.61561 -1.375,-1.375z" fill="#cd2a2a" stroke="none" stroke-width="0" stroke-linecap="butt"/><path d="M241.83966,196.58589c0,-0.75939 0.61561,-1.375 1.375,-1.375c0.75939,0 1.375,0.61561 1.375,1.375c0,0.75939 -0.61561,1.375 -1.375,1.375c-0.75939,0 -1.375,-0.61561 -1.375,-1.375z" fill="#cd2a2a" stroke="none" stroke-width="0" stroke-linecap="butt"/><path d="M232.1471,199.42649c0,-0.75939 0.61561,-1.375 1.375,-1.375c0.75939,0 1.375,0.61561 1.375,1.375c0,0.75939 -0.61561,1.375 -1.375,1.375c-0.75939,0 -1.375,-0.61561 -1.375,-1.375z" fill="#cd2a2a" stroke="none" stroke-width="0" stroke-linecap="butt"/></g></g></svg>