<svg version="1.1" xmlns="http://www.w3.org/2000/svg" xmlns:xlink="http://www.w3.org/1999/xlink" width="71.45439" height="52.62188" viewBox="0,0,71.45439,52.62188"><g transform="translate(-204.27281,-153.68906)"><g data-paper-data="{&quot;isPaintingLayer&quot;:true}" fill-rule="nonzero" stroke="none" stroke-linecap="butt" stroke-linejoin="miter" stroke-miterlimit="10" stroke-dasharray="" stroke-dashoffset="0" style="mix-blend-mode: normal"><path d="M204.27281,206.31094v-52.62188h71.45439v52.62188z" fill="#99d5ff" stroke-width="0"/><text transform="translate(208.0604,167.24022) scale(0.29716,0.29716)" font-size="40" xml:space="preserve" fill="#6c95b3" fill-rule="nonzero" stroke="none" stroke-width="1" stroke-linecap="butt" stroke-linejoin="miter" stroke-miterlimit="10" stroke-dasharray="" stroke-dashoffset="0" font-family="Sans Serif" font-weight="normal" text-anchor="start" style="mix-blend-mode: normal"><tspan x="0" dy="0">强化I</tspan></text><g fill="#6c95b3" stroke-width="0"><path d="M241.31419,178.39715c-2.30578,-4.29452 -0.69358,-9.64512 3.60094,-11.9509c4.29452,-2.30578 9.64512,-0.69358 11.9509,3.60094c2.30578,4.29452 0.69358,9.64512 -3.60094,11.9509c-4.29452,2.30578 -9.64512,0.69358 -11.9509,-3.60094z"/><path d="M244.33412,166.82264l-0.54989,-3.19014l6.56793,-1.13213l0.54989,3.19014z"/><path d="M248.07589,185.87289l-0.54989,-3.19014l6.56793,-1.13213l0.54989,3.19014z"/><path d="M256.14027,169.62852l3.18423,-0.58314l1.20058,6.55576l-3.18423,0.58314z"/><path d="M237.68057,172.81047l3.18422,-0.58314l1.20058,6.55576l-3.18422,0.58314z"/></g><g fill="#6c95b3" stroke-width="0"><path d="M217.47061,185.70729c1.30025,-5.44293 6.76668,-8.80123 12.20961,-7.50098c5.44293,1.30025 8.80123,6.76668 7.50098,12.20961c-1.30025,5.44293 -6.76668,8.80123 -12.20961,7.50098c-5.44293,-1.30025 -8.80123,-6.76668 -7.50098,-12.20961z"/><path d="M226.08385,177.962l0.78735,-3.29587l6.78561,1.621l-0.78735,3.29587z"/><path d="M221.13682,199.5284l0.78735,-3.29587l6.78561,1.621l-0.78735,3.29587z"/><path d="M235.07671,181.70957l3.23522,-1.00798l2.07525,6.66075l-3.23522,1.00798z"/><path d="M214.31383,188.84094l3.23522,-1.00798l2.07524,6.66075l-3.23522,1.00798z"/><path d="M220.48325,176.64747l2.43031,2.36141l-4.86172,5.00359l-2.43031,-2.36141z" data-paper-data="{&quot;index&quot;:null}"/><path d="M236.26141,192.09819l2.43031,2.36141l-4.86172,5.00359l-2.43031,-2.36141z" data-paper-data="{&quot;index&quot;:null}"/></g><path d="M222.03336,188.2c0,-3.03757 2.46243,-5.5 5.5,-5.5c3.03757,0 5.5,2.46243 5.5,5.5c0,3.03757 -2.46243,5.5 -5.5,5.5c-3.03757,0 -5.5,-2.46243 -5.5,-5.5z" fill="#99d5ff" stroke-width="0"/><path d="M244.83337,174.2c0,-2.37482 1.92518,-4.3 4.3,-4.3c2.37482,0 4.3,1.92518 4.3,4.3c0,2.37482 -1.92518,4.3 -4.3,4.3c-2.37482,0 -4.3,-1.92518 -4.3,-4.3z" fill="#99d5ff" stroke-width="0"/></g></g></svg>