<svg version="1.1" xmlns="http://www.w3.org/2000/svg" xmlns:xlink="http://www.w3.org/1999/xlink" width="71.45439" height="52.62188" viewBox="0,0,71.45439,52.62188"><g transform="translate(-204.27281,-153.68906)"><g data-paper-data="{&quot;isPaintingLayer&quot;:true}" fill-rule="nonzero" stroke-linejoin="miter" stroke-miterlimit="10" stroke-dasharray="" stroke-dashoffset="0" style="mix-blend-mode: normal"><path d="M204.27281,206.31094v-52.62188h71.45439v52.62188z" fill="#299bcc" stroke="none" stroke-width="0" stroke-linecap="butt"/><text transform="translate(208.06035,167.24022) scale(0.29716,0.29716)" font-size="40" xml:space="preserve" fill="#1a6380" fill-rule="nonzero" stroke="none" stroke-width="1" stroke-linecap="butt" stroke-linejoin="miter" stroke-miterlimit="10" stroke-dasharray="" stroke-dashoffset="0" font-family="Sans Serif" font-weight="normal" text-anchor="start" style="mix-blend-mode: normal"><tspan x="0" dy="0">强化III</tspan></text><path d="M228.4564,202.925l-6.83139,-12.56977l7.3779,2.45931l-4.09884,-14.2093l8.74419,8.47093l7.10465,-13.66279l0.27326,16.1221l9.01744,-7.37791l-1.36628,10.38372l8.19768,-2.73256l-7.3779,13.11628z" fill="#1a6380" stroke="#1a6380" stroke-width="0" stroke-linecap="round"/><path d="M248.14048,173.84524l-4.62585,4.62585l-0.23129,5.08844l4.85714,-3.46939z" fill="#1a6380" stroke="#1a6380" stroke-width="0" stroke-linecap="round"/><path d="M232.20058,201.325l-3.57558,-6.57907l3.86163,1.28721l-2.14535,-7.43721l4.57674,4.43372l3.7186,-7.15116l0.14303,8.43837l4.71977,-3.86163l-0.71512,5.43489l4.2907,-1.43023l-3.86163,6.86512z" fill="#299bcc" stroke="#1a6380" stroke-width="0" stroke-linecap="round"/></g></g></svg>