<svg version="1.1" xmlns="http://www.w3.org/2000/svg" xmlns:xlink="http://www.w3.org/1999/xlink" width="71.45439" height="52.62188" viewBox="0,0,71.45439,52.62188"><g transform="translate(-204.2728,-153.68906)"><g data-paper-data="{&quot;isPaintingLayer&quot;:true}" fill-rule="nonzero" stroke-linejoin="miter" stroke-miterlimit="10" stroke-dasharray="" stroke-dashoffset="0" style="mix-blend-mode: normal"><path d="M204.27281,206.31094v-52.62188h71.45439v52.62188z" fill="#299bcc" stroke="none" stroke-width="0" stroke-linecap="butt"/><text transform="translate(208.06036,167.24022) scale(0.29716,0.29716)" font-size="40" xml:space="preserve" fill="#1a6380" fill-rule="nonzero" stroke="none" stroke-width="1" stroke-linecap="butt" stroke-linejoin="miter" stroke-miterlimit="10" stroke-dasharray="" stroke-dashoffset="0" font-family="Sans Serif" font-weight="normal" text-anchor="start" style="mix-blend-mode: normal"><tspan x="0" dy="0">强化II</tspan></text><g fill="none" stroke="#1a6380" stroke-width="1.5"><path d="M229.29708,185.31111c0,-5.89432 4.7783,-10.67262 10.67262,-10.67262c5.89432,0 10.67262,4.7783 10.67262,10.67262c0,5.89432 -4.7783,10.67262 -10.67262,10.67262c-5.89432,0 -10.67262,-4.7783 -10.67262,-10.67262z" stroke-linecap="butt"/><path d="M246.33222,189.51174l-6.43094,-4.24168v-7.79922" stroke-linecap="round"/><path d="M243.78914,172.1504l0.87302,-3.49206" stroke-linecap="round"/><path d="M250.77327,177.38849l3.27381,-2.18254" stroke-linecap="round"/><path d="M255.79311,185.9004h-2.61905" stroke-linecap="round"/><path d="M251.42803,192.66627l3.05556,2.40079" stroke-linecap="round"/><path d="M245.09866,197.68611l0.87302,3.05556" stroke-linecap="round"/><path d="M236.80501,197.90436l-1.30952,2.61905" stroke-linecap="round"/><path d="M229.82089,195.28532l-2.40079,1.96429" stroke-linecap="round"/><path d="M223.70978,189.1742l3.05556,-0.21825" stroke-linecap="round"/><path d="M227.8566,181.53532l-2.18254,-1.09127" stroke-linecap="round"/><path d="M230.47565,172.1504l2.61905,3.05556" stroke-linecap="round"/></g></g></g></svg>