<svg version="1.1" xmlns="http://www.w3.org/2000/svg" xmlns:xlink="http://www.w3.org/1999/xlink" width="72.26982" height="79.30928" viewBox="0,0,72.26982,79.30928"><g transform="translate(-207,-147)"><g data-paper-data="{&quot;isPaintingLayer&quot;:true}" fill-rule="nonzero" stroke-linecap="butt" stroke-linejoin="miter" stroke-miterlimit="10" stroke-dasharray="" stroke-dashoffset="0" style="mix-blend-mode: normal"><path d="M207,213v-66h66v66z" fill="#3f3f3f" stroke="none" stroke-width="0"/><text transform="translate(262.77789,218.02448) scale(0.6904,0.6904)" font-size="40" xml:space="preserve" fill="#989898" fill-rule="nonzero" stroke="#979797" stroke-width="0" stroke-linecap="butt" stroke-linejoin="miter" stroke-miterlimit="10" stroke-dasharray="" stroke-dashoffset="0" font-family="Sans Serif" font-weight="normal" text-anchor="start" style="mix-blend-mode: normal"><tspan x="0" dy="0">2</tspan></text><g fill="#808080" stroke="#343434" stroke-width="1.5"><path d="M226.72916,180c0,-7.32928 5.94156,-13.27084 13.27084,-13.27084c7.32928,0 13.27084,5.94156 13.27084,13.27084c0,7.32928 -5.94156,13.27084 -13.27084,13.27084c-7.32928,0 -13.27084,-5.94156 -13.27084,-13.27084z"/><path d="M231.31994,180c0,-4.79387 3.88619,-8.68006 8.68006,-8.68006c4.79387,0 8.68006,3.88619 8.68006,8.68006c0,4.79387 -3.88619,8.68006 -8.68006,8.68006c-4.79387,0 -8.68006,-3.88619 -8.68006,-8.68006z"/></g></g></g></svg>