<svg version="1.1" xmlns="http://www.w3.org/2000/svg" xmlns:xlink="http://www.w3.org/1999/xlink" width="71.45439" height="52.62188" viewBox="0,0,71.45439,52.62188"><g transform="translate(-204.27298,-153.68906)"><g data-paper-data="{&quot;isPaintingLayer&quot;:true}" fill-rule="nonzero" stroke-linejoin="miter" stroke-miterlimit="10" stroke-dasharray="" stroke-dashoffset="0" style="mix-blend-mode: normal"><path d="M204.27299,206.31094v-52.62188h71.45439v52.62188z" fill="#99d5ff" stroke="none" stroke-width="0" stroke-linecap="butt"/><text transform="translate(208.06042,167.24022) scale(0.29716,0.29716)" font-size="40" xml:space="preserve" fill="#6c95b3" fill-rule="nonzero" stroke="none" stroke-width="1" stroke-linecap="butt" stroke-linejoin="miter" stroke-miterlimit="10" stroke-dasharray="" stroke-dashoffset="0" font-family="Sans Serif" font-weight="normal" text-anchor="start" style="mix-blend-mode: normal"><tspan x="0" dy="0">强化III</tspan></text><path d="M229.54529,170.38186l11.64162,1.22447l-9.64085,6.9503l1.73995,-3.05868l-6.1719,-0.05153l5.407,-3.17896z" fill="#6c95b3" stroke="#000000" stroke-width="0" stroke-linecap="round"/><path d="M242.84254,174.9037l11.25683,-3.21097l-6.34839,10.04741l0.47202,-3.48714l-5.74476,2.25673l3.82895,-4.96796z" fill="#6c95b3" stroke="#000000" stroke-width="0" stroke-linecap="round"/><path d="M241.99775,190.2279l9.77932,-6.43363l-3.04938,11.48712l-0.59356,-3.46852l-4.8057,3.87302l2.1661,-5.88638z" fill="#6c95b3" stroke="#000000" stroke-width="0" stroke-linecap="round"/><path d="M225.35714,175.95714c0,0 -6.73103,0.74575 -12.05388,4.49737c-5.49349,3.8719 -7.80326,10.9312 -7.80326,10.9312" fill="none" stroke="#6c95b3" stroke-width="1.5" stroke-linecap="round"/><path d="M240.78571,182.38571c0,0 -4.54588,5.23218 -10.96189,8.51829c-4.84729,2.48265 -9.49191,1.46126 -14.61333,4.83271c-5.17434,3.40628 -9.13907,9.07757 -9.13907,9.07757" fill="none" stroke="#6c95b3" stroke-width="1.5" stroke-linecap="round"/><path d="M241.92857,196.81429c0,0 -2.68949,3.92046 -7.86894,6.11244c-5.31439,2.2491 -13.13106,2.03041 -13.13106,2.03041" fill="none" stroke="#6c95b3" stroke-width="1.5" stroke-linecap="round"/></g></g></svg>