<svg version="1.1" xmlns="http://www.w3.org/2000/svg" xmlns:xlink="http://www.w3.org/1999/xlink" width="71.45439" height="52.62188" viewBox="0,0,71.45439,52.62188"><g transform="translate(-204.2728,-153.68906)"><g data-paper-data="{&quot;isPaintingLayer&quot;:true}" fill-rule="nonzero" stroke-linejoin="miter" stroke-miterlimit="10" stroke-dasharray="" stroke-dashoffset="0" style="mix-blend-mode: normal"><path d="M204.2728,206.31094v-52.62188h71.45439v52.62188z" fill="#1f9929" stroke="none" stroke-width="0" stroke-linecap="butt"/><text transform="translate(208.06021,167.24022) scale(0.29716,0.29716)" font-size="40" xml:space="preserve" fill="#15661b" fill-rule="nonzero" stroke="none" stroke-width="1" stroke-linecap="butt" stroke-linejoin="miter" stroke-miterlimit="10" stroke-dasharray="" stroke-dashoffset="0" font-family="Sans Serif" font-weight="normal" text-anchor="start" style="mix-blend-mode: normal"><tspan x="0" dy="0">强化III</tspan></text><g><path d="M245.30833,197.075c0,-2.66477 2.16022,-4.825 4.825,-4.825c2.66477,0 4.825,2.16022 4.825,4.825c0,2.66477 -2.16022,4.825 -4.825,4.825c-2.66477,0 -4.825,-2.16023 -4.825,-4.825z" fill="#15661b" stroke="none" stroke-width="0" stroke-linecap="butt"/><path d="M244.25,193.425l-11.5,3.5" fill="none" stroke="#15661b" stroke-width="1.5" stroke-linecap="round"/><path d="M245,200.675l-12.25,-1.25" fill="none" stroke="#15661b" stroke-width="1.5" stroke-linecap="round"/></g><g><path d="M245.01666,181.2c0,-2.66478 2.16022,-4.825 4.825,-4.825c2.66478,0 4.825,2.16022 4.825,4.825c0,2.66478 -2.16022,4.825 -4.825,4.825c-2.66478,0 -4.825,-2.16022 -4.825,-4.825z" fill="#15661b" stroke="none" stroke-width="0" stroke-linecap="butt"/><path d="M243.875,184.05l-14,8.25" fill="none" stroke="#15661b" stroke-width="1.5" stroke-linecap="round"/><path d="M247.375,187.55l-8.75,3" fill="none" stroke="#15661b" stroke-width="1.5" stroke-linecap="round"/><path d="M243.125,179.8l-6.75,5.5" fill="none" stroke="#15661b" stroke-width="1.5" stroke-linecap="round"/></g><g><path d="M232.90476,176.97349c-1.89591,-1.87257 -1.91485,-4.92753 -0.04227,-6.82345c1.87257,-1.89591 4.92753,-1.91485 6.82345,-0.04227c1.89591,1.87257 1.91485,4.92753 0.04227,6.82345c-1.87257,1.89591 -4.92754,1.91484 -6.82345,0.04227z" fill="#15661b" stroke="none" stroke-width="0" stroke-linecap="butt"/><path d="M229.56418,175.16156l-5.59104,10.64144" fill="none" stroke="#15661b" stroke-width="1.5" stroke-linecap="round"/><path d="M235.2494,179.72262l-9.49757,7.83716" fill="none" stroke="#15661b" stroke-width="1.5" stroke-linecap="round"/></g></g></g></svg>