<svg version="1.1" xmlns="http://www.w3.org/2000/svg" xmlns:xlink="http://www.w3.org/1999/xlink" width="72.26982" height="79.30928" viewBox="0,0,72.26982,79.30928"><defs><radialGradient cx="240" cy="180" r="10.62955" gradientUnits="userSpaceOnUse" id="color-1"><stop offset="0" stop-color="#ffea00"/><stop offset="1" stop-color="#ffea00" stop-opacity="0"/></radialGradient><radialGradient cx="240" cy="180" r="10.62955" gradientUnits="userSpaceOnUse" id="color-2"><stop offset="0" stop-color="#000000" stop-opacity="0"/><stop offset="1" stop-color="#000000" stop-opacity="0"/></radialGradient></defs><g transform="translate(-207,-147)"><g data-paper-data="{&quot;isPaintingLayer&quot;:true}" fill-rule="nonzero" stroke-linejoin="miter" stroke-miterlimit="10" stroke-dasharray="" stroke-dashoffset="0" style="mix-blend-mode: normal"><path d="M207,213v-66h66v66z" fill="#3f3f3f" stroke="none" stroke-width="0" stroke-linecap="butt"/><text transform="translate(262.77789,218.02448) scale(0.6904,0.6904)" font-size="40" xml:space="preserve" fill="#989898" fill-rule="nonzero" stroke="#979797" stroke-width="0" stroke-linecap="butt" stroke-linejoin="miter" stroke-miterlimit="10" stroke-dasharray="" stroke-dashoffset="0" font-family="Sans Serif" font-weight="normal" text-anchor="start" style="mix-blend-mode: normal"><tspan x="0" dy="0">9</tspan></text><g><path d="M219.98512,180c0,-11.05389 8.96098,-20.01488 20.01488,-20.01488c11.0539,0 20.01488,8.96099 20.01488,20.01488c0,11.0539 -8.96098,20.01488 -20.01488,20.01488c-11.0539,0 -20.01488,-8.96098 -20.01488,-20.01488z" fill="#656565" stroke="#343434" stroke-width="1.5" stroke-linecap="butt"/><path d="M253.36278,193.36278l-26.72557,-26.72557" fill="none" stroke="#343434" stroke-width="1.5" stroke-linecap="round"/><path d="M226.63723,193.36278l26.72557,-26.72557" data-paper-data="{&quot;index&quot;:null}" fill="none" stroke="#343434" stroke-width="1.5" stroke-linecap="round"/><path d="M225.32435,180c0,-8.10514 6.57052,-14.67566 14.67566,-14.67566c8.10513,0 14.67566,6.57052 14.67566,14.67566c0,8.10513 -6.57052,14.67566 -14.67566,14.67566c-8.10514,0 -14.67566,-6.57052 -14.67566,-14.67566z" fill="#7e7e7e" stroke="#343434" stroke-width="1" stroke-linecap="butt"/><path d="M240,165.89028v28.21945" fill="none" stroke="#343434" stroke-width="1.5" stroke-linecap="round"/><path d="M225.6146,180h28.7708" fill="none" stroke="#343434" stroke-width="1.5" stroke-linecap="round"/><path d="M224.79805,180c0,-8.3958 6.80615,-15.20195 15.20195,-15.20195c8.3958,0 15.20195,6.80616 15.20195,15.20195c0,8.3958 -6.80615,15.20195 -15.20195,15.20195c-8.3958,0 -15.20195,-6.80615 -15.20195,-15.20195z" fill="none" stroke-opacity="0.50196" stroke="#ffe900" stroke-width="2" stroke-linecap="butt"/><path d="M229.37045,180c0,-5.87054 4.759,-10.62953 10.62955,-10.62953c5.87054,0 10.62955,4.759 10.62955,10.62953c0,5.87054 -4.75903,10.62953 -10.62955,10.62953c-5.87054,0 -10.62955,-4.759 -10.62955,-10.62953z" fill="url(#color-1)" stroke="url(#color-2)" stroke-width="0" stroke-linecap="butt"/><path d="M234.49692,180c0,-3.03926 2.46382,-5.50308 5.50308,-5.50308c3.03926,0 5.50308,2.46382 5.50308,5.50308c0,3.03926 -2.46382,5.50308 -5.50308,5.50308c-3.03926,0 -5.50308,-2.46382 -5.50308,-5.50308z" fill="#7e7e7e" stroke="#343434" stroke-width="1" stroke-linecap="butt"/><path d="M234.03327,180c0,-3.29533 2.6714,-5.96673 5.96674,-5.96673c3.29533,0 5.96674,2.6714 5.96674,5.96674c0,3.29533 -2.6714,5.96674 -5.96673,5.96674c-3.29533,0 -5.96673,-2.6714 -5.96673,-5.96673z" fill="none" stroke-opacity="0.50196" stroke="#ffe900" stroke-width="2" stroke-linecap="butt"/></g></g></g></svg>