<svg version="1.1" xmlns="http://www.w3.org/2000/svg" xmlns:xlink="http://www.w3.org/1999/xlink" width="78.14685" height="79.30928" viewBox="0,0,78.14685,79.30928"><defs><radialGradient cx="240" cy="180" r="14.21653" gradientUnits="userSpaceOnUse" id="color-1"><stop offset="0" stop-color="#006aff"/><stop offset="1" stop-color="#006aff" stop-opacity="0"/></radialGradient><radialGradient cx="240" cy="180" r="14.21653" gradientUnits="userSpaceOnUse" id="color-2"><stop offset="0" stop-color="#000000" stop-opacity="0"/><stop offset="1" stop-color="#000000" stop-opacity="0"/></radialGradient></defs><g transform="translate(-207,-147)"><g data-paper-data="{&quot;isPaintingLayer&quot;:true}" fill-rule="nonzero" stroke-linecap="butt" stroke-linejoin="miter" stroke-miterlimit="10" stroke-dasharray="" stroke-dashoffset="0" style="mix-blend-mode: normal"><path d="M207,213v-66h66v66z" fill="#3f3f3f" stroke="none" stroke-width="0"/><text transform="translate(262.77789,218.02448) scale(0.6904,0.6904)" font-size="40" xml:space="preserve" fill="#989898" fill-rule="nonzero" stroke="#979797" stroke-width="0" stroke-linecap="butt" stroke-linejoin="miter" stroke-miterlimit="10" stroke-dasharray="" stroke-dashoffset="0" font-family="Sans Serif" font-weight="normal" text-anchor="start" style="mix-blend-mode: normal"><tspan x="0" dy="0">O</tspan></text><g><path d="M225.78347,180c0,-7.85158 6.36495,-14.21653 14.21653,-14.21653c7.85159,0 14.21653,6.36495 14.21653,14.21653c0,7.85159 -6.36498,14.21653 -14.21653,14.21653c-7.85158,0 -14.21653,-6.36495 -14.21653,-14.21653z" fill="url(#color-1)" stroke="url(#color-2)" stroke-width="0"/><path d="M230.52386,180c0,-5.23352 4.24262,-9.47614 9.47614,-9.47614c5.23352,0 9.47614,4.24262 9.47614,9.47614c0,5.23352 -4.24262,9.47614 -9.47614,9.47614c-5.23352,0 -9.47614,-4.24262 -9.47614,-9.47614z" fill="#7f7f7f" stroke-opacity="0.50196" stroke="#006aff" stroke-width="2.5"/><path d="M236.38294,180c0,-1.99764 1.61941,-3.61706 3.61706,-3.61706c1.99764,0 3.61706,1.61941 3.61706,3.61706c0,1.99764 -1.61941,3.61706 -3.61706,3.61706c-1.99764,0 -3.61706,-1.61941 -3.61706,-3.61706z" fill="#9a9a9a" stroke="#343434" stroke-width="1.5"/></g></g></g></svg>