<svg version="1.1" xmlns="http://www.w3.org/2000/svg" xmlns:xlink="http://www.w3.org/1999/xlink" width="23.5" height="23.5" viewBox="0,0,23.5,23.5"><g transform="translate(-228.25,-168.25)"><g data-paper-data="{&quot;isPaintingLayer&quot;:true}" fill-rule="nonzero" stroke-linejoin="miter" stroke-miterlimit="10" stroke-dasharray="" stroke-dashoffset="0" style="mix-blend-mode: normal"><path d="M228.25,191.75v-23.5h23.5v23.5z" fill="#1f9929" stroke="#333333" stroke-width="0" stroke-linecap="butt"/><path d="M237.5,184.88571c0,-1.30181 1.05533,-2.35714 2.35714,-2.35714c1.30181,0 2.35714,1.05533 2.35714,2.35714c0,1.30181 -1.05533,2.35714 -2.35714,2.35714c-1.30181,0 -2.35714,-1.05533 -2.35714,-2.35714z" fill="#15661b" stroke="none" stroke-width="0" stroke-linecap="butt"/><path d="M236.08929,181.74286c0,0 1.13709,-1.78571 3.83929,-1.78571c2.9641,0 3.82143,1.66071 3.82143,1.66071" fill="none" stroke="#15661b" stroke-width="1.5" stroke-linecap="round"/><path d="M233.78571,179.38571c0,0 2.01889,-2.57143 6.24107,-2.57143c4.13141,0 6.26786,2.69643 6.26786,2.69643" fill="none" stroke="#15661b" stroke-width="1.5" stroke-linecap="round"/><path d="M231.58928,176.86786c0,0 3.33926,-3.43976 8.50233,-3.41401c5.08355,0.02535 8.45302,3.91401 8.45302,3.91401" fill="none" stroke="#15661b" stroke-width="1.5" stroke-linecap="round"/></g></g></svg>