<svg version="1.1" xmlns="http://www.w3.org/2000/svg" xmlns:xlink="http://www.w3.org/1999/xlink" width="71.45439" height="52.62188" viewBox="0,0,71.45439,52.62188"><g transform="translate(-204.27286,-153.68906)"><g data-paper-data="{&quot;isPaintingLayer&quot;:true}" fill-rule="nonzero" stroke-linejoin="miter" stroke-miterlimit="10" stroke-dasharray="" stroke-dashoffset="0" style="mix-blend-mode: normal"><path d="M204.27287,206.31094v-52.62188h71.45439v52.62188z" fill="#1f9929" stroke="none" stroke-width="0" stroke-linecap="butt"/><text transform="translate(208.06026,167.24022) scale(0.29716,0.29716)" font-size="40" xml:space="preserve" fill="#15661b" fill-rule="nonzero" stroke="none" stroke-width="1" stroke-linecap="butt" stroke-linejoin="miter" stroke-miterlimit="10" stroke-dasharray="" stroke-dashoffset="0" font-family="Sans Serif" font-weight="normal" text-anchor="start" style="mix-blend-mode: normal"><tspan x="0" dy="0">强化II</tspan></text><path d="M261.91904,163.58863l-6.10261,10.33536l-5.02271,-5.93593z" fill="#15661b" stroke="#000000" stroke-width="0" stroke-linecap="round"/><path d="M204.29775,184.14544c0,0 0.63742,-0.34735 0.85028,-0.51478c3.42003,-2.69014 7.73407,-4.29481 12.4229,-4.29481c11.10659,0 20.11027,9.00368 20.11027,20.11028c0,2.06648 -0.31169,4.06015 -0.89061,5.93659c-0.10403,0.33718 -0.33772,0.88882 -0.33772,0.88882l-32.02444,-0.11535z" fill="#15661b" stroke="none" stroke-width="0" stroke-linecap="butt"/><path d="M232.23893,172.08882l-0.91352,10.10175l15.61568,-6.88927l-10.3339,12.63033l10.3339,0.68893l-12.85997,5.51141l-8.72641,-10.79319z" fill="#15661b" stroke="#000000" stroke-width="0" stroke-linecap="round"/><path d="M238.6168,175.39842l10.0538,-4.58897" fill="none" stroke="#15661b" stroke-width="1.5" stroke-linecap="round"/><path d="M245.78622,183.74278l7.20485,-8.27586" fill="none" stroke="#15661b" stroke-width="1.5" stroke-linecap="round"/></g></g></svg>