<svg version="1.1" xmlns="http://www.w3.org/2000/svg" xmlns:xlink="http://www.w3.org/1999/xlink" width="72.26982" height="79.30928" viewBox="0,0,72.26982,79.30928"><defs><radialGradient cx="240.5" cy="179.99997" r="15.15145" gradientUnits="userSpaceOnUse" id="color-1"><stop offset="0" stop-color="#ff0000"/><stop offset="1" stop-color="#ff0000" stop-opacity="0"/></radialGradient><radialGradient cx="240.5" cy="179.99997" r="15.15145" gradientUnits="userSpaceOnUse" id="color-2"><stop offset="0" stop-color="#000000" stop-opacity="0"/><stop offset="1" stop-color="#000000" stop-opacity="0"/></radialGradient></defs><g transform="translate(-207,-147)"><g data-paper-data="{&quot;isPaintingLayer&quot;:true}" fill-rule="nonzero" stroke-linejoin="miter" stroke-miterlimit="10" stroke-dasharray="" stroke-dashoffset="0" style="mix-blend-mode: normal"><path d="M207,213v-66h66v66z" fill="#3f3f3f" stroke="none" stroke-width="0" stroke-linecap="butt"/><g><path d="M216.6875,179.99997c0,-13.15126 10.66124,-23.8125 23.8125,-23.8125c13.15126,0 23.8125,10.66124 23.8125,23.8125c0,13.15126 -10.66124,23.8125 -23.8125,23.8125c-13.15126,0 -23.8125,-10.66124 -23.8125,-23.8125z" fill="#676767" stroke="#323232" stroke-width="2" stroke-linecap="butt"/><path d="M256.39824,195.89821l-31.79648,-31.79648" fill="none" stroke="#323232" stroke-width="2" stroke-linecap="round"/><path d="M256.39824,164.10173l-31.79648,31.79648" data-paper-data="{&quot;index&quot;:null}" fill="none" stroke="#323232" stroke-width="2" stroke-linecap="round"/><path d="M263.5,179.99997h-46" fill="none" stroke="#323232" stroke-width="2" stroke-linecap="round"/><path d="M240.5,157.49997v45" fill="none" stroke="#323232" stroke-width="2" stroke-linecap="round"/><path d="M224.92496,179.99997c0,-8.60185 6.97317,-15.57504 15.57504,-15.57504c8.60185,0 15.57504,6.97317 15.57504,15.57504c0,8.60185 -6.97317,15.57504 -15.57504,15.57504c-8.60185,0 -15.57504,-6.97317 -15.57504,-15.57504z" fill="#808080" stroke="#323232" stroke-width="2" stroke-linecap="butt"/><path d="M225.34855,179.99997c0,-8.3679 6.78353,-15.15142 15.15145,-15.15142c8.3679,0 15.15145,6.78351 15.15145,15.15142c0,8.3679 -6.78355,15.15142 -15.15145,15.15142c-8.3679,0 -15.15145,-6.78351 -15.15145,-15.15142z" fill="url(#color-1)" stroke="url(#color-2)" stroke-width="0" stroke-linecap="butt"/><path d="M229.92722,179.99997c0,-5.83918 4.73361,-10.57279 10.57279,-10.57279c5.83918,0 10.57279,4.73361 10.57279,10.57279c0,5.83918 -4.73361,10.57279 -10.57279,10.57279c-5.83918,0 -10.57279,-4.73361 -10.57279,-10.57279z" fill="#808080" stroke-opacity="0.50196" stroke="#ff0000" stroke-width="2" stroke-linecap="butt"/><path d="M234.13746,179.99997c0,-3.51392 2.8486,-6.36254 6.36254,-6.36254c3.51392,0 6.36254,2.8486 6.36254,6.36254c0,3.51392 -2.8486,6.36254 -6.36254,6.36254c-3.51392,0 -6.36254,-2.8486 -6.36254,-6.36254z" fill="#676767" stroke="#323232" stroke-width="2" stroke-linecap="butt"/></g><text transform="translate(262.77789,218.02448) scale(0.6904,0.6904)" font-size="40" xml:space="preserve" fill="#989898" fill-rule="nonzero" stroke="#979797" stroke-width="0" stroke-linecap="butt" stroke-linejoin="miter" stroke-miterlimit="10" stroke-dasharray="" stroke-dashoffset="0" font-family="Sans Serif" font-weight="normal" text-anchor="start" style="mix-blend-mode: normal"><tspan x="0" dy="0">5</tspan></text></g></g></svg>