<svg version="1.1" xmlns="http://www.w3.org/2000/svg" xmlns:xlink="http://www.w3.org/1999/xlink" width="71.45439" height="52.62188" viewBox="0,0,71.45439,52.62188"><g transform="translate(-204.27284,-153.68906)"><g data-paper-data="{&quot;isPaintingLayer&quot;:true}" fill-rule="nonzero" stroke-linejoin="miter" stroke-miterlimit="10" stroke-dasharray="" stroke-dashoffset="0" style="mix-blend-mode: normal"><path d="M204.27285,206.31094v-52.62188h71.45439v52.62188z" fill="#1f9929" stroke="none" stroke-width="0" stroke-linecap="butt"/><text transform="translate(208.06024,167.24022) scale(0.29716,0.29716)" font-size="40" xml:space="preserve" fill="#15661b" fill-rule="nonzero" stroke="none" stroke-width="1" stroke-linecap="butt" stroke-linejoin="miter" stroke-miterlimit="10" stroke-dasharray="" stroke-dashoffset="0" font-family="Sans Serif" font-weight="normal" text-anchor="start" style="mix-blend-mode: normal"><tspan x="0" dy="0">强化III</tspan></text><path d="M234,196.74167c0,-2.92251 2.36916,-5.29167 5.29166,-5.29167c2.92251,0 5.29166,2.36917 5.29166,5.29167c0,2.92251 -2.36916,5.29166 -5.29166,5.29166c-2.92251,0 -5.29166,-2.36916 -5.29166,-5.29166z" fill="#15661b" stroke="none" stroke-width="0" stroke-linecap="butt"/><path d="M227.75,192.61667c0,0 3.25084,-7.20836 11.33367,-7.25066c8.41603,-0.04405 11.833,7.25066 11.833,7.25066" fill="none" stroke="#15661b" stroke-width="2.5" stroke-linecap="round"/><path d="M220.25001,189.45c0,0 5.27805,-11.7035 18.40135,-11.77218c13.66428,-0.07152 19.21207,11.77218 19.21207,11.77218" fill="none" stroke="#15661b" stroke-width="2.5" stroke-linecap="round"/><path d="M213.75001,186.11667c0,0 7.07139,-15.68006 24.65366,-15.77207c18.30705,-0.09582 25.73984,15.77208 25.73984,15.77208" fill="none" stroke="#15661b" stroke-width="2.5" stroke-linecap="round"/></g></g></svg>