<svg version="1.1" xmlns="http://www.w3.org/2000/svg" xmlns:xlink="http://www.w3.org/1999/xlink" width="71.45439" height="52.62188" viewBox="0,0,71.45439,52.62188"><g transform="translate(-204.27288,-153.68906)"><g data-paper-data="{&quot;isPaintingLayer&quot;:true}" fill-rule="nonzero" stroke-linejoin="miter" stroke-miterlimit="10" stroke-dasharray="" stroke-dashoffset="0" style="mix-blend-mode: normal"><path d="M204.27288,206.31094v-52.62188h71.45439v52.62188z" fill="#cba029" stroke="none" stroke-width="0" stroke-linecap="butt"/><text transform="translate(208.06031,167.24022) scale(0.29716,0.29716)" font-size="40" xml:space="preserve" fill="#80631a" fill-rule="nonzero" stroke="none" stroke-width="1" stroke-linecap="butt" stroke-linejoin="miter" stroke-miterlimit="10" stroke-dasharray="" stroke-dashoffset="0" font-family="Sans Serif" font-weight="normal" text-anchor="start" style="mix-blend-mode: normal"><tspan x="0" dy="0">强化III</tspan></text><g fill="#80631a" stroke="#b28000" stroke-width="0"><path d="M237.58513,190.11473c-1.94136,-1.00894 -2.69719,-3.40064 -1.68825,-5.342c1.00894,-1.94136 3.40064,-2.69719 5.342,-1.68825c1.94136,1.009 2.69719,3.4007 1.68825,5.342c-1.00894,1.94136 -3.40064,2.69719 -5.342,1.68825z" stroke-linecap="butt"/><path d="M247.97499,199.88454l-4.96312,-7.09824c0,0 2.15466,-1.06026 3.06009,-2.96638c0.74481,-1.56801 0.40012,-3.94148 0.40012,-3.94148l8.75755,0.04744c0,0 0.591,4.14224 -1.55341,8.26828c-2.0004,3.84902 -5.70116,5.69044 -5.70116,5.69044z" stroke-linecap="round"/><path d="M232.39506,186.14566c0,0 -0.02926,2.09317 1.09536,3.87874c0.92518,1.46883 2.71121,2.62917 2.71121,2.62917l-4.44222,7.36308c0,0 -3.81442,-1.71968 -6.15004,-5.74051c-2.17878,-3.75091 -1.75145,-7.86235 -1.75145,-7.86235z" stroke-linecap="round"/><path d="M247.61329,173.6647l-4.52364,7.20261c0,0 -1.86056,-1.03698 -3.97064,-1.05954c-1.73585,-0.01853 -3.55692,0.97089 -3.55692,0.97089l-3.66311,-7.84583c0,0 3.51254,-2.27363 8.15747,-2.05733c4.33312,0.20178 7.55679,2.7892 7.55679,2.7892z" stroke-linecap="round"/></g></g></g></svg>