<svg version="1.1" xmlns="http://www.w3.org/2000/svg" xmlns:xlink="http://www.w3.org/1999/xlink" width="71.45439" height="52.62188" viewBox="0,0,71.45439,52.62188"><g transform="translate(-204.2728,-153.68906)"><g data-paper-data="{&quot;isPaintingLayer&quot;:true}" fill-rule="nonzero" stroke-linejoin="miter" stroke-miterlimit="10" stroke-dasharray="" stroke-dashoffset="0" style="mix-blend-mode: normal"><path d="M204.2728,206.31094v-52.62188h71.45439v52.62188z" fill="#cd2a2a" stroke="none" stroke-width="0" stroke-linecap="butt"/><text transform="translate(208.06036,167.24022) scale(0.29716,0.29716)" font-size="40" xml:space="preserve" fill="#7f1919" fill-rule="nonzero" stroke="none" stroke-width="1" stroke-linecap="butt" stroke-linejoin="miter" stroke-miterlimit="10" stroke-dasharray="" stroke-dashoffset="0" font-family="Sans Serif" font-weight="normal" text-anchor="start" style="mix-blend-mode: normal"><tspan x="0" dy="0">强化I</tspan></text><path d="M257.9,187.04c0,-2.81665 2.28335,-5.1 5.1,-5.1c2.81665,0 5.1,2.28335 5.1,5.1c0,2.81665 -2.28335,5.1 -5.1,5.1c-2.81665,0 -5.1,-2.28335 -5.1,-5.1z" fill="#7f1919" stroke="none" stroke-width="0" stroke-linecap="butt"/><path d="M218.3,185.74l4.6,-3.6" fill="none" stroke="#7f1919" stroke-width="1.5" stroke-linecap="round"/><path d="M227.7,178.94l5.8,-2" fill="none" stroke="#7f1919" stroke-width="1.5" stroke-linecap="round"/><path d="M238.5,176.14l6.6,0.2" fill="none" stroke="#7f1919" stroke-width="1.5" stroke-linecap="round"/><path d="M249.9,178.34l5.4,3.2" fill="none" stroke="#7f1919" stroke-width="1.5" stroke-linecap="round"/><path d="M204.36765,205.48495l-0.04234,-14.68464l6.70704,-5.80526l7.19891,8.31719z" fill="#7f1919" stroke="none" stroke-width="0" stroke-linecap="butt"/></g></g></svg>