<svg version="1.1" xmlns="http://www.w3.org/2000/svg" xmlns:xlink="http://www.w3.org/1999/xlink" width="71.58942" height="52.74126" viewBox="0,0,71.58942,52.74126"><g transform="translate(-204.13779,-153.68906)"><g data-paper-data="{&quot;isPaintingLayer&quot;:true}" fill-rule="nonzero" stroke-linejoin="miter" stroke-miterlimit="10" stroke-dasharray="" stroke-dashoffset="0" style="mix-blend-mode: normal"><path d="M204.27282,206.31094v-52.62188h71.45439v52.62188z" fill="#1f9929" stroke="none" stroke-width="0" stroke-linecap="butt"/><text transform="translate(208.06021,167.24022) scale(0.29716,0.29716)" font-size="40" xml:space="preserve" fill="#15661b" fill-rule="nonzero" stroke="none" stroke-width="1" stroke-linecap="butt" stroke-linejoin="miter" stroke-miterlimit="10" stroke-dasharray="" stroke-dashoffset="0" font-family="Sans Serif" font-weight="normal" text-anchor="start" style="mix-blend-mode: normal"><tspan x="0" dy="0">强化I</tspan></text><path d="M204.13779,193.32297l33.14463,-17.88757l1.61477,2.99208l-34.66155,18.70623z" fill="#15661b" stroke="none" stroke-width="0" stroke-linecap="butt"/><path d="M207.42271,206.28031l35.65971,-19.44492l1.61477,2.99208l-30.39353,16.60285z" fill="#15661b" stroke="none" stroke-width="0" stroke-linecap="butt"/><path d="M256.43333,171.825c0,-3.21706 2.60794,-5.825 5.825,-5.825c3.21706,0 5.825,2.60794 5.825,5.825c0,3.21706 -2.60794,5.825 -5.825,5.825c-3.21706,0 -5.825,-2.60794 -5.825,-5.825z" fill="#15661b" stroke="none" stroke-width="0" stroke-linecap="butt"/><path d="M240.63333,183.1l12.4,-6.6" fill="none" stroke="#15661b" stroke-width="1.5" stroke-linecap="round"/><path d="M252.63333,170.3l-7,6.2" fill="none" stroke="#15661b" stroke-width="1.5" stroke-linecap="round"/><path d="M258.83333,179.9l-10.6,3.2" fill="none" stroke="#15661b" stroke-width="1.5" stroke-linecap="round"/></g></g></svg>