<svg version="1.1" xmlns="http://www.w3.org/2000/svg" xmlns:xlink="http://www.w3.org/1999/xlink" width="72.26982" height="79.30928" viewBox="0,0,72.26982,79.30928"><defs><linearGradient x1="240.01189" y1="180.02226" x2="234.37195" y2="185.63583" gradientUnits="userSpaceOnUse" id="color-1"><stop offset="0" stop-color="#00ff19"/><stop offset="1" stop-color="#00ff19" stop-opacity="0"/></linearGradient><linearGradient x1="239.98826" y1="179.95172" x2="245.62822" y2="174.33815" gradientUnits="userSpaceOnUse" id="color-2"><stop offset="0" stop-color="#00ff19"/><stop offset="1" stop-color="#00ff19" stop-opacity="0"/></linearGradient><linearGradient x1="240.02817" y1="179.95108" x2="245.64258" y2="185.59191" gradientUnits="userSpaceOnUse" id="color-3"><stop offset="0" stop-color="#00ff19"/><stop offset="1" stop-color="#00ff19" stop-opacity="0"/></linearGradient><linearGradient x1="239.99958" y1="180.04047" x2="234.38514" y2="174.39966" gradientUnits="userSpaceOnUse" id="color-4"><stop offset="0" stop-color="#00ff19"/><stop offset="1" stop-color="#00ff19" stop-opacity="0"/></linearGradient></defs><g transform="translate(-207,-147)"><g data-paper-data="{&quot;isPaintingLayer&quot;:true}" fill-rule="nonzero" stroke-linejoin="miter" stroke-miterlimit="10" stroke-dasharray="" stroke-dashoffset="0" style="mix-blend-mode: normal"><path d="M207,213v-66h66v66z" fill="#3f3f3f" stroke="none" stroke-width="0" stroke-linecap="butt"/><text transform="translate(262.77789,218.02448) scale(0.6904,0.6904)" font-size="40" xml:space="preserve" fill="#989898" fill-rule="nonzero" stroke="#979797" stroke-width="0" stroke-linecap="butt" stroke-linejoin="miter" stroke-miterlimit="10" stroke-dasharray="" stroke-dashoffset="0" font-family="Sans Serif" font-weight="normal" text-anchor="start" style="mix-blend-mode: normal"><tspan x="0" dy="0">7</tspan></text><g><path d="M219.98512,180c0,-11.05389 8.96099,-20.01488 20.01488,-20.01488c11.05389,0 20.01488,8.96099 20.01488,20.01488c0,11.05389 -8.96099,20.01488 -20.01488,20.01488c-11.05389,0 -20.01488,-8.96099 -20.01488,-20.01488z" fill="#676767" stroke="#343434" stroke-width="1.5" stroke-linecap="butt"/><path d="M253.36278,193.36278l-26.72558,-26.72558" fill="none" stroke="#343434" stroke-width="1.5" stroke-linecap="round"/><path d="M253.36279,166.63721l-26.72558,26.72558" data-paper-data="{&quot;index&quot;:null}" fill="none" stroke="#343434" stroke-width="1.5" stroke-linecap="round"/><path d="M226.90887,180c0,-7.23003 5.86109,-13.09113 13.09113,-13.09113c7.23003,0 13.09113,5.86109 13.09113,13.09113c0,7.23003 -5.86109,13.09113 -13.09113,13.09113c-7.23003,0 -13.09113,-5.86109 -13.09113,-13.09113z" fill="#7e7e7e" stroke="#343434" stroke-width="1.5" stroke-linecap="butt"/><path d="M240,167.73732v24.52536" fill="none" stroke="#343434" stroke-width="1.5" stroke-linecap="round"/><path d="M252.57845,180h-25.15691" fill="none" stroke="#343434" stroke-width="1.5" stroke-linecap="round"/><g stroke="none" stroke-width="0" stroke-linecap="butt"><path d="M228.79754,179.98293l11.22736,0.05241l-0.0524,11.22735z" fill="url(#color-1)"/><path d="M251.22876,179.96503l-11.22751,-0.00023l0.00023,-11.22749z" data-paper-data="{&quot;index&quot;:null}" fill="url(#color-2)"/><path d="M240.01572,191.19243l-0.00149,-11.22749l11.22749,-0.00149z" data-paper-data="{&quot;index&quot;:null}" fill="url(#color-3)"/><path d="M240.03977,168.827l-0.05412,11.22735l-11.22735,-0.05415z" data-paper-data="{&quot;index&quot;:null}" fill="url(#color-4)"/></g><path d="M234.84805,180.03633l5.11562,-5.18828l5.18828,5.11562l-5.11562,5.18828z" fill="#7f7f7f" stroke-opacity="0.50196" stroke="#00ff15" stroke-width="2" stroke-linecap="butt"/></g></g></g></svg>