<svg version="1.1" xmlns="http://www.w3.org/2000/svg" xmlns:xlink="http://www.w3.org/1999/xlink" width="71.45439" height="52.62188" viewBox="0,0,71.45439,52.62188"><g transform="translate(-204.2728,-153.68906)"><g data-paper-data="{&quot;isPaintingLayer&quot;:true}" fill-rule="nonzero" stroke-linejoin="miter" stroke-miterlimit="10" stroke-dasharray="" stroke-dashoffset="0" style="mix-blend-mode: normal"><path d="M204.27281,206.31094v-52.62188h71.45439v52.62188z" fill="#99d5ff" stroke="none" stroke-width="0" stroke-linecap="butt"/><text transform="translate(208.06041,167.24022) scale(0.29716,0.29716)" font-size="40" xml:space="preserve" fill="#6c95b3" fill-rule="nonzero" stroke="none" stroke-width="1" stroke-linecap="butt" stroke-linejoin="miter" stroke-miterlimit="10" stroke-dasharray="" stroke-dashoffset="0" font-family="Sans Serif" font-weight="normal" text-anchor="start" style="mix-blend-mode: normal"><tspan x="0" dy="0">强化I</tspan></text><g fill="#6c95b3"><path d="M228.35086,199.87655l-7.1221,0.01989l-0.03976,-14.2442l7.1221,-0.01989z" stroke="none" stroke-width="0" stroke-linecap="butt"/><path d="M225.04091,175.59688l3.0591,8.78304l-6.6567,-0.02978z" stroke="#000000" stroke-width="0" stroke-linecap="round"/><path d="M237.18419,199.87655l-7.1221,0.01989l-0.03976,-14.2442l7.1221,-0.01989z" stroke="none" stroke-width="0" stroke-linecap="butt"/><path d="M233.87425,175.59688l3.05909,8.78304l-6.65669,-0.02978z" stroke="#000000" stroke-width="0" stroke-linecap="round"/><path d="M245.68419,199.87655l-7.1221,0.01989l-0.03976,-14.2442l7.1221,-0.01989z" stroke="none" stroke-width="0" stroke-linecap="butt"/><path d="M242.37425,175.59688l3.05909,8.78304l-6.65669,-0.02978z" stroke="#000000" stroke-width="0" stroke-linecap="round"/><text transform="translate(246.75,182.28334) scale(0.5,0.5)" font-size="40" xml:space="preserve" fill="#6c95b3" fill-rule="nonzero" stroke="none" stroke-width="1" stroke-linecap="butt" stroke-linejoin="miter" stroke-miterlimit="10" stroke-dasharray="" stroke-dashoffset="0" font-family="Sans Serif" font-weight="normal" text-anchor="start" style="mix-blend-mode: normal"><tspan x="0" dy="0">+</tspan></text></g></g></g></svg>