<svg version="1.1" xmlns="http://www.w3.org/2000/svg" xmlns:xlink="http://www.w3.org/1999/xlink" width="71.45439" height="52.62188" viewBox="0,0,71.45439,52.62188"><g transform="translate(-204.2728,-153.68906)"><g data-paper-data="{&quot;isPaintingLayer&quot;:true}" fill-rule="nonzero" stroke-linejoin="miter" stroke-miterlimit="10" stroke-dasharray="" stroke-dashoffset="0" style="mix-blend-mode: normal"><path d="M204.2728,206.31094v-52.62188h71.45439v52.62188z" fill="#99d5ff" stroke="none" stroke-width="0" stroke-linecap="butt"/><text transform="translate(208.06042,167.24022) scale(0.29716,0.29716)" font-size="40" xml:space="preserve" fill="#6c95b3" fill-rule="nonzero" stroke="none" stroke-width="1" stroke-linecap="butt" stroke-linejoin="miter" stroke-miterlimit="10" stroke-dasharray="" stroke-dashoffset="0" font-family="Sans Serif" font-weight="normal" text-anchor="start" style="mix-blend-mode: normal"><tspan x="0" dy="0">强化II</tspan></text><g><path d="M236.39822,180.79703l10.7782,-7.69939l5.06347,7.08823l-10.7782,7.69939z" fill="#6c95b3" stroke="#66c0ff" stroke-width="0" stroke-linecap="butt"/><path d="M232.18133,178.19114l5.24958,-3.75003l3.96328,1.33818l-7.24084,5.17249z" fill="#6c95b3" stroke="#66c0ff" stroke-width="0" stroke-linecap="round"/><path d="M248.02807,172.47228c0,0 -0.34994,0.20048 -0.00128,-0.04859c1.98957,-1.42124 4.75457,-0.96053 6.17582,1.02904c1.42124,1.98957 0.96053,4.75457 -1.02904,6.17582c-0.31877,0.22771 -0.056,0.02496 -0.056,0.02496z" fill="#6c95b3" stroke="none" stroke-width="0" stroke-linecap="butt"/><path d="M240.74024,189.93453l7.24084,-5.17249l-0.01919,4.18306l-5.24958,3.75003z" data-paper-data="{&quot;index&quot;:null}" fill="#6c95b3" stroke="#66c0ff" stroke-width="0" stroke-linecap="round"/><path d="M233.87501,183.175l-11.5,7" fill="none" stroke="#6c95b3" stroke-width="1.5" stroke-linecap="round"/><path d="M235.87501,186.175l-17.5,11.5" fill="none" stroke="#6c95b3" stroke-width="1.5" stroke-linecap="round"/><path d="M238.62501,188.675l-11.25,8.25" fill="none" stroke="#6c95b3" stroke-width="1.5" stroke-linecap="round"/></g></g></g></svg>