<svg version="1.1" xmlns="http://www.w3.org/2000/svg" xmlns:xlink="http://www.w3.org/1999/xlink" width="72.26982" height="79.30928" viewBox="0,0,72.26982,79.30928"><defs><linearGradient x1="240.00953" y1="180.01794" x2="235.46317" y2="184.52242" gradientUnits="userSpaceOnUse" id="color-1"><stop offset="0" stop-color="#00ff19"/><stop offset="1" stop-color="#00ff19" stop-opacity="0"/></linearGradient><linearGradient x1="239.99065" y1="179.96117" x2="244.53697" y2="175.45669" gradientUnits="userSpaceOnUse" id="color-2"><stop offset="0" stop-color="#00ff19"/><stop offset="1" stop-color="#00ff19" stop-opacity="0"/></linearGradient><linearGradient x1="240.02272" y1="179.96072" x2="244.52787" y2="184.50776" gradientUnits="userSpaceOnUse" id="color-3"><stop offset="0" stop-color="#00ff19"/><stop offset="1" stop-color="#00ff19" stop-opacity="0"/></linearGradient><linearGradient x1="239.99959" y1="180.03257" x2="235.4944" y2="175.48553" gradientUnits="userSpaceOnUse" id="color-4"><stop offset="0" stop-color="#00ff19"/><stop offset="1" stop-color="#00ff19" stop-opacity="0"/></linearGradient></defs><g transform="translate(-207,-147)"><g data-paper-data="{&quot;isPaintingLayer&quot;:true}" fill-rule="nonzero" stroke-linejoin="miter" stroke-miterlimit="10" stroke-dasharray="" stroke-dashoffset="0" style="mix-blend-mode: normal"><path d="M207,213v-66h66v66z" fill="#3f3f3f" stroke="none" stroke-width="0" stroke-linecap="butt"/><text transform="translate(262.77789,218.02448) scale(0.6904,0.6904)" font-size="40" xml:space="preserve" fill="#989898" fill-rule="nonzero" stroke="#979797" stroke-width="0" stroke-linecap="butt" stroke-linejoin="miter" stroke-miterlimit="10" stroke-dasharray="" stroke-dashoffset="0" font-family="Sans Serif" font-weight="normal" text-anchor="start" style="mix-blend-mode: normal"><tspan x="0" dy="0">6</tspan></text><g><path d="M222.77083,180c0,-9.51539 7.71378,-17.22917 17.22917,-17.22917c9.51539,0 17.22917,7.71378 17.22917,17.22917c0,9.51539 -7.71378,17.22917 -17.22917,17.22917c-9.51539,0 -17.22917,-7.71378 -17.22917,-17.22917z" fill="#808080" stroke="#343434" stroke-width="1.5" stroke-linecap="butt"/><path d="M251.70287,191.70288l-23.40577,-23.40577" fill="none" stroke="#343434" stroke-width="1.5" stroke-linecap="round"/><path d="M251.7029,168.29711l-23.40577,23.40577" data-paper-data="{&quot;index&quot;:null}" fill="none" stroke="#343434" stroke-width="1.5" stroke-linecap="round"/><path d="M230.63938,180c0,-5.16973 4.19089,-9.36062 9.36062,-9.36062c5.16973,0 9.36062,4.19089 9.36062,9.36062c0,5.16973 -4.19089,9.36062 -9.36062,9.36062c-5.16973,0 -9.36062,-4.19089 -9.36062,-9.36062z" fill="#989898" stroke="#343434" stroke-width="1.5" stroke-linecap="butt"/><g stroke="none" stroke-width="0" stroke-linecap="butt"><path d="M230.99023,179.96573l9.02974,0.06275l-0.06275,9.02974z" fill="url(#color-1)"/><path d="M249.03102,179.99248l-9.02993,-0.02078l0.02078,-9.02993z" data-paper-data="{&quot;index&quot;:null}" fill="url(#color-2)"/><path d="M239.99209,189.00179l0.0194,-9.02993l9.02993,0.0194z" data-paper-data="{&quot;index&quot;:null}" fill="url(#color-3)"/><path d="M240.05245,171.01398l-0.06414,9.0297l-9.02974,-0.06414z" data-paper-data="{&quot;index&quot;:null}" fill="url(#color-4)"/></g><path d="M235.87936,179.99064l4.13,-4.11129l4.11129,4.13001l-4.13001,4.11129z" fill-opacity="0.50196" fill="#00ff1a" stroke-opacity="0.50196" stroke="#00ff15" stroke-width="0" stroke-linecap="butt"/></g></g></g></svg>