<svg version="1.1" xmlns="http://www.w3.org/2000/svg" xmlns:xlink="http://www.w3.org/1999/xlink" width="73.37446" height="79.30928" viewBox="0,0,73.37446,79.30928"><defs><linearGradient x1="240" y1="180" x2="237.7841" y2="177.75028" gradientUnits="userSpaceOnUse" id="color-1"><stop offset="0" stop-color="#8000ff" stop-opacity="0.34902"/><stop offset="1" stop-color="#8000ff" stop-opacity="0"/></linearGradient><linearGradient x1="240" y1="180" x2="242.21589" y2="182.24973" gradientUnits="userSpaceOnUse" id="color-2"><stop offset="0" stop-color="#8000ff" stop-opacity="0.34902"/><stop offset="1" stop-color="#8000ff" stop-opacity="0"/></linearGradient><linearGradient x1="240" y1="180" x2="237.73849" y2="182.2039" gradientUnits="userSpaceOnUse" id="color-3"><stop offset="0" stop-color="#8000ff" stop-opacity="0.34902"/><stop offset="1" stop-color="#8000ff" stop-opacity="0"/></linearGradient><linearGradient x1="240" y1="180" x2="242.2615" y2="177.79611" gradientUnits="userSpaceOnUse" id="color-4"><stop offset="0" stop-color="#8000ff" stop-opacity="0.34902"/><stop offset="1" stop-color="#8000ff" stop-opacity="0"/></linearGradient><radialGradient cx="240" cy="180" r="7.6532" gradientUnits="userSpaceOnUse" id="color-5"><stop offset="0" stop-color="#8000ff" stop-opacity="0.50196"/><stop offset="1" stop-color="#8000ff" stop-opacity="0"/></radialGradient></defs><g transform="translate(-207,-147)"><g data-paper-data="{&quot;isPaintingLayer&quot;:true}" fill-rule="nonzero" stroke-linecap="butt" stroke-linejoin="miter" stroke-miterlimit="10" stroke-dasharray="" stroke-dashoffset="0" style="mix-blend-mode: normal"><path d="M207,213v-66h66v66z" fill="#3f3f3f" stroke="none" stroke-width="0"/><text transform="translate(262.77789,218.02448) scale(0.6904,0.6904)" font-size="40" xml:space="preserve" fill="#989898" fill-rule="nonzero" stroke="#979797" stroke-width="0" stroke-linecap="butt" stroke-linejoin="miter" stroke-miterlimit="10" stroke-dasharray="" stroke-dashoffset="0" font-family="Sans Serif" font-weight="normal" text-anchor="start" style="mix-blend-mode: normal"><tspan x="0" dy="0">P</tspan></text><g><path d="M219.98512,180c0,-11.05389 8.96099,-20.01488 20.01488,-20.01488c11.05389,0 20.01488,8.96098 20.01488,20.01488c0,11.0539 -8.96098,20.01488 -20.01488,20.01488c-11.05389,0 -20.01488,-8.96098 -20.01488,-20.01488z" fill="#676767" stroke="#323232" stroke-width="1.5"/><path d="M223.42859,180c0,-9.15211 7.41929,-16.5714 16.5714,-16.5714c9.15211,0 16.5714,7.41929 16.5714,16.5714c0,9.15212 -7.41929,16.5714 -16.5714,16.5714c-9.15211,0 -16.5714,-7.41929 -16.5714,-16.5714z" fill="#818181" stroke="#323232" stroke-width="1.5"/><g stroke="none" stroke-width="0"><path d="M249.14833,166.49952l2.21589,2.24972l-22.72843,22.50153l-2.21589,-2.24972z" fill="url(#color-1)"/><path d="M229.3744,192.00069l-1.47726,-1.49981l22.72845,-22.50153l1.47725,1.49981z" data-paper-data="{&quot;index&quot;:null}" fill-opacity="0.50196" fill="#8000ff"/><path d="M230.85166,193.50049l-2.21589,-2.24972l22.72843,-22.50153l2.21589,2.24972z" data-paper-data="{&quot;index&quot;:null}" fill="url(#color-2)"/></g><g stroke="none" stroke-width="0"><path d="M226.72719,170.90479l2.2615,-2.2039l22.02262,22.5982l-2.2615,2.2039z" fill="url(#color-3)"/><path d="M251.76514,190.56448l-1.50767,1.46925l-22.02263,-22.59821l1.50767,-1.46926z" data-paper-data="{&quot;index&quot;:null}" fill-opacity="0.50196" fill="#8000ff"/><path d="M253.2728,189.09521l-2.2615,2.20389l-22.02262,-22.5982l2.2615,-2.20389z" data-paper-data="{&quot;index&quot;:null}" fill="url(#color-4)"/></g><path d="M232.79146,180c0,-3.98115 3.22738,-7.20853 7.20854,-7.20853c3.98115,0 7.20853,3.22737 7.20853,7.20853c0,3.98115 -3.22737,7.20854 -7.20853,7.20854c-3.98115,0 -7.20854,-3.22738 -7.20854,-7.20854z" fill="#656565" stroke="#343434" stroke-width="1.5"/><path d="M232.34679,180c0,-4.22675 3.42646,-7.65321 7.65321,-7.65321c4.22675,0 7.6532,3.42646 7.6532,7.65321c0,4.22675 -3.42646,7.65322 -7.6532,7.65322c-4.22675,0 -7.6532,-3.42647 -7.6532,-7.65322z" fill="url(#color-5)" stroke="none" stroke-width="0"/><path d="M237.35098,180c0,-1.46301 1.18601,-2.64901 2.64902,-2.64901c1.46301,0 2.64901,1.186 2.64901,2.64901c0,1.46302 -1.186,2.64901 -2.64901,2.64901c-1.46301,0 -2.64902,-1.18601 -2.64902,-2.64901z" fill="#8000ff" stroke="none" stroke-width="0"/></g></g></g></svg>