<svg version="1.1" xmlns="http://www.w3.org/2000/svg" xmlns:xlink="http://www.w3.org/1999/xlink" width="71.45439" height="52.62188" viewBox="0,0,71.45439,52.62188"><g transform="translate(-204.27281,-153.68906)"><g data-paper-data="{&quot;isPaintingLayer&quot;:true}" fill-rule="nonzero" stroke-linejoin="miter" stroke-miterlimit="10" stroke-dasharray="" stroke-dashoffset="0" style="mix-blend-mode: normal"><path d="M204.27281,206.31094v-52.62188h71.45439v52.62188z" fill="#299bcc" stroke="none" stroke-width="0" stroke-linecap="butt"/><text transform="translate(208.06036,167.24022) scale(0.29716,0.29716)" font-size="40" xml:space="preserve" fill="#1a6380" fill-rule="nonzero" stroke="none" stroke-width="1" stroke-linecap="butt" stroke-linejoin="miter" stroke-miterlimit="10" stroke-dasharray="" stroke-dashoffset="0" font-family="Sans Serif" font-weight="normal" text-anchor="start" style="mix-blend-mode: normal"><tspan x="0" dy="0">强化II</tspan></text><path d="M233.61897,189.66537c0,0 0.93192,4.66678 -3.97227,8.14473c-3.05614,2.05908 -7.75438,1.36428 -10.28538,-2.42948c-2.65635,-3.98165 -2.07228,-8.74695 1.4288,-11.20456c5.26491,-3.97222 8.56325,-0.38239 8.56325,-0.38239l22.62194,-14.78181c0,0 3.96713,-2.78675 5.92149,0.28537c2.16946,3.41025 -1.83932,5.70725 -1.83932,5.70725l-22.43852,14.66089z" fill="none" stroke="#1a6380" stroke-width="2" stroke-linecap="round"/><path d="M222.62706,186.07723c2.48449,-1.61651 5.809,-0.91287 7.4255,1.57162c1.61651,2.48449 0.91286,5.80899 -1.57162,7.4255c-2.48449,1.61651 -5.80899,0.91287 -7.42549,-1.57162c-1.61651,-2.48449 -0.91287,-5.80899 1.57161,-7.4255z" fill="#1a6380" stroke="none" stroke-width="0" stroke-linecap="butt"/><path d="M226.39356,187.89522l8.99712,-5.85388l2.05399,3.15689l-8.99712,5.85388z" fill="#1a6380" stroke="none" stroke-width="0" stroke-linecap="butt"/><path d="M238.64286,178.50476l1.28571,2" fill="none" stroke="#1a6380" stroke-width="2" stroke-linecap="round"/><path d="M244.64286,174.07619l1.71429,2.57143" fill="none" stroke="#1a6380" stroke-width="2" stroke-linecap="round"/><path d="M230.125,174.425l4,0.25l4.5,-4.25h4.5l2.75,-4" fill="none" stroke="#1a6380" stroke-width="2" stroke-linecap="round"/><path d="M255.625,180.425l-4,2.25l-1.25,4.5l-6.5,1.5l-2.25,3.5" fill="none" stroke="#1a6380" stroke-width="2" stroke-linecap="round"/></g></g></svg>