<svg version="1.1" xmlns="http://www.w3.org/2000/svg" xmlns:xlink="http://www.w3.org/1999/xlink" width="71.45439" height="52.62188" viewBox="0,0,71.45439,52.62188"><g transform="translate(-204.2728,-153.68906)"><g data-paper-data="{&quot;isPaintingLayer&quot;:true}" fill-rule="nonzero" stroke-linecap="butt" stroke-linejoin="miter" stroke-miterlimit="10" stroke-dasharray="" stroke-dashoffset="0" style="mix-blend-mode: normal"><path d="M204.2728,206.31094v-52.62188h71.45439v52.62188z" fill="#cd2a2a" stroke="none" stroke-width="0"/><text transform="translate(208.0604,167.24022) scale(0.29716,0.29716)" font-size="40" xml:space="preserve" fill="#7f1919" fill-rule="nonzero" stroke="none" stroke-width="1" stroke-linecap="butt" stroke-linejoin="miter" stroke-miterlimit="10" stroke-dasharray="" stroke-dashoffset="0" font-family="Sans Serif" font-weight="normal" text-anchor="start" style="mix-blend-mode: normal"><tspan x="0" dy="0">强化II</tspan></text><path d="M227.45,187.68781c0,-6.53658 5.29895,-11.83552 11.83552,-11.83552c6.53658,0 11.83552,5.29894 11.83552,11.83552c0,6.53658 -5.29894,11.83552 -11.83552,11.83552c-6.53658,0 -11.83552,-5.29894 -11.83552,-11.83552z" fill="none" stroke="#7f1919" stroke-width="2.5"/><path d="M231.00407,187.57557c0,-4.6019 3.73058,-8.33248 8.33248,-8.33248c4.6019,0 8.33248,3.73058 8.33248,8.33248c0,4.6019 -3.73058,8.33248 -8.33248,8.33248c-4.6019,0 -8.33248,-3.73058 -8.33248,-8.33248z" fill="#7f1919" stroke="none" stroke-width="0"/><path d="M243.10235,176.61035l4.32584,-6.7205l5.14763,3.31342l-4.32584,6.7205z" fill="#7f1919" stroke="none" stroke-width="0"/></g></g></svg>