<svg version="1.1" xmlns="http://www.w3.org/2000/svg" xmlns:xlink="http://www.w3.org/1999/xlink" width="71.45439" height="52.62188" viewBox="0,0,71.45439,52.62188"><g transform="translate(-204.2728,-153.68906)"><g data-paper-data="{&quot;isPaintingLayer&quot;:true}" fill-rule="nonzero" stroke-linejoin="miter" stroke-miterlimit="10" stroke-dasharray="" stroke-dashoffset="0" style="mix-blend-mode: normal"><path d="M204.2728,206.31094v-52.62188h71.45439v52.62188z" fill="#cd2a2a" stroke="none" stroke-width="0" stroke-linecap="butt"/><text transform="translate(208.06039,167.24022) scale(0.29716,0.29716)" font-size="40" xml:space="preserve" fill="#7f1919" fill-rule="nonzero" stroke="none" stroke-width="1" stroke-linecap="butt" stroke-linejoin="miter" stroke-miterlimit="10" stroke-dasharray="" stroke-dashoffset="0" font-family="Sans Serif" font-weight="normal" text-anchor="start" style="mix-blend-mode: normal"><tspan x="0" dy="0">强化III</tspan></text><g fill="none" stroke="#7f1919" stroke-width="2" stroke-linecap="round"><path d="M250.7,202.14l-3.8,-4l-0.8,-8.4l-7,-3.8l5.8,-7l8.6,-2.4l2.6,-5"/><path d="M228.35714,196.56857l-2.85714,-5.82857l5.6,-6.2l8,1.4"/><path d="M236.44286,185.16857l2,-3.6l2.8,0.6"/><path d="M230.7,184.54l-3.4,-5.6l2.8,-5.2"/><path d="M245.5,190.54l-5.8,3"/><path d="M255.1,184.14l-5,-0.4l-5.8,-4.4l-1,-6l2.6,-4.8"/><path d="M237.9,174.14l5.2,-0.6"/><path d="M235.47143,176.71143l2.8,4.6"/><path d="M231.04286,184.96857l4,5.4v5.2"/><path d="M246.7,190.34l4,-2.2l3.6,4.2"/><path d="M227.24286,179.42571l-3.2,2.2"/></g></g></g></svg>