<svg version="1.1" xmlns="http://www.w3.org/2000/svg" xmlns:xlink="http://www.w3.org/1999/xlink" width="71.45439" height="52.62188" viewBox="0,0,71.45439,52.62188"><g transform="translate(-204.27295,-153.68906)"><g data-paper-data="{&quot;isPaintingLayer&quot;:true}" fill-rule="nonzero" stroke-linejoin="miter" stroke-miterlimit="10" stroke-dasharray="" stroke-dashoffset="0" style="mix-blend-mode: normal"><path d="M204.27296,206.31094v-52.62188h71.45439v52.62188z" fill="#cd2a2a" stroke="none" stroke-width="0" stroke-linecap="butt"/><text transform="translate(208.06039,167.24022) scale(0.29716,0.29716)" font-size="40" xml:space="preserve" fill="#7f1919" fill-rule="nonzero" stroke="none" stroke-width="1" stroke-linecap="butt" stroke-linejoin="miter" stroke-miterlimit="10" stroke-dasharray="" stroke-dashoffset="0" font-family="Sans Serif" font-weight="normal" text-anchor="start" style="mix-blend-mode: normal"><tspan x="0" dy="0">强化III</tspan></text><path d="M252.25526,195.99929c-1.64825,4.20244 -5.68967,7.21499 -5.68967,7.21499l-12.63834,0c0,0 -5.08439,-2.81611 -5.08439,-6.3918c0,-3.57569 2.93813,-3.79001 2.90537,-7.26341c-0.03277,-3.47341 -2.914,-3.46684 -2.17902,-6.68234c0.73497,-3.2155 5.22966,-8.28029 5.22966,-8.28029c0,0 -1.01688,4.41451 -1.01688,7.98976c0,3.57525 2.14542,3.00391 2.46956,6.10127c0.32414,3.09736 -0.14527,4.64859 -0.14527,4.64859c0,0 3.37047,-3.38264 4.16436,-6.22232c0.79389,-2.83969 -1.75422,-4.38841 -0.96846,-7.28763c0.78577,-2.89921 6.3918,-10.02351 6.3918,-10.02351c0,0 -2.40679,6.33529 -2.46956,9.44244c-0.06277,3.10715 1.97459,4.76203 1.23478,8.88558c-0.6631,3.696 -1.42847,6.00442 -1.42847,6.00442c0,0 4.69729,-1.6428 5.30229,-3.94646c0.605,-2.30365 -2.10006,-5.71908 -1.13793,-9.7814c0.96213,-4.06232 4.8907,-6.60971 4.8907,-6.60971c0,0 -2.40428,5.83943 -2.1503,9.71378c0.22292,3.40056 4.67918,6.47246 2.31978,12.48805z" fill="#7f1919" stroke="#7f1919" stroke-width="0" stroke-linecap="round"/><path d="M263.48558,192.71785c-1.09574,2.79373 -3.78243,4.79644 -3.78243,4.79644h-8.40182c0,0 -3.38004,-1.87212 -3.38004,-4.2492c0,-2.37708 1.95324,-2.51955 1.93146,-4.82863c-0.02179,-2.30908 -1.93719,-2.30471 -1.44859,-4.44234c0.4886,-2.13763 3.47661,-5.50464 3.47661,-5.50464c0,0 -0.67601,2.93471 -0.67601,5.31149c0,2.37678 1.42625,1.99696 1.64173,4.05605c0.21548,2.05909 -0.09657,3.09032 -0.09657,3.09032c0,0 2.24065,-2.24874 2.76842,-4.13653c0.52777,-1.88779 -1.16618,-2.91737 -0.64382,-4.84473c0.52237,-1.92736 4.2492,-6.66351 4.2492,-6.66351c0,0 -1.60001,4.21163 -1.64173,6.27722c-0.04173,2.06559 1.31268,3.16574 0.82087,5.90702c-0.44082,2.45706 -0.94963,3.99167 -0.94963,3.99167c0,0 3.12271,-1.09211 3.5249,-2.62356c0.4022,-1.53144 -1.3961,-3.80197 -0.75649,-6.50256c0.63961,-2.70058 3.25128,-4.39406 3.25128,-4.39406c0,0 -1.59834,3.88198 -1.42949,6.45761c0.14819,2.26065 3.11066,4.30281 1.54216,8.30191z" fill="#7f1919" stroke="#7f1919" stroke-width="0" stroke-linecap="round"/><path d="M229.68558,194.56785c-1.09573,2.79373 -3.78243,4.79644 -3.78243,4.79644h-8.40182c0,0 -3.38004,-1.87212 -3.38004,-4.2492c0,-2.37708 1.95324,-2.51955 1.93145,-4.82863c-0.02178,-2.30908 -1.93719,-2.30471 -1.44859,-4.44234c0.4886,-2.13763 3.47661,-5.50464 3.47661,-5.50464c0,0 -0.67601,2.93471 -0.67601,5.31149c0,2.37678 1.42625,1.99696 1.64173,4.05605c0.21549,2.05909 -0.09658,3.09032 -0.09658,3.09032c0,0 2.24065,-2.24874 2.76842,-4.13653c0.52777,-1.88779 -1.16618,-2.91736 -0.64382,-4.84472c0.52237,-1.92736 4.24919,-6.66351 4.24919,-6.66351c0,0 -1.6,4.21162 -1.64173,6.27722c-0.04173,2.0656 1.31268,3.16574 0.82087,5.90702c-0.44082,2.45706 -0.94964,3.99167 -0.94964,3.99167c0,0 3.12271,-1.09211 3.5249,-2.62355c0.4022,-1.53144 -1.3961,-3.80198 -0.75648,-6.50256c0.63962,-2.70058 3.25127,-4.39405 3.25127,-4.39405c0,0 -1.59833,3.88198 -1.42949,6.45761c0.14819,2.26065 3.11066,4.30281 1.54216,8.30191z" fill="#7f1919" stroke="#7f1919" stroke-width="0" stroke-linecap="round"/></g></g></svg>