<svg version="1.1" xmlns="http://www.w3.org/2000/svg" xmlns:xlink="http://www.w3.org/1999/xlink" width="71.45439" height="52.65447" viewBox="0,0,71.45439,52.65447"><g transform="translate(-204.2728,-153.68906)"><g data-paper-data="{&quot;isPaintingLayer&quot;:true}" fill-rule="nonzero" stroke-linejoin="miter" stroke-miterlimit="10" stroke-dasharray="" stroke-dashoffset="0" style="mix-blend-mode: normal"><path d="M204.2728,206.31094v-52.62188h71.45439v52.62188z" fill="#299bcc" stroke="none" stroke-width="0" stroke-linecap="butt"/><text transform="translate(208.06034,167.24022) scale(0.29716,0.29716)" font-size="40" xml:space="preserve" fill="#1a6380" fill-rule="nonzero" stroke="none" stroke-width="1" stroke-linecap="butt" stroke-linejoin="miter" stroke-miterlimit="10" stroke-dasharray="" stroke-dashoffset="0" font-family="Sans Serif" font-weight="normal" text-anchor="start" style="mix-blend-mode: normal"><tspan x="0" dy="0">强化I</tspan></text><path d="M227.33229,189.51248l-1.37672,-2.38058l49.68985,-28.7363l0.05154,3.08911z" fill="#1a6380" stroke="none" stroke-width="0" stroke-linecap="butt"/><path d="M218.78037,206.34353l-0.3248,-0.46162l57.26373,-33.05855l-0.01686,3.07084l-52.52352,30.43288z" fill="#1a6380" stroke="none" stroke-width="0" stroke-linecap="butt"/><path d="M205.41432,206.11259l32.75341,-18.77507l1.37672,2.38057l-28.63185,16.55818z" fill="#1a6380" stroke="none" stroke-width="0" stroke-linecap="butt"/><path d="M241.90842,190.86548l-3.71714,-6.07516l12.15032,-7.43427l3.71714,6.07516z" fill="#1a6380" stroke="none" stroke-width="0" stroke-linecap="butt"/><path d="M260.62501,174.925l-5.5,7.5l-3.75,-5.5z" fill="#1a6380" stroke="#000000" stroke-width="0" stroke-linecap="round"/><g fill="#1a6380" stroke-width="0"><path d="M206.24175,202.94882l-1.90472,-3.3854l-0.02622,-3.6807l10.36411,-6.44335l3.71714,6.07516z" stroke="none" stroke-linecap="butt"/><path d="M224.95834,187.00834l-5.5,7.5l-3.75,-5.5z" stroke="#000000" stroke-linecap="round"/></g><g fill="#1a6380" stroke-width="0"><path d="M204.31155,184.82298l5.53005,-3.3836l3.71714,6.07516l-9.17464,5.71556z" stroke="none" stroke-linecap="butt"/><path d="M220.12501,179.00833l-5.5,7.5l-3.75,-5.5z" stroke="#000000" stroke-linecap="round"/></g><g fill="#1a6380" stroke-width="0"><path d="M204.32003,174.39777l0.85491,-0.62506l3.71714,6.07516l-4.46184,2.73002z" stroke="none" stroke-linecap="butt"/><path d="M215.45834,171.34167l-5.5,7.5l-3.75,-5.5z" stroke="#000000" stroke-linecap="round"/></g></g></g></svg>