<svg version="1.1" xmlns="http://www.w3.org/2000/svg" xmlns:xlink="http://www.w3.org/1999/xlink" width="493.5" height="374" viewBox="0,0,493.5,374"><g transform="translate(5.25,7.02479)"><g data-paper-data="{&quot;isPaintingLayer&quot;:true}" fill-rule="nonzero" stroke-linejoin="miter" stroke-miterlimit="10" stroke-dasharray="" stroke-dashoffset="0" style="mix-blend-mode: normal"><path d="M-5.25,366.0502v-76h487v76z" fill="#4d4d4d" stroke="#969696" stroke-width="0" stroke-linecap="butt"/><path d="M389.25,366.97522v-374h99v374z" fill="#3f3f3f" stroke="none" stroke-width="0" stroke-linecap="butt"/><path d="M397.58789,33.17515v-24.66666h73.74545v24.66666z" fill="#333333" stroke="none" stroke-width="0" stroke-linecap="butt"/><g fill="#7f7f7f" stroke="#000000" stroke-width="0" stroke-linecap="round"><path d="M406.58245,14.25405l4.62955,2.7488l-3.32749,3.61684z"/><path d="M407.8162,22.99071l1.52711,3.05422l-5.49759,1.3744l-0.45813,-5.49759z"/><path d="M410.15205,21.36369l3.72018,-2.48012l3.89732,3.54302l-1.94866,5.13738l-4.25163,-1.77151z"/></g><g><path d="M404.33334,316.70609l61.66667,0.27141" fill="none" stroke="#333333" stroke-width="7.5" stroke-linecap="round"/><text transform="translate(401.41667,306.1314) scale(0.33334,0.33334)" font-size="40" xml:space="preserve" fill="#727272" fill-rule="nonzero" stroke="#727272" stroke-width="1" stroke-linecap="butt" stroke-linejoin="miter" stroke-miterlimit="10" stroke-dasharray="" stroke-dashoffset="0" font-family="Sans Serif" font-weight="normal" text-anchor="start" style="mix-blend-mode: normal"><tspan x="0" dy="0">线路1</tspan></text></g><g><path d="M466.00001,345.97758l-61.66667,-0.27141" fill="none" stroke="#333333" stroke-width="7.5" stroke-linecap="round"/><text transform="translate(401.41667,335.1314) scale(0.33334,0.33334)" font-size="40" xml:space="preserve" fill="#747474" fill-rule="nonzero" stroke="#727272" stroke-width="1" stroke-linecap="butt" stroke-linejoin="miter" stroke-miterlimit="10" stroke-dasharray="" stroke-dashoffset="0" font-family="Sans Serif" font-weight="normal" text-anchor="start" style="mix-blend-mode: normal"><tspan x="0" dy="0">线路2</tspan></text></g></g></g></svg>