<svg version="1.1" xmlns="http://www.w3.org/2000/svg" xmlns:xlink="http://www.w3.org/1999/xlink" width="81.875" height="81.875" viewBox="0,0,81.875,81.875"><defs><radialGradient cx="240" cy="180" r="9.96653" gradientUnits="userSpaceOnUse" id="color-1"><stop offset="0" stop-color="#006aff"/><stop offset="1" stop-color="#006aff" stop-opacity="0"/></radialGradient><radialGradient cx="240" cy="180" r="9.96653" gradientUnits="userSpaceOnUse" id="color-2"><stop offset="0" stop-color="#000000" stop-opacity="0"/><stop offset="1" stop-color="#000000" stop-opacity="0"/></radialGradient></defs><g transform="translate(-199.0625,-139.0625)"><g data-paper-data="{&quot;isPaintingLayer&quot;:true}" fill-rule="nonzero" stroke-linecap="butt" stroke-linejoin="miter" stroke-miterlimit="10" stroke-dasharray="" stroke-dashoffset="0" style="mix-blend-mode: normal"><path d="M230.03347,180c0,-5.50437 4.46216,-9.96653 9.96653,-9.96653c5.50437,0 9.96653,4.46216 9.96653,9.96653c0,5.50437 -4.46218,9.96653 -9.96653,9.96653c-5.50437,0 -9.96653,-4.46216 -9.96653,-9.96653z" fill="url(#color-1)" stroke="url(#color-2)" stroke-width="0"/><path d="M233.35673,180c0,-3.66897 2.9743,-6.64327 6.64327,-6.64327c3.66897,0 6.64327,2.9743 6.64327,6.64327c0,3.66897 -2.9743,6.64327 -6.64327,6.64327c-3.66897,0 -6.64327,-2.9743 -6.64327,-6.64327z" fill="#7f7f7f" stroke-opacity="0.50196" stroke="#006aff" stroke-width="2"/><path d="M237.46425,180c0,-1.40045 1.13529,-2.53575 2.53575,-2.53575c1.40045,0 2.53575,1.13529 2.53575,2.53575c0,1.40045 -1.13529,2.53575 -2.53575,2.53575c-1.40045,0 -2.53575,-1.13529 -2.53575,-2.53575z" fill="#9a9a9a" stroke="#343434" stroke-width="1"/><path d="M199.0625,220.9375v-81.875h81.875v81.875z" fill="none" stroke="none" stroke-width="0"/></g></g></svg>