<svg version="1.1" xmlns="http://www.w3.org/2000/svg" xmlns:xlink="http://www.w3.org/1999/xlink" width="81.875" height="81.875" viewBox="0,0,81.875,81.875"><g transform="translate(-199.0625,-139.0625)"><g data-paper-data="{&quot;isPaintingLayer&quot;:true}" fill-rule="nonzero" stroke-linecap="butt" stroke-linejoin="miter" stroke-miterlimit="10" stroke-dasharray="" stroke-dashoffset="0" style="mix-blend-mode: normal"><path d="M233.77083,180c0,-3.44027 2.7889,-6.22917 6.22917,-6.22917c3.44027,0 6.22917,2.7889 6.22917,6.22917c0,3.44027 -2.7889,6.22917 -6.22917,6.22917c-3.44027,0 -6.22917,-2.7889 -6.22917,-6.22917z" fill="#999999" stroke="#343434" stroke-width="1"/><path d="M235.92569,180c0,-2.25018 1.82413,-4.07431 4.07431,-4.07431c2.25018,0 4.07431,1.82413 4.07431,4.07431c0,2.25018 -1.82413,4.07431 -4.07431,4.07431c-2.25018,0 -4.07431,-1.82413 -4.07431,-4.07431z" fill="#999999" stroke="#323232" stroke-width="1"/><path d="M199.0625,220.9375v-81.875h81.875v81.875z" fill="none" stroke="none" stroke-width="0"/></g></g></svg>