<svg version="1.1" xmlns="http://www.w3.org/2000/svg" xmlns:xlink="http://www.w3.org/1999/xlink" width="81.875" height="81.875" viewBox="0,0,81.875,81.875"><defs><radialGradient cx="240" cy="180" r="10.09847" gradientUnits="userSpaceOnUse" id="color-1"><stop offset="0" stop-color="#ffea00"/><stop offset="1" stop-color="#ffea00" stop-opacity="0"/></radialGradient><radialGradient cx="240" cy="180" r="10.09847" gradientUnits="userSpaceOnUse" id="color-2"><stop offset="0" stop-color="#000000" stop-opacity="0"/><stop offset="1" stop-color="#000000" stop-opacity="0"/></radialGradient></defs><g transform="translate(-199.0625,-139.0625)"><g data-paper-data="{&quot;isPaintingLayer&quot;:true}" fill-rule="nonzero" stroke-linejoin="miter" stroke-miterlimit="10" stroke-dasharray="" stroke-dashoffset="0" style="mix-blend-mode: normal"><path d="M220.98512,180c0,-10.50161 8.51327,-19.01488 19.01488,-19.01488c10.50161,0 19.01488,8.51327 19.01488,19.01488c0,10.50161 -8.51327,19.01488 -19.01488,19.01488c-10.50161,0 -19.01488,-8.51327 -19.01488,-19.01488z" fill="#656565" stroke="#343434" stroke-width="1.5" stroke-linecap="butt"/><path d="M227.30485,167.30485l25.39029,25.39029" fill="none" stroke="#343434" stroke-width="1.5" stroke-linecap="round"/><path d="M252.69515,167.30485l-25.39029,25.39029" data-paper-data="{&quot;index&quot;:null}" fill="none" stroke="#343434" stroke-width="1.5" stroke-linecap="round"/><path d="M226.05758,180c0,-7.70018 6.24224,-13.94242 13.94242,-13.94242c7.70018,0 13.94242,6.24224 13.94242,13.94242c0,7.70018 -6.24224,13.94242 -13.94242,13.94242c-7.70018,0 -13.94242,-6.24224 -13.94242,-13.94242z" fill="#7e7e7e" stroke="#343434" stroke-width="1" stroke-linecap="butt"/><path d="M240,166.59524v26.80953" fill="none" stroke="#343434" stroke-width="1.5" stroke-linecap="round"/><path d="M226.33334,180h27.33333" fill="none" stroke="#343434" stroke-width="1.5" stroke-linecap="round"/><path d="M245.32143,189.59286l2.5,-3l3.83333,1.16667" fill="none" stroke="#323232" stroke-width="1" stroke-linecap="round"/><path d="M231.91667,190.61667l3,-2.66667l-0.83333,-4.16666l4.5,-3.16667" fill="none" stroke="#323232" stroke-width="1" stroke-linecap="round"/><path d="M225.55758,180c0,-7.97632 6.4661,-14.44242 14.44242,-14.44242c7.97632,0 14.44242,6.4661 14.44242,14.44242c0,7.97632 -6.4661,14.44242 -14.44242,14.44242c-7.97632,0 -14.44242,-6.4661 -14.44242,-14.44242z" fill="none" stroke-opacity="0.50196" stroke="#ffe900" stroke-width="2" stroke-linecap="butt"/><path d="M231.41666,172.95l-4.66666,-0.33333l-2.5,-3.16667" fill="none" stroke="#323232" stroke-width="1" stroke-linecap="round"/><path d="M247.65,175.85l3,-2.83333l6.5,-1" fill="none" stroke="#323232" stroke-width="1" stroke-linecap="round"/><path d="M229.90153,180c0,-5.57723 4.52123,-10.09845 10.09847,-10.09845c5.57723,0 10.09847,4.52123 10.09847,10.09845c0,5.57723 -4.52126,10.09845 -10.09847,10.09845c-5.57723,0 -10.09847,-4.52123 -10.09847,-10.09845z" fill="url(#color-1)" stroke="url(#color-2)" stroke-width="0" stroke-linecap="butt"/><path d="M234.77187,180c0,-2.88741 2.34072,-5.22813 5.22813,-5.22813c2.88741,0 5.22813,2.34072 5.22813,5.22813c0,2.88741 -2.34072,5.22813 -5.22813,5.22813c-2.88741,0 -5.22813,-2.34072 -5.22813,-5.22813z" fill="#7e7e7e" stroke="#343434" stroke-width="1" stroke-linecap="butt"/><path d="M234.33138,180c0,-3.13069 2.53793,-5.66862 5.66862,-5.66862c3.13069,0 5.66862,2.53793 5.66862,5.66862c0,3.13069 -2.53793,5.66862 -5.66862,5.66862c-3.13069,0 -5.66862,-2.53793 -5.66862,-5.66862z" fill="none" stroke-opacity="0.50196" stroke="#ffe900" stroke-width="2" stroke-linecap="butt"/><path d="M199.0625,220.9375v-81.875h81.875v81.875z" fill="none" stroke="none" stroke-width="0" stroke-linecap="butt"/></g></g></svg>