<svg version="1.1" xmlns="http://www.w3.org/2000/svg" xmlns:xlink="http://www.w3.org/1999/xlink" width="81.875" height="81.875" viewBox="0,0,81.875,81.875"><g transform="translate(-199.0625,-139.0625)"><g data-paper-data="{&quot;isPaintingLayer&quot;:true}" fill-rule="nonzero" stroke-linecap="butt" stroke-linejoin="miter" stroke-miterlimit="10" stroke-dasharray="" stroke-dashoffset="0" style="mix-blend-mode: normal"><path d="M232.64583,180c0,-4.06159 3.29258,-7.35417 7.35417,-7.35417c4.06159,0 7.35417,3.29258 7.35417,7.35417c0,4.06159 -3.29258,7.35417 -7.35417,7.35417c-4.06159,0 -7.35417,-3.29258 -7.35417,-7.35417z" fill="#808080" stroke="#343434" stroke-width="1"/><path d="M235.18986,180c0,-2.65657 2.15357,-4.81014 4.81014,-4.81014c2.65657,0 4.81014,2.15357 4.81014,4.81014c0,2.65657 -2.15357,4.81014 -4.81014,4.81014c-2.65657,0 -4.81014,-2.15357 -4.81014,-4.81014z" fill="#808080" stroke="#343434" stroke-width="1"/><path d="M199.0625,220.9375v-81.875h81.875v81.875z" fill="none" stroke="none" stroke-width="0"/></g></g></svg>