<svg version="1.1" xmlns="http://www.w3.org/2000/svg" xmlns:xlink="http://www.w3.org/1999/xlink" width="81.875" height="81.875" viewBox="0,0,81.875,81.875"><g transform="translate(-199.0625,-139.0625)"><g data-paper-data="{&quot;isPaintingLayer&quot;:true}" fill-rule="nonzero" stroke-linecap="butt" stroke-linejoin="miter" stroke-miterlimit="10" stroke-dasharray="" stroke-dashoffset="0" style="mix-blend-mode: normal"><path d="M231.77083,180c0,-4.54484 3.68433,-8.22917 8.22917,-8.22917c4.54484,0 8.22917,3.68433 8.22917,8.22917c0,4.54484 -3.68433,8.22917 -8.22917,8.22917c-4.54484,0 -8.22917,-3.68433 -8.22917,-8.22917z" fill="#656565" stroke="#343434" stroke-width="1"/><path d="M234.61755,180c0,-2.97265 2.4098,-5.38245 5.38245,-5.38245c2.97265,0 5.38245,2.4098 5.38245,5.38245c0,2.97265 -2.4098,5.38245 -5.38245,5.38245c-2.97265,0 -5.38245,-2.4098 -5.38245,-5.38245z" fill="#656565" stroke="#323232" stroke-width="1"/><path d="M199.0625,220.9375v-81.875h81.875v81.875z" fill="none" stroke="none" stroke-width="0"/></g></g></svg>