<svg version="1.1" xmlns="http://www.w3.org/2000/svg" xmlns:xlink="http://www.w3.org/1999/xlink" width="81.875" height="81.875" viewBox="0,0,81.875,81.875"><defs><radialGradient cx="240" cy="180" r="7.14283" gradientUnits="userSpaceOnUse" id="color-1"><stop offset="0" stop-color="#ff0000"/><stop offset="1" stop-color="#ff0000" stop-opacity="0"/></radialGradient><radialGradient cx="240" cy="180" r="7.14283" gradientUnits="userSpaceOnUse" id="color-2"><stop offset="0" stop-color="#000000" stop-opacity="0"/><stop offset="1" stop-color="#000000" stop-opacity="0"/></radialGradient></defs><g transform="translate(-199.0625,-139.0625)"><g data-paper-data="{&quot;isPaintingLayer&quot;:true}" fill-rule="nonzero" stroke-linejoin="miter" stroke-miterlimit="10" stroke-dasharray="" stroke-dashoffset="0" style="mix-blend-mode: normal"><path d="M225.77083,180c0,-7.85854 6.37063,-14.22917 14.22917,-14.22917c7.85854,0 14.22917,6.37063 14.22917,14.22917c0,7.85854 -6.37063,14.22917 -14.22917,14.22917c-7.85854,0 -14.22917,-6.37063 -14.22917,-14.22917z" fill="#808080" stroke="#343434" stroke-width="1.5" stroke-linecap="butt"/><path d="M230.5,170.5l19,19" fill="none" stroke="#343434" stroke-width="1.5" stroke-linecap="round"/><path d="M249.5,170.5l-19,19" data-paper-data="{&quot;index&quot;:null}" fill="none" stroke="#343434" stroke-width="1.5" stroke-linecap="round"/><path d="M230.69313,180c0,-5.14004 4.16682,-9.30687 9.30687,-9.30687c5.14004,0 9.30687,4.16682 9.30687,9.30687c0,5.14004 -4.16682,9.30687 -9.30687,9.30687c-5.14004,0 -9.30687,-4.16682 -9.30687,-9.30687z" fill="#9a9a9a" stroke="#343434" stroke-width="1.5" stroke-linecap="butt"/><path d="M232.85717,180c0,-3.94487 3.19795,-7.14282 7.14283,-7.14282c3.94487,0 7.14283,3.19795 7.14283,7.14282c0,3.94487 -3.19796,7.14282 -7.14283,7.14282c-3.94487,0 -7.14283,-3.19795 -7.14283,-7.14282z" fill="url(#color-1)" stroke="url(#color-2)" stroke-width="0" stroke-linecap="butt"/><path d="M236.00124,180c0,-2.20845 1.79031,-3.99876 3.99876,-3.99876c2.20845,0 3.99876,1.79031 3.99876,3.99876c0,2.20845 -1.79031,3.99876 -3.99876,3.99876c-2.20845,0 -3.99876,-1.79031 -3.99876,-3.99876z" fill="#9a9a9a" stroke-opacity="0.50196" stroke="#ff0000" stroke-width="1.5" stroke-linecap="butt"/><path d="M199.0625,220.9375v-81.875h81.875v81.875z" fill="none" stroke="none" stroke-width="0" stroke-linecap="butt"/></g></g></svg>