<svg version="1.1" xmlns="http://www.w3.org/2000/svg" xmlns:xlink="http://www.w3.org/1999/xlink" width="81.875" height="81.875" viewBox="0,0,81.875,81.875"><defs><linearGradient x1="240.00524" y1="180.00987" x2="237.50392" y2="182.48815" gradientUnits="userSpaceOnUse" id="color-1"><stop offset="0" stop-color="#00ff19"/><stop offset="1" stop-color="#00ff19" stop-opacity="0"/></linearGradient><linearGradient x1="239.99486" y1="179.97864" x2="242.49616" y2="177.50036" gradientUnits="userSpaceOnUse" id="color-2"><stop offset="0" stop-color="#00ff19"/><stop offset="1" stop-color="#00ff19" stop-opacity="0"/></linearGradient><linearGradient x1="240.0125" y1="179.97839" x2="242.49115" y2="182.48009" gradientUnits="userSpaceOnUse" id="color-3"><stop offset="0" stop-color="#00ff19"/><stop offset="1" stop-color="#00ff19" stop-opacity="0"/></linearGradient><linearGradient x1="239.99977" y1="180.01792" x2="237.5211" y2="177.51623" gradientUnits="userSpaceOnUse" id="color-4"><stop offset="0" stop-color="#00ff19"/><stop offset="1" stop-color="#00ff19" stop-opacity="0"/></linearGradient></defs><g transform="translate(-199.0625,-139.0625)"><g data-paper-data="{&quot;isPaintingLayer&quot;:true}" fill-rule="nonzero" stroke-linejoin="miter" stroke-miterlimit="10" stroke-dasharray="" stroke-dashoffset="0" style="mix-blend-mode: normal"><path d="M230.52083,180c0,-5.23519 4.24398,-9.47917 9.47917,-9.47917c5.23519,0 9.47917,4.24398 9.47917,9.47917c0,5.23519 -4.24398,9.47917 -9.47917,9.47917c-5.23519,0 -9.47917,-4.24398 -9.47917,-9.47917z" fill="#808080" stroke="#343434" stroke-width="1" stroke-linecap="butt"/><path d="M233.56129,173.56129l12.87742,12.87742" fill="none" stroke="#343434" stroke-width="1" stroke-linecap="round"/><path d="M246.43871,173.56129l-12.87742,12.87742" data-paper-data="{&quot;index&quot;:null}" fill="none" stroke="#343434" stroke-width="1" stroke-linecap="round"/><path d="M234.84996,180c0,-2.84429 2.30575,-5.15004 5.15004,-5.15004c2.84429,0 5.15004,2.30575 5.15004,5.15004c0,2.84429 -2.30575,5.15004 -5.15004,5.15004c-2.84429,0 -5.15004,-2.30575 -5.15004,-5.15004z" fill="#989898" stroke="#343434" stroke-width="1" stroke-linecap="butt"/><g stroke="none" stroke-width="0" stroke-linecap="butt"><path d="M235.04299,179.98115l4.96799,0.03452l-0.03452,4.96799z" fill="url(#color-1)"/><path d="M244.9687,179.99587l-4.9681,-0.01143l0.01143,-4.9681z" data-paper-data="{&quot;index&quot;:null}" fill="url(#color-2)"/><path d="M239.99565,184.95262l0.01067,-4.9681l4.9681,0.01067z" data-paper-data="{&quot;index&quot;:null}" fill="url(#color-3)"/><path d="M240.02886,175.05606l-0.03529,4.96798l-4.96799,-0.03529z" data-paper-data="{&quot;index&quot;:null}" fill="url(#color-4)"/></g><path d="M237.7329,179.99485l2.27225,-2.26196l2.26196,2.27226l-2.27226,2.26196z" fill-opacity="0.50196" fill="#00ff1a" stroke-opacity="0.50196" stroke="#00ff15" stroke-width="0" stroke-linecap="butt"/><path d="M199.0625,220.9375v-81.875h81.875v81.875z" fill="none" stroke="none" stroke-width="0" stroke-linecap="butt"/></g></g></svg>