<svg version="1.1" xmlns="http://www.w3.org/2000/svg" xmlns:xlink="http://www.w3.org/1999/xlink" width="81.875" height="81.875" viewBox="0,0,81.875,81.875"><defs><radialGradient cx="240" cy="180" r="15.15145" gradientUnits="userSpaceOnUse" id="color-1"><stop offset="0" stop-color="#ff0000"/><stop offset="1" stop-color="#ff0000" stop-opacity="0"/></radialGradient><radialGradient cx="240" cy="180" r="15.15145" gradientUnits="userSpaceOnUse" id="color-2"><stop offset="0" stop-color="#000000" stop-opacity="0"/><stop offset="1" stop-color="#000000" stop-opacity="0"/></radialGradient></defs><g transform="translate(-199.0625,-139.0625)"><g data-paper-data="{&quot;isPaintingLayer&quot;:true}" fill-rule="nonzero" stroke-linejoin="miter" stroke-miterlimit="10" stroke-dasharray="" stroke-dashoffset="0" style="mix-blend-mode: normal"><path d="M216.1875,180c0,-13.15126 10.66124,-23.8125 23.8125,-23.8125c13.15126,0 23.8125,10.66124 23.8125,23.8125c0,13.15126 -10.66124,23.8125 -23.8125,23.8125c-13.15126,0 -23.8125,-10.66124 -23.8125,-23.8125z" fill="#676767" stroke="#323232" stroke-width="2" stroke-linecap="butt"/><path d="M224.10176,164.10176l31.79648,31.79648" fill="none" stroke="#323232" stroke-width="2" stroke-linecap="round"/><path d="M255.89824,164.10176l-31.79648,31.79648" data-paper-data="{&quot;index&quot;:null}" fill="none" stroke="#323232" stroke-width="2" stroke-linecap="round"/><path d="M217,180h46" fill="none" stroke="#323232" stroke-width="2" stroke-linecap="round"/><path d="M240,157.5v45" fill="none" stroke="#323232" stroke-width="2" stroke-linecap="round"/><path d="M224.42496,180c0,-8.60185 6.97317,-15.57504 15.57504,-15.57504c8.60185,0 15.57504,6.97317 15.57504,15.57504c0,8.60185 -6.97317,15.57504 -15.57504,15.57504c-8.60185,0 -15.57504,-6.97317 -15.57504,-15.57504z" fill="#808080" stroke="#323232" stroke-width="2" stroke-linecap="butt"/><path d="M257.5,171.54l-2.8,6l-6.6,1.8" fill="none" stroke="#181818" stroke-width="1.5" stroke-linecap="round"/><path d="M236.7,202.74l-0.8,-4.6l4.8,-5.2" fill="none" stroke="#181818" stroke-width="1.5" stroke-linecap="round"/><path d="M219.1,169.34l2.6,4l6.4,0.6l3.2,4.8" fill="none" stroke="#181818" stroke-width="1.5" stroke-linecap="round"/><path d="M224.84855,180c0,-8.36791 6.78353,-15.15142 15.15145,-15.15142c8.36791,0 15.15145,6.78351 15.15145,15.15142c0,8.36791 -6.78355,15.15142 -15.15145,15.15142c-8.36791,0 -15.15145,-6.78351 -15.15145,-15.15142z" fill="url(#color-1)" stroke="url(#color-2)" stroke-width="0" stroke-linecap="butt"/><path d="M229.42722,180c0,-5.83918 4.73361,-10.57279 10.57279,-10.57279c5.83918,0 10.57279,4.73361 10.57279,10.57279c0,5.83918 -4.73361,10.57279 -10.57279,10.57279c-5.83918,0 -10.57279,-4.73361 -10.57279,-10.57279z" fill="#808080" stroke-opacity="0.50196" stroke="#ff0000" stroke-width="2" stroke-linecap="butt"/><path d="M233.63746,180c0,-3.51392 2.8486,-6.36254 6.36254,-6.36254c3.51392,0 6.36254,2.8486 6.36254,6.36254c0,3.51392 -2.8486,6.36254 -6.36254,6.36254c-3.51392,0 -6.36254,-2.8486 -6.36254,-6.36254z" fill="#676767" stroke="#323232" stroke-width="2" stroke-linecap="butt"/><path d="M240.3625,180.1125l-3.17795,-3.39169l0.55295,-5.53331" fill="none" stroke="#181818" stroke-width="1.5" stroke-linecap="round"/><path d="M199.0625,220.9375v-81.875h81.875v81.875z" fill="none" stroke="none" stroke-width="0" stroke-linecap="butt"/></g></g></svg>