<svg version="1.1" xmlns="http://www.w3.org/2000/svg" xmlns:xlink="http://www.w3.org/1999/xlink" width="81.875" height="81.875" viewBox="0,0,81.875,81.875"><defs><radialGradient cx="240" cy="180" r="8.88418" gradientUnits="userSpaceOnUse" id="color-1"><stop offset="0" stop-color="#ffea00"/><stop offset="1" stop-color="#ffea00" stop-opacity="0"/></radialGradient><radialGradient cx="240" cy="180" r="8.88418" gradientUnits="userSpaceOnUse" id="color-2"><stop offset="0" stop-color="#000000" stop-opacity="0"/><stop offset="1" stop-color="#000000" stop-opacity="0"/></radialGradient></defs><g transform="translate(-199.0625,-139.0625)"><g data-paper-data="{&quot;isPaintingLayer&quot;:true}" fill-rule="nonzero" stroke-linejoin="miter" stroke-miterlimit="10" stroke-dasharray="" stroke-dashoffset="0" style="mix-blend-mode: normal"><path d="M230.52083,180c0,-5.23519 4.24398,-9.47917 9.47917,-9.47917c5.23519,0 9.47917,4.24398 9.47917,9.47917c0,5.23519 -4.24398,9.47917 -9.47917,9.47917c-5.23519,0 -9.47917,-4.24398 -9.47917,-9.47917z" fill="#808080" stroke="#343434" stroke-width="1" stroke-linecap="butt"/><path d="M240,189.25v-18.5" fill="none" stroke="#343434" stroke-width="1" stroke-linecap="round"/><path d="M231.1,180h17.8" fill="none" stroke="#343434" stroke-width="1" stroke-linecap="round"/><path d="M231.11582,180c0,-4.9066 3.97758,-8.88417 8.88418,-8.88417c4.9066,0 8.88418,3.97758 8.88418,8.88417c0,4.9066 -3.9776,8.88417 -8.88418,8.88417c-4.9066,0 -8.88418,-3.97758 -8.88418,-8.88417z" fill="url(#color-1)" stroke="url(#color-2)" stroke-width="0" stroke-linecap="butt"/><path d="M233.60074,180c0,-3.53421 2.86505,-6.39926 6.39926,-6.39926c3.53421,0 6.39926,2.86505 6.39926,6.39926c0,3.53421 -2.86505,6.39926 -6.39926,6.39926c-3.53421,0 -6.39926,-2.86505 -6.39926,-6.39926z" fill="#989898" stroke-opacity="0.50196" stroke="#ffde00" stroke-width="1.5" stroke-linecap="butt"/><path d="M237.01663,180c0,-1.64767 1.3357,-2.98337 2.98337,-2.98337c1.64767,0 2.98337,1.3357 2.98337,2.98337c0,1.64767 -1.3357,2.98337 -2.98337,2.98337c-1.64767,0 -2.98337,-1.3357 -2.98337,-2.98337z" fill="#808080" stroke="#343434" stroke-width="1" stroke-linecap="butt"/><path d="M199.0625,220.9375v-81.875h81.875v81.875z" fill="none" stroke="none" stroke-width="0" stroke-linecap="butt"/></g></g></svg>