<svg version="1.1" xmlns="http://www.w3.org/2000/svg" xmlns:xlink="http://www.w3.org/1999/xlink" width="81.875" height="81.875" viewBox="0,0,81.875,81.875"><defs><linearGradient x1="240" y1="180.00001" x2="237.85149" y2="182.09379" gradientUnits="userSpaceOnUse" id="color-1"><stop offset="0" stop-color="#8000ff" stop-opacity="0.34902"/><stop offset="1" stop-color="#8000ff" stop-opacity="0"/></linearGradient><linearGradient x1="240" y1="180.00001" x2="242.14851" y2="177.90622" gradientUnits="userSpaceOnUse" id="color-2"><stop offset="0" stop-color="#8000ff" stop-opacity="0.34902"/><stop offset="1" stop-color="#8000ff" stop-opacity="0"/></linearGradient><linearGradient x1="240" y1="180" x2="237.89482" y2="177.86268" gradientUnits="userSpaceOnUse" id="color-3"><stop offset="0" stop-color="#8000ff" stop-opacity="0.34902"/><stop offset="1" stop-color="#8000ff" stop-opacity="0"/></linearGradient><linearGradient x1="240" y1="180" x2="242.10518" y2="182.13732" gradientUnits="userSpaceOnUse" id="color-4"><stop offset="0" stop-color="#8000ff" stop-opacity="0.34902"/><stop offset="1" stop-color="#8000ff" stop-opacity="0"/></linearGradient><radialGradient cx="240" cy="180" r="7.27083" gradientUnits="userSpaceOnUse" id="color-5"><stop offset="0" stop-color="#8000ff" stop-opacity="0.50196"/><stop offset="1" stop-color="#8000ff" stop-opacity="0"/></radialGradient></defs><g transform="translate(-199.0625,-139.0625)"><g data-paper-data="{&quot;isPaintingLayer&quot;:true}" fill-rule="nonzero" stroke-linejoin="miter" stroke-miterlimit="10" stroke-dasharray="" stroke-dashoffset="0" style="mix-blend-mode: normal"><path d="M220.98512,180c0,-10.50161 8.51327,-19.01488 19.01488,-19.01488c10.50161,0 19.01488,8.51327 19.01488,19.01488c0,10.50161 -8.51327,19.01488 -19.01488,19.01488c-10.50161,0 -19.01488,-8.51327 -19.01488,-19.01488z" fill="#676767" stroke="#323232" stroke-width="1.5" stroke-linecap="butt"/><path d="M224.25655,180c0,-8.69485 7.0486,-15.74345 15.74345,-15.74345c8.69485,0 15.74345,7.0486 15.74345,15.74345c0,8.69485 -7.0486,15.74345 -15.74345,15.74345c-8.69485,0 -15.74345,-7.0486 -15.74345,-15.74345z" fill="#818181" stroke="#323232" stroke-width="1.5" stroke-linecap="butt"/><path d="M245.1,187.94l-2.4,4.6l-5.8,-1l-2.4,2.4" fill="none" stroke="#323232" stroke-width="1" stroke-linecap="round"/><path d="M234.9,175.34l-3.2,-1.8l1.2,-4.6" fill="none" stroke="#323232" stroke-width="1" stroke-linecap="round"/><path d="M248.3,167.14l1.2,4.6l-2.2,1.4" fill="none" stroke="#323232" stroke-width="1" stroke-linecap="round"/><path d="M256.5,188.34l-1.6,-3" fill="none" stroke="#323232" stroke-width="1" stroke-linecap="round"/><path d="M221.3,179.54l2.8,-2.8" fill="none" stroke="#323232" stroke-width="1" stroke-linecap="round"/><g stroke="none" stroke-width="0" stroke-linecap="butt"><path d="M227.39034,171.35921l2.14851,-2.09378l20.92231,21.46913l-2.14851,2.09378z" fill="url(#color-1)"/><path d="M251.17733,190.03665l-1.43234,1.39585l-20.92232,-21.46914l1.43234,-1.39585z" data-paper-data="{&quot;index&quot;:null}" fill-opacity="0.50196" fill="#8000ff"/><path d="M252.60966,188.64079l-2.14851,2.09378l-20.92231,-21.46913l2.14851,-2.09378z" data-paper-data="{&quot;index&quot;:null}" fill="url(#color-2)"/></g><g stroke="none" stroke-width="0" stroke-linecap="butt"><path d="M248.69126,167.17404l2.10518,2.13732l-21.59286,21.37729l-2.10518,-2.13732z" fill="url(#color-3)"/><path d="M229.90529,191.4011l-1.40345,-1.42488l21.59287,-21.37729l1.40345,1.42488z" data-paper-data="{&quot;index&quot;:null}" fill-opacity="0.50196" fill="#8000ff"/><path d="M231.30874,192.82596l-2.10518,-2.13732l21.59286,-21.37729l2.10518,2.13732z" data-paper-data="{&quot;index&quot;:null}" fill="url(#color-4)"/></g><path d="M233.15162,180c0,-3.78224 3.06613,-6.84838 6.84838,-6.84838c3.78224,0 6.84838,3.06613 6.84838,6.84838c0,3.78224 -3.06613,6.84838 -6.84838,6.84838c-3.78224,0 -6.84838,-3.06613 -6.84838,-6.84838z" fill="#656565" stroke="#343434" stroke-width="1.5" stroke-linecap="butt"/><path d="M232.72917,180c0,-4.01557 3.25527,-7.27084 7.27083,-7.27084c4.01557,0 7.27083,3.25527 7.27083,7.27084c0,4.01557 -3.25527,7.27084 -7.27083,7.27084c-4.01557,0 -7.27083,-3.25527 -7.27083,-7.27084z" fill="url(#color-5)" stroke="none" stroke-width="0" stroke-linecap="butt"/><path d="M237.48334,180c0,-1.38992 1.12675,-2.51666 2.51666,-2.51666c1.38992,0 2.51666,1.12675 2.51666,2.51666c0,1.38992 -1.12675,2.51666 -2.51666,2.51666c-1.38992,0 -2.51666,-1.12675 -2.51666,-2.51666z" fill="#8000ff" stroke="none" stroke-width="0" stroke-linecap="butt"/><path d="M199.0625,220.9375v-81.875h81.875v81.875z" fill="none" stroke="none" stroke-width="0" stroke-linecap="butt"/></g></g></svg>