<svg version="1.1" xmlns="http://www.w3.org/2000/svg" xmlns:xlink="http://www.w3.org/1999/xlink" width="69.875" height="69.875" viewBox="0,0,69.875,69.875"><g transform="translate(-205.0625,-145.0625)"><g data-paper-data="{&quot;isPaintingLayer&quot;:true}" fill-rule="nonzero" stroke="none" stroke-width="0" stroke-linecap="butt" stroke-linejoin="miter" stroke-miterlimit="10" stroke-dasharray="" stroke-dashoffset="0" style="mix-blend-mode: normal"><path d="M232.64286,179.6c0,-1.22292 0.99137,-2.21429 2.21428,-2.21429c1.22292,0 2.21429,0.99138 2.21429,2.21429c0,1.22292 -0.99138,2.21429 -2.21429,2.21429c-1.22292,0 -2.21428,-0.99137 -2.21428,-2.21429z" fill="#7f0000"/><path d="M234.64286,183.74286c0,-1.22292 0.99137,-2.21429 2.21428,-2.21429c1.22292,0 2.21429,0.99138 2.21429,2.21429c0,1.22292 -0.99138,2.21428 -2.21429,2.21428c-1.22292,0 -2.21428,-0.99137 -2.21428,-2.21428z" fill="#7f0000"/><path d="M234.64286,175.45714c0,-1.22292 0.99137,-2.21429 2.21428,-2.21429c1.22292,0 2.21429,0.99138 2.21429,2.21429c0,1.22292 -0.99138,2.21428 -2.21429,2.21428c-1.22292,0 -2.21428,-0.99137 -2.21428,-2.21428z" fill="#7f0000"/><path d="M240.02449,184.01994c0,0 -4.05813,-0.0515 -4.05813,-4.09211c0,-3.77166 4.05813,-3.9734 4.05813,-3.9734h11.2425v8.0655z" fill="#b30000"/><path d="M205.0625,214.9375v-69.875h69.875v69.875z" fill="none"/><path d="M242.5458,176.02639v-3.64012h6.98766v3.64012z" fill="#7f0000"/></g></g></svg>