<svg version="1.1" xmlns="http://www.w3.org/2000/svg" xmlns:xlink="http://www.w3.org/1999/xlink" width="69.875" height="69.875" viewBox="0,0,69.875,69.875"><g transform="translate(-205.0625,-145.0625)"><g data-paper-data="{&quot;isPaintingLayer&quot;:true}" fill-rule="nonzero" stroke-linejoin="miter" stroke-miterlimit="10" stroke-dasharray="" stroke-dashoffset="0" style="mix-blend-mode: normal"><path d="M231.9399,179.98125c0,-0.9665 0.7835,-1.75 1.75,-1.75c0.9665,0 1.75,0.7835 1.75,1.75c0,0.9665 -0.7835,1.75 -1.75,1.75c-0.9665,0 -1.75,-0.7835 -1.75,-1.75z" fill="#0080b2" stroke="none" stroke-width="0" stroke-linecap="butt"/><path d="M233.65625,176.48125c0,-0.9665 0.7835,-1.75 1.75,-1.75c0.9665,0 1.75,0.7835 1.75,1.75c0,0.9665 -0.7835,1.75 -1.75,1.75c-0.9665,0 -1.75,-0.7835 -1.75,-1.75z" fill="#0080b2" stroke="none" stroke-width="0" stroke-linecap="butt"/><path d="M233.53125,183.48125c0,-0.9665 0.7835,-1.75 1.75,-1.75c0.9665,0 1.75,0.7835 1.75,1.75c0,0.9665 -0.7835,1.75 -1.75,1.75c-0.9665,0 -1.75,-0.7835 -1.75,-1.75z" fill="#0080b2" stroke="none" stroke-width="0" stroke-linecap="butt"/><path d="M237.37368,174.96866l5.37742,0.00511l2.96477,5.02993l-3.00387,4.99647l-5.49189,0.03117l-2.93589,-5.02254z" fill="#00a4e6" stroke="#000000" stroke-width="0" stroke-linecap="round"/><path d="M243.5672,181.9329v-3.74164h4.73208v3.74164z" fill="#00a4e6" stroke="none" stroke-width="0" stroke-linecap="butt"/><path d="M238.19785,190.76815v-5.84615h3.46154v5.84615z" fill="#0080b2" stroke="none" stroke-width="0" stroke-linecap="butt"/><path d="M238.65938,186.46046v-0.92308h2.53846v0.92308z" fill="#00a4e6" stroke="none" stroke-width="0" stroke-linecap="butt"/><path d="M238.65938,188.2297v-0.92308h2.53846v0.92308z" fill="#00a4e6" stroke="none" stroke-width="0" stroke-linecap="butt"/><path d="M238.65938,189.99892v-0.92308h2.53846v0.92308z" fill="#00a4e6" stroke="none" stroke-width="0" stroke-linecap="butt"/><path d="M236.96429,180h6.07143" fill="none" stroke="#0080b2" stroke-width="1" stroke-linecap="round"/><path d="M238.46159,177.38297l3.07682,5.23407" fill="none" stroke="#0080b2" stroke-width="1" stroke-linecap="round"/><path d="M241.53841,177.38297l-3.07682,5.23407" data-paper-data="{&quot;index&quot;:null}" fill="none" stroke="#0080b2" stroke-width="1" stroke-linecap="round"/><path d="M205.0625,214.9375v-69.875h69.875v69.875z" fill="none" stroke="none" stroke-width="0" stroke-linecap="butt"/></g></g></svg>