<svg version="1.1" xmlns="http://www.w3.org/2000/svg" xmlns:xlink="http://www.w3.org/1999/xlink" width="69.875" height="69.875" viewBox="0,0,69.875,69.875"><g transform="translate(-205.0625,-145.0625)"><g data-paper-data="{&quot;isPaintingLayer&quot;:true}" fill-rule="nonzero" stroke-linejoin="miter" stroke-miterlimit="10" stroke-dasharray="" stroke-dashoffset="0" style="mix-blend-mode: normal"><path d="M205.0625,214.9375v-69.875h69.875v69.875z" fill="none" stroke="none" stroke-width="0" stroke-linecap="butt"/><path d="M231.67953,173.57578h4.01678" fill="none" stroke="#67bdff" stroke-width="2" stroke-linecap="round"/><path d="M244.48572,186.24221h4.01678" fill="none" stroke="#67bdff" stroke-width="2" stroke-linecap="round"/><path d="M246.37257,175.7281l0.03957,-4.01659" fill="none" stroke="#67bdff" stroke-width="2" stroke-linecap="round"/><path d="M233.62743,184.2719l-0.03957,4.01659" fill="none" stroke="#67bdff" stroke-width="2" stroke-linecap="round"/><path d="M241.35762,187.80668c0,0 -2.32775,0.28611 -3.30527,-5.28872c-0.32629,-1.86083 -6.15485,-1.17684 -6.15485,-1.17684c0,0 -0.1655,-2.19766 5.38853,-3.26308c2.11998,-0.40668 1.27185,-5.87818 1.27185,-5.87818c0,0 2.29617,-0.45064 3.20538,5.01897c0.37699,2.2679 6.33868,1.43209 6.33868,1.43209c0,0 0.21723,2.06509 -5.49688,3.10081c-2.13972,0.38785 -1.24743,6.05493 -1.24743,6.05493z" data-paper-data="{&quot;index&quot;:null}" fill="#66bcff" stroke="#000000" stroke-width="0" stroke-linecap="round"/><path d="M235.99394,180.00002c0,-2.21249 1.79358,-4.00607 4.00607,-4.00607c2.21249,0 4.00607,1.79358 4.00607,4.00607c0,2.21249 -1.79358,4.00607 -4.00607,4.00607c-2.21249,0 -4.00607,-1.79358 -4.00607,-4.00607z" fill="#b2dfff" stroke="none" stroke-width="0" stroke-linecap="butt"/></g></g></svg>