<svg version="1.1" xmlns="http://www.w3.org/2000/svg" xmlns:xlink="http://www.w3.org/1999/xlink" width="69.875" height="69.875" viewBox="0,0,69.875,69.875"><g transform="translate(-205.0625,-145.0625)"><g data-paper-data="{&quot;isPaintingLayer&quot;:true}" fill-rule="nonzero" stroke-width="0" stroke-linejoin="miter" stroke-miterlimit="10" stroke-dasharray="" stroke-dashoffset="0" style="mix-blend-mode: normal"><path d="M243.38144,181.56941v-3.07701h9.91029v3.07701z" fill="#b28000" stroke="none" stroke-linecap="butt"/><path d="M234.1459,183.91671v-7.65833h10.57313v7.65833z" fill="#e6a400" stroke="none" stroke-linecap="butt"/><path d="M237.26928,189.67885v-5.84615h3.46154v5.84615z" fill="#b28000" stroke="none" stroke-linecap="butt"/><path d="M237.73081,185.37115v-0.92308h2.53846v0.92308z" fill="#e6a400" stroke="none" stroke-linecap="butt"/><path d="M237.73081,187.14039v-0.92308h2.53846v0.92308z" fill="#e6a400" stroke="none" stroke-linecap="butt"/><path d="M237.73081,188.90962v-0.92308h2.53846v0.92308z" fill="#e6a400" stroke="none" stroke-linecap="butt"/><g fill="#b28000" stroke="#b28000"><path d="M237.31423,179.75792c0.15876,-0.31278 0.54102,-0.43763 0.8538,-0.27887c0.31278,0.15876 0.43763,0.54102 0.27887,0.8538c-0.15877,0.31278 -0.54103,0.43763 -0.8538,0.27887c-0.31278,-0.15876 -0.43763,-0.54102 -0.27887,-0.8538z" stroke-linecap="butt"/><path d="M235.76398,181.43859l1.13031,-0.80658c0,0 0.17329,0.34379 0.48026,0.48601c0.25252,0.11699 0.63249,0.05808 0.63249,0.05808l0.00587,1.40403c0,0 -0.66315,0.10112 -1.32791,-0.23631c-0.62013,-0.31477 -0.92103,-0.90522 -0.92103,-0.90522z" stroke-linecap="round"/><path d="M237.94254,178.91977c0,0 -0.33561,-0.00147 -0.62013,0.18157c-0.23405,0.15058 -0.41732,0.43869 -0.41732,0.43869l-1.18724,-0.70082c0,0 0.26982,-0.61415 0.91082,-0.99477c0.59797,-0.35506 1.25775,-0.29288 1.25775,-0.29288z" stroke-linecap="round"/><path d="M239.96683,181.34026l-1.16164,-0.71412c0,0 0.16338,-0.29987 0.16375,-0.63818c0.0003,-0.27831 -0.16112,-0.56873 -0.16112,-0.56873l1.25216,-0.59932c0,0 0.3699,0.55961 0.34237,1.30459c-0.02568,0.69497 -0.43552,1.21575 -0.43552,1.21575z" stroke-linecap="round"/></g><path d="M205.0625,214.9375v-69.875h69.875v69.875z" fill="none" stroke="none" stroke-linecap="butt"/></g></g></svg>