<svg version="1.1" xmlns="http://www.w3.org/2000/svg" xmlns:xlink="http://www.w3.org/1999/xlink" width="69.875" height="69.875" viewBox="0,0,69.875,69.875"><g transform="translate(-205.0625,-145.0625)"><g data-paper-data="{&quot;isPaintingLayer&quot;:true}" fill-rule="nonzero" stroke-linejoin="miter" stroke-miterlimit="10" stroke-dasharray="" stroke-dashoffset="0" style="mix-blend-mode: normal"><path d="M205.0625,214.9375v-69.875h69.875v69.875z" fill="none" stroke="none" stroke-width="0" stroke-linecap="butt"/><path d="M231.67953,173.57578h4.01678" fill="none" stroke="#67bdff" stroke-width="2" stroke-linecap="round"/><path d="M248.5025,186.24221h-4.01678" fill="none" stroke="#67bdff" stroke-width="2" stroke-linecap="round"/><path d="M246.41214,171.71151l-0.03957,4.01659" fill="none" stroke="#67bdff" stroke-width="2" stroke-linecap="round"/><path d="M233.62743,184.2719l-0.03957,4.01659" fill="none" stroke="#67bdff" stroke-width="2" stroke-linecap="round"/><path d="M235.99394,180.00002c0,-2.21249 1.79358,-4.00607 4.00607,-4.00607c2.21249,0 4.00607,1.79358 4.00607,4.00607c0,2.21249 -1.79358,4.00607 -4.00607,4.00607c-2.21249,0 -4.00607,-1.79358 -4.00607,-4.00607z" fill="#b2dfff" stroke="none" stroke-width="0" stroke-linecap="butt"/><path d="M237.05557,180c0,-1.62617 1.31828,-2.94445 2.94445,-2.94445c1.62617,0 2.94445,1.31828 2.94445,2.94445c0,1.62617 -1.31828,2.94445 -2.94445,2.94445c-1.62617,0 -2.94445,-1.31828 -2.94445,-2.94445z" fill="none" stroke="#65bcff" stroke-width="0.75" stroke-linecap="butt"/><text transform="translate(238.64141,181.75833) scale(0.12351,0.12351)" font-size="40" xml:space="preserve" fill="#65bcff" fill-rule="nonzero" stroke="none" stroke-width="1" stroke-linecap="butt" stroke-linejoin="miter" stroke-miterlimit="10" stroke-dasharray="" stroke-dashoffset="0" font-family="Sans Serif" font-weight="normal" text-anchor="start" style="mix-blend-mode: normal"><tspan x="0" dy="0">S</tspan></text></g></g></svg>