<svg version="1.1" xmlns="http://www.w3.org/2000/svg" xmlns:xlink="http://www.w3.org/1999/xlink" width="136" height="136" viewBox="0,0,136,136"><g transform="translate(-172,-112)"><g data-paper-data="{&quot;isPaintingLayer&quot;:true}" fill-rule="nonzero" stroke-linejoin="miter" stroke-miterlimit="10" stroke-dasharray="" stroke-dashoffset="0" style="mix-blend-mode: normal"><path d="M247.33129,180.025l-4.75,1.6v-3.25z" fill="#67bdff" stroke="#000000" stroke-width="0" stroke-linecap="round"/><path d="M237.38547,178.43754v3.25l-4.75,-1.6z" data-paper-data="{&quot;index&quot;:null}" fill="#67bdff" stroke="#000000" stroke-width="0" stroke-linecap="round"/><path d="M238.29029,182.52837l3.24958,0.05207l-1.67589,4.72376z" data-paper-data="{&quot;index&quot;:null}" fill="#67bdff" stroke="#000000" stroke-width="0" stroke-linecap="round"/><path d="M239.93886,172.5751l1.64902,4.7332l-3.24983,0.0336z" data-paper-data="{&quot;index&quot;:null}" fill="#67bdff" stroke="#000000" stroke-width="0" stroke-linecap="round"/><path d="M235.99393,180.00001c0,-2.21249 1.79358,-4.00607 4.00607,-4.00607c2.21249,0 4.00607,1.79358 4.00607,4.00607c0,2.21249 -1.79358,4.00607 -4.00607,4.00607c-2.21249,0 -4.00607,-1.79358 -4.00607,-4.00607z" fill="#b2dfff" stroke="none" stroke-width="0" stroke-linecap="butt"/><path d="M172,248v-136h136v136z" fill="none" stroke="none" stroke-width="0" stroke-linecap="butt"/><path d="M231.67953,173.57578h4.01678" fill="none" stroke="#67bdff" stroke-width="2" stroke-linecap="round"/><path d="M244.48572,186.24221h4.01678" fill="none" stroke="#67bdff" stroke-width="2" stroke-linecap="round"/><path d="M246.37257,175.7281l0.03957,-4.01659" fill="none" stroke="#67bdff" stroke-width="2" stroke-linecap="round"/><path d="M233.62743,184.2719l-0.03957,4.01659" fill="none" stroke="#67bdff" stroke-width="2" stroke-linecap="round"/></g></g></svg>