<svg version="1.1" xmlns="http://www.w3.org/2000/svg" xmlns:xlink="http://www.w3.org/1999/xlink" width="69.875" height="69.875" viewBox="0,0,69.875,69.875"><defs><linearGradient x1="240.05167" y1="180.03112" x2="240.05167" y2="192.36746" gradientUnits="userSpaceOnUse" id="color-1"><stop offset="0" stop-color="#00ff19"/><stop offset="1" stop-color="#00ff19" stop-opacity="0"/></linearGradient><linearGradient x1="239.94833" y1="179.97994" x2="239.94833" y2="167.6436" gradientUnits="userSpaceOnUse" id="color-2"><stop offset="0" stop-color="#00ff19"/><stop offset="1" stop-color="#00ff19" stop-opacity="0"/></linearGradient><linearGradient x1="239.99125" y1="179.93541" x2="252.32948" y2="179.93541" gradientUnits="userSpaceOnUse" id="color-3"><stop offset="0" stop-color="#00ff19"/><stop offset="1" stop-color="#00ff19" stop-opacity="0"/></linearGradient><linearGradient x1="240.05821" y1="180.06458" x2="227.71998" y2="180.06458" gradientUnits="userSpaceOnUse" id="color-4"><stop offset="0" stop-color="#00ff19"/><stop offset="1" stop-color="#00ff19" stop-opacity="0"/></linearGradient></defs><g transform="translate(-205.0625,-145.0625)"><g data-paper-data="{&quot;isPaintingLayer&quot;:true}" fill-rule="nonzero" stroke-linecap="butt" stroke-linejoin="miter" stroke-miterlimit="10" stroke-dasharray="" stroke-dashoffset="0" style="mix-blend-mode: normal"><g stroke="none" stroke-width="0"><path d="M227.74392,192.31026l12.33635,-12.27915l12.27915,12.33635z" fill="url(#color-1)"/><path d="M252.25607,167.6436l-12.27915,12.33635l-12.33634,-12.27915z" data-paper-data="{&quot;index&quot;:null}" fill="url(#color-2)"/><path d="M252.32948,192.24315l-12.33824,-12.27725l12.27725,-12.33824z" data-paper-data="{&quot;index&quot;:null}" fill="url(#color-3)"/><path d="M227.78097,167.75685l12.27725,12.33824l-12.33824,12.27725z" data-paper-data="{&quot;index&quot;:null}" fill="url(#color-4)"/></g><path d="M231.67361,188.32639v-16.65278h16.65278v16.65278z" fill="#3f3f3f" stroke-opacity="0.50196" stroke="#00ff15" stroke-width="1.5"/><path d="M205.0625,214.9375v-69.875h69.875v69.875z" fill="none" stroke="none" stroke-width="0"/><path d="M241.28604,182.16016v-4.12683h6.61852v4.12683z" fill="#00b30f" stroke="none" stroke-width="0"/><path d="M234.9705,180.04701c0,-2.67763 2.17064,-4.84826 4.84826,-4.84826c2.67763,0 4.84826,2.17064 4.84826,4.84826c0,2.67763 -2.17064,4.84826 -4.84826,4.84826c-2.67763,0 -4.84826,-2.17064 -4.84826,-4.84826z" fill="#00b30f" stroke="#007f0b" stroke-width="0"/><path d="M243.44506,179.53155l-1.19561,-2.58285l5.1657,-2.39123l1.19561,2.58285z" fill="#007f0b" stroke="none" stroke-width="0"/><path d="M237.26928,190.05385v-5.84615h3.46154v5.84615z" fill="#007f0b" stroke="none" stroke-width="0"/><path d="M237.73081,185.74615v-0.92308h2.53846v0.92308z" fill="#00b30f" stroke="none" stroke-width="0"/><path d="M237.73081,187.51539v-0.92308h2.53846v0.92308z" fill="#00b30f" stroke="none" stroke-width="0"/><path d="M237.73081,189.28462v-0.92308h2.53846v0.92308z" fill="#00b30f" stroke="none" stroke-width="0"/><path d="M245.71965,182.89443v-5.59536h4.98915v5.59536z" fill="#007f0b" stroke="none" stroke-width="0"/><path d="M248.6733,183.14971l-1.19561,2.58285l-5.1657,-2.39123l1.19561,-2.58285z" data-paper-data="{&quot;index&quot;:null}" fill="#007f0b" stroke="none" stroke-width="0"/></g></g></svg>