<svg version="1.1" xmlns="http://www.w3.org/2000/svg" xmlns:xlink="http://www.w3.org/1999/xlink" width="69.875" height="69.875" viewBox="0,0,69.875,69.875"><defs><linearGradient x1="240.05167" y1="180.03112" x2="240.05167" y2="192.36746" gradientUnits="userSpaceOnUse" id="color-1"><stop offset="0" stop-color="#00ff19"/><stop offset="1" stop-color="#00ff19" stop-opacity="0"/></linearGradient><linearGradient x1="239.94833" y1="179.97994" x2="239.94833" y2="167.6436" gradientUnits="userSpaceOnUse" id="color-2"><stop offset="0" stop-color="#00ff19"/><stop offset="1" stop-color="#00ff19" stop-opacity="0"/></linearGradient><linearGradient x1="239.99125" y1="179.93541" x2="252.32948" y2="179.93541" gradientUnits="userSpaceOnUse" id="color-3"><stop offset="0" stop-color="#00ff19"/><stop offset="1" stop-color="#00ff19" stop-opacity="0"/></linearGradient><linearGradient x1="240.05821" y1="180.06458" x2="227.71998" y2="180.06458" gradientUnits="userSpaceOnUse" id="color-4"><stop offset="0" stop-color="#00ff19"/><stop offset="1" stop-color="#00ff19" stop-opacity="0"/></linearGradient></defs><g transform="translate(-205.0625,-145.0625)"><g data-paper-data="{&quot;isPaintingLayer&quot;:true}" fill-rule="nonzero" stroke-linejoin="miter" stroke-miterlimit="10" stroke-dasharray="" stroke-dashoffset="0" style="mix-blend-mode: normal"><g stroke="none" stroke-width="0" stroke-linecap="butt"><path d="M227.74392,192.31026l12.33635,-12.27915l12.27915,12.33635z" fill="url(#color-1)"/><path d="M252.25607,167.6436l-12.27915,12.33635l-12.33634,-12.27915z" data-paper-data="{&quot;index&quot;:null}" fill="url(#color-2)"/><path d="M252.32948,192.24315l-12.33824,-12.27725l12.27725,-12.33824z" data-paper-data="{&quot;index&quot;:null}" fill="url(#color-3)"/><path d="M227.78097,167.75685l12.27725,12.33824l-12.33824,12.27725z" data-paper-data="{&quot;index&quot;:null}" fill="url(#color-4)"/></g><path d="M231.67361,188.32639v-16.65278h16.65278v16.65278z" fill="#3f3f3f" stroke-opacity="0.50196" stroke="#00ff15" stroke-width="1.5" stroke-linecap="butt"/><path d="M205.0625,214.9375v-69.875h69.875v69.875z" fill="none" stroke="none" stroke-width="0" stroke-linecap="butt"/><path d="M236.88878,173.26601c0,0 0.86143,2.29942 -0.4636,4.14324c-1.34275,1.86847 -3.46179,2.25387 -3.46179,2.25387" fill="none" stroke="#00b30f" stroke-width="2" stroke-linecap="round"/><path d="M241.28606,182.16016v-4.12683h6.61852v4.12683z" fill="#00b30f" stroke="none" stroke-width="0" stroke-linecap="butt"/><path d="M234.97051,180.04701c0,-2.67763 2.17064,-4.84826 4.84826,-4.84826c2.67763,0 4.84826,2.17064 4.84826,4.84826c0,2.67763 -2.17064,4.84826 -4.84826,4.84826c-2.67763,0 -4.84826,-2.17064 -4.84826,-4.84826z" fill="#00800b" stroke="#007f0b" stroke-width="0" stroke-linecap="butt"/><path d="M242.66072,180.025l-4.75,1.6v-3.25z" fill="#00b30f" stroke="#000000" stroke-width="0" stroke-linecap="round"/><path d="M231.95455,175.45152c0,-0.82006 0.66478,-1.48485 1.48484,-1.48485c0.82006,0 1.48485,0.6648 1.48485,1.48485c0,0.82006 -0.6648,1.48485 -1.48485,1.48485c-0.82006,0 -1.48484,-0.6648 -1.48484,-1.48485z" fill="#00800b" stroke="none" stroke-width="0" stroke-linecap="butt"/></g></g></svg>