<svg version="1.1" xmlns="http://www.w3.org/2000/svg" xmlns:xlink="http://www.w3.org/1999/xlink" width="69.875" height="69.875" viewBox="0,0,69.875,69.875"><defs><linearGradient x1="240.0113" y1="180.02115" x2="234.65314" y2="185.35425" gradientUnits="userSpaceOnUse" id="color-1"><stop offset="0" stop-color="#00ff19"/><stop offset="1" stop-color="#00ff19" stop-opacity="0"/></linearGradient><linearGradient x1="239.98885" y1="179.95414" x2="245.34702" y2="174.62104" gradientUnits="userSpaceOnUse" id="color-2"><stop offset="0" stop-color="#00ff19"/><stop offset="1" stop-color="#00ff19" stop-opacity="0"/></linearGradient><linearGradient x1="240.02676" y1="179.95353" x2="245.36066" y2="185.31252" gradientUnits="userSpaceOnUse" id="color-3"><stop offset="0" stop-color="#00ff19"/><stop offset="1" stop-color="#00ff19" stop-opacity="0"/></linearGradient><linearGradient x1="239.9996" y1="180.03845" x2="234.66567" y2="174.67947" gradientUnits="userSpaceOnUse" id="color-4"><stop offset="0" stop-color="#00ff19"/><stop offset="1" stop-color="#00ff19" stop-opacity="0"/></linearGradient></defs><g transform="translate(-205.0625,-145.0625)"><g data-paper-data="{&quot;isPaintingLayer&quot;:true}" fill-rule="nonzero" stroke-linejoin="miter" stroke-miterlimit="10" stroke-dasharray="" stroke-dashoffset="0" style="mix-blend-mode: normal"><path d="M220.98512,180c0,-10.50161 8.51327,-19.01488 19.01488,-19.01488c10.50161,0 19.01488,8.51327 19.01488,19.01488c0,10.50161 -8.51327,19.01488 -19.01488,19.01488c-10.50161,0 -19.01488,-8.51327 -19.01488,-19.01488z" fill="#676767" stroke="#343434" stroke-width="1.5" stroke-linecap="butt"/><path d="M227.30485,167.30485l25.39029,25.39029" fill="none" stroke="#343434" stroke-width="1.5" stroke-linecap="round"/><path d="M252.69515,167.30485l-25.39029,25.39029" data-paper-data="{&quot;index&quot;:null}" fill="none" stroke="#343434" stroke-width="1.5" stroke-linecap="round"/><path d="M227.56294,180c0,-6.8688 5.56825,-12.43706 12.43706,-12.43706c6.8688,0 12.43706,5.56825 12.43706,12.43706c0,6.8688 -5.56825,12.43706 -12.43706,12.43706c-6.8688,0 -12.43706,-5.56825 -12.43706,-12.43706z" fill="#7e7e7e" stroke="#343434" stroke-width="1.5" stroke-linecap="butt"/><path d="M240,168.35v23.3" fill="none" stroke="#343434" stroke-width="1.5" stroke-linecap="round"/><path d="M251.95,180h-23.9" fill="none" stroke="#343434" stroke-width="1.5" stroke-linecap="round"/><g stroke="none" stroke-width="0" stroke-linecap="butt"><path d="M229.35725,179.98378l10.66641,0.04979l-0.04978,10.6664z" fill="url(#color-1)"/><path d="M250.66774,179.96677l-10.66655,-0.00022l0.00022,-10.66653z" data-paper-data="{&quot;index&quot;:null}" fill="url(#color-2)"/><path d="M240.01493,190.63324l-0.00142,-10.66653l10.66653,-0.00142z" data-paper-data="{&quot;index&quot;:null}" fill="url(#color-3)"/><path d="M240.03778,169.38524l-0.05142,10.6664l-10.6664,-0.05144z" data-paper-data="{&quot;index&quot;:null}" fill="url(#color-4)"/></g><path d="M235.10546,180.03452l4.86003,-4.92906l4.92906,4.86003l-4.86003,4.92906z" fill="#7f7f7f" stroke-opacity="0.50196" stroke="#00ff15" stroke-width="2" stroke-linecap="butt"/><path d="M205.0625,214.9375v-69.875h69.875v69.875z" fill="none" stroke="none" stroke-width="0" stroke-linecap="butt"/></g></g></svg>