<svg version="1.1" xmlns="http://www.w3.org/2000/svg" xmlns:xlink="http://www.w3.org/1999/xlink" width="69.875" height="69.875" viewBox="0,0,69.875,69.875"><g transform="translate(-205.0625,-145.0625)"><g data-paper-data="{&quot;isPaintingLayer&quot;:true}" fill-rule="nonzero" stroke-linejoin="miter" stroke-miterlimit="10" stroke-dasharray="" stroke-dashoffset="0" style="mix-blend-mode: normal"><path d="M236.88878,173.26601c0,0 0.86143,2.29942 -0.4636,4.14324c-1.34275,1.86847 -3.46179,2.25387 -3.46179,2.25387" fill="none" stroke="#00b30f" stroke-width="2" stroke-linecap="round"/><path d="M241.28606,182.16016v-4.12683h6.61852v4.12683z" fill="#00b30f" stroke="none" stroke-width="0" stroke-linecap="butt"/><path d="M234.97051,180.04701c0,-2.67763 2.17064,-4.84826 4.84826,-4.84826c2.67763,0 4.84826,2.17064 4.84826,4.84826c0,2.67763 -2.17064,4.84826 -4.84826,4.84826c-2.67763,0 -4.84826,-2.17064 -4.84826,-4.84826z" fill="#00800b" stroke="#007f0b" stroke-width="0" stroke-linecap="butt"/><path d="M242.66072,180.025l-4.75,1.6v-3.25z" fill="#00b30f" stroke="#000000" stroke-width="0" stroke-linecap="round"/><path d="M231.95455,175.45152c0,-0.82006 0.66478,-1.48485 1.48484,-1.48485c0.82006,0 1.48485,0.6648 1.48485,1.48485c0,0.82006 -0.6648,1.48485 -1.48485,1.48485c-0.82006,0 -1.48484,-0.6648 -1.48484,-1.48485z" fill="#00800b" stroke="none" stroke-width="0" stroke-linecap="butt"/><path d="M205.0625,214.9375v-69.875h69.875v69.875z" fill="none" stroke="none" stroke-width="0" stroke-linecap="butt"/></g></g></svg>