<svg version="1.1" xmlns="http://www.w3.org/2000/svg" xmlns:xlink="http://www.w3.org/1999/xlink" width="69.875" height="69.875" viewBox="0,0,69.875,69.875"><defs><linearGradient x1="240.05167" y1="180.03112" x2="240.05167" y2="192.36746" gradientUnits="userSpaceOnUse" id="color-1"><stop offset="0" stop-color="#ff0000"/><stop offset="1" stop-color="#ff0000" stop-opacity="0"/></linearGradient><linearGradient x1="239.94833" y1="179.97994" x2="239.94833" y2="167.6436" gradientUnits="userSpaceOnUse" id="color-2"><stop offset="0" stop-color="#ff0000"/><stop offset="1" stop-color="#ff0000" stop-opacity="0"/></linearGradient><linearGradient x1="239.99125" y1="179.93541" x2="252.32948" y2="179.93541" gradientUnits="userSpaceOnUse" id="color-3"><stop offset="0" stop-color="#ff0000"/><stop offset="1" stop-color="#ff0000" stop-opacity="0"/></linearGradient><linearGradient x1="240.05821" y1="180.06458" x2="227.71998" y2="180.06458" gradientUnits="userSpaceOnUse" id="color-4"><stop offset="0" stop-color="#ff0000"/><stop offset="1" stop-color="#ff0000" stop-opacity="0"/></linearGradient></defs><g transform="translate(-205.0625,-145.0625)"><g data-paper-data="{&quot;isPaintingLayer&quot;:true}" fill-rule="nonzero" stroke-linejoin="miter" stroke-miterlimit="10" stroke-dasharray="" stroke-dashoffset="0" style="mix-blend-mode: normal"><g stroke="none" stroke-width="0" stroke-linecap="butt"><path d="M227.74392,192.31026l12.33635,-12.27915l12.27915,12.33635z" fill="url(#color-1)"/><path d="M252.25607,167.6436l-12.27915,12.33635l-12.33634,-12.27915z" data-paper-data="{&quot;index&quot;:null}" fill="url(#color-2)"/><path d="M252.32948,192.24315l-12.33824,-12.27725l12.27725,-12.33824z" data-paper-data="{&quot;index&quot;:null}" fill="url(#color-3)"/><path d="M227.78097,167.75685l12.27725,12.33824l-12.33824,12.27725z" data-paper-data="{&quot;index&quot;:null}" fill="url(#color-4)"/></g><path d="M231.67361,188.32639v-16.65278h16.65278v16.65278z" fill="#3f3f3f" stroke-opacity="0.50196" stroke="#990000" stroke-width="1.5" stroke-linecap="butt"/><path d="M205.0625,214.9375v-69.875h69.875v69.875z" fill="none" stroke="none" stroke-width="0" stroke-linecap="butt"/><path d="M240.02449,184.01994c0,0 -4.05813,-0.0515 -4.05813,-4.09211c0,-3.77166 4.05813,-3.9734 4.05813,-3.9734h11.2425v8.0655z" fill="#b30000" stroke="none" stroke-width="0" stroke-linecap="butt"/><path d="M251.20779,176.05384l0.06145,7.92308h-5.53043l2.6566,-2.07692l-2.7795,-1.84615l2.7795,-2.15385l-2.9024,-1.84615z" fill="#7f0000" stroke="#7f0000" stroke-width="0" stroke-linecap="round"/><path d="M239.95833,176.89167v1.91667" fill="none" stroke="#7f0000" stroke-width="1" stroke-linecap="round"/><path d="M239.95833,181.225v1.91667" fill="none" stroke="#7f0000" stroke-width="1" stroke-linecap="round"/><path d="M236.91667,180.01444l1.91666,0.00445" fill="none" stroke="#7f0000" stroke-width="1" stroke-linecap="round"/><path d="M243,180.01889l-1.91667,-0.00445" fill="none" stroke="#7f0000" stroke-width="1" stroke-linecap="round"/><path d="M237.44444,180c0,-1.41139 1.14416,-2.55556 2.55556,-2.55556c1.41139,0 2.55556,1.14416 2.55556,2.55556c0,1.41139 -1.14416,2.55556 -2.55556,2.55556c-1.41139,0 -2.55556,-1.14416 -2.55556,-2.55556z" fill="none" stroke="#7f0000" stroke-width="1" stroke-linecap="butt"/></g></g></svg>