<svg version="1.1" xmlns="http://www.w3.org/2000/svg" xmlns:xlink="http://www.w3.org/1999/xlink" width="69.875" height="69.875" viewBox="0,0,69.875,69.875"><defs><linearGradient x1="240.05167" y1="180.03112" x2="240.05167" y2="192.36746" gradientUnits="userSpaceOnUse" id="color-1"><stop offset="0" stop-color="#ffbb00"/><stop offset="1" stop-color="#ffbb00" stop-opacity="0"/></linearGradient><linearGradient x1="239.94833" y1="179.97994" x2="239.94833" y2="167.6436" gradientUnits="userSpaceOnUse" id="color-2"><stop offset="0" stop-color="#ffbb00"/><stop offset="1" stop-color="#ffbb00" stop-opacity="0"/></linearGradient><linearGradient x1="239.99125" y1="179.93541" x2="252.32948" y2="179.93541" gradientUnits="userSpaceOnUse" id="color-3"><stop offset="0" stop-color="#ffbb00"/><stop offset="1" stop-color="#ffbb00" stop-opacity="0"/></linearGradient><linearGradient x1="240.05821" y1="180.06458" x2="227.71998" y2="180.06458" gradientUnits="userSpaceOnUse" id="color-4"><stop offset="0" stop-color="#ffbb00"/><stop offset="1" stop-color="#ffbb00" stop-opacity="0"/></linearGradient></defs><g transform="translate(-205.0625,-145.0625)"><g data-paper-data="{&quot;isPaintingLayer&quot;:true}" fill-rule="nonzero" stroke-linejoin="miter" stroke-miterlimit="10" stroke-dasharray="" stroke-dashoffset="0" style="mix-blend-mode: normal"><g stroke="none" stroke-width="0" stroke-linecap="butt"><path d="M227.74392,192.31026l12.33635,-12.27915l12.27915,12.33635z" fill="url(#color-1)"/><path d="M252.25607,167.6436l-12.27915,12.33635l-12.33634,-12.27915z" data-paper-data="{&quot;index&quot;:null}" fill="url(#color-2)"/><path d="M252.32948,192.24315l-12.33824,-12.27725l12.27725,-12.33824z" data-paper-data="{&quot;index&quot;:null}" fill="url(#color-3)"/><path d="M227.78097,167.75685l12.27725,12.33824l-12.33824,12.27725z" data-paper-data="{&quot;index&quot;:null}" fill="url(#color-4)"/></g><path d="M231.67361,188.32639v-16.65278h16.65278v16.65278z" fill="#3f3f3f" stroke-opacity="0.50196" stroke="#ffbb00" stroke-width="1.5" stroke-linecap="butt"/><path d="M205.0625,214.9375v-69.875h69.875v69.875z" fill="none" stroke="none" stroke-width="0" stroke-linecap="butt"/><path d="M243.38144,181.56941v-3.07701h9.91029v3.07701z" fill="#b28000" stroke="none" stroke-width="0" stroke-linecap="butt"/><path d="M234.1459,183.91671v-7.65833h10.57313v7.65833z" fill="#e6a400" stroke="none" stroke-width="0" stroke-linecap="butt"/><path d="M237.26928,189.67885v-5.84615h3.46154v5.84615z" fill="#b28000" stroke="none" stroke-width="0" stroke-linecap="butt"/><path d="M237.73081,185.37115v-0.92308h2.53846v0.92308z" fill="#e6a400" stroke="none" stroke-width="0" stroke-linecap="butt"/><path d="M237.73081,187.14039v-0.92308h2.53846v0.92308z" fill="#e6a400" stroke="none" stroke-width="0" stroke-linecap="butt"/><path d="M237.73081,188.90962v-0.92308h2.53846v0.92308z" fill="#e6a400" stroke="none" stroke-width="0" stroke-linecap="butt"/><g fill="#b28000" stroke="#b28000" stroke-width="0"><path d="M237.31423,179.75792c0.15876,-0.31278 0.54102,-0.43763 0.8538,-0.27887c0.31278,0.15876 0.43763,0.54102 0.27887,0.8538c-0.15877,0.31278 -0.54103,0.43763 -0.8538,0.27887c-0.31278,-0.15876 -0.43763,-0.54102 -0.27887,-0.8538z" stroke-linecap="butt"/><path d="M235.76398,181.43859l1.13031,-0.80658c0,0 0.17329,0.34379 0.48026,0.48601c0.25252,0.11699 0.63249,0.05808 0.63249,0.05808l0.00587,1.40403c0,0 -0.66315,0.10112 -1.32791,-0.23631c-0.62013,-0.31477 -0.92103,-0.90522 -0.92103,-0.90522z" stroke-linecap="round"/><path d="M237.94254,178.91977c0,0 -0.33561,-0.00147 -0.62013,0.18157c-0.23405,0.15058 -0.41732,0.43869 -0.41732,0.43869l-1.18724,-0.70082c0,0 0.26982,-0.61415 0.91082,-0.99477c0.59797,-0.35506 1.25775,-0.29288 1.25775,-0.29288z" stroke-linecap="round"/><path d="M239.96683,181.34026l-1.16164,-0.71412c0,0 0.16338,-0.29987 0.16375,-0.63818c0.0003,-0.27831 -0.16112,-0.56873 -0.16112,-0.56873l1.25216,-0.59932c0,0 0.3699,0.55961 0.34237,1.30459c-0.02568,0.69497 -0.43552,1.21575 -0.43552,1.21575z" stroke-linecap="round"/></g></g></g></svg>