<svg version="1.1" xmlns="http://www.w3.org/2000/svg" xmlns:xlink="http://www.w3.org/1999/xlink" width="69.875" height="69.875" viewBox="0,0,69.875,69.875"><defs><linearGradient x1="240.05167" y1="180.03112" x2="240.05167" y2="192.36746" gradientUnits="userSpaceOnUse" id="color-1"><stop offset="0" stop-color="#ffbb00"/><stop offset="1" stop-color="#ffbb00" stop-opacity="0"/></linearGradient><linearGradient x1="239.94833" y1="179.97994" x2="239.94833" y2="167.6436" gradientUnits="userSpaceOnUse" id="color-2"><stop offset="0" stop-color="#ffbb00"/><stop offset="1" stop-color="#ffbb00" stop-opacity="0"/></linearGradient><linearGradient x1="239.99125" y1="179.93541" x2="252.32948" y2="179.93541" gradientUnits="userSpaceOnUse" id="color-3"><stop offset="0" stop-color="#ffbb00"/><stop offset="1" stop-color="#ffbb00" stop-opacity="0"/></linearGradient><linearGradient x1="240.05821" y1="180.06458" x2="227.71998" y2="180.06458" gradientUnits="userSpaceOnUse" id="color-4"><stop offset="0" stop-color="#ffbb00"/><stop offset="1" stop-color="#ffbb00" stop-opacity="0"/></linearGradient><linearGradient x1="243.95982" y1="175.29375" x2="259.24554" y2="175.29375" gradientUnits="userSpaceOnUse" id="color-5"><stop offset="0" stop-color="#e6a400" stop-opacity="0.8"/><stop offset="1" stop-color="#e6a400" stop-opacity="0"/></linearGradient></defs><g transform="translate(-205.0625,-145.0625)"><g data-paper-data="{&quot;isPaintingLayer&quot;:true}" fill-rule="nonzero" stroke-linecap="butt" stroke-linejoin="miter" stroke-miterlimit="10" stroke-dasharray="" stroke-dashoffset="0" style="mix-blend-mode: normal"><g stroke="none" stroke-width="0"><path d="M227.74392,192.31026l12.33635,-12.27915l12.27915,12.33635z" fill="url(#color-1)"/><path d="M252.25607,167.6436l-12.27915,12.33635l-12.33634,-12.27915z" data-paper-data="{&quot;index&quot;:null}" fill="url(#color-2)"/><path d="M252.32948,192.24315l-12.33824,-12.27725l12.27725,-12.33824z" data-paper-data="{&quot;index&quot;:null}" fill="url(#color-3)"/><path d="M227.78097,167.75685l12.27725,12.33824l-12.33824,12.27725z" data-paper-data="{&quot;index&quot;:null}" fill="url(#color-4)"/></g><path d="M231.67361,188.32639v-16.65278h16.65278v16.65278z" fill="#3f3f3f" stroke-opacity="0.50196" stroke="#ffbb00" stroke-width="1.5"/><path d="M205.0625,214.9375v-69.875h69.875v69.875z" fill="none" stroke="none" stroke-width="0"/><path d="M234.1459,183.91671v-7.65833h10.57313v7.65833z" fill="#e6a400" stroke="none" stroke-width="0"/><path d="M243.38144,181.56941v-3.07701h9.91029v3.07701z" fill="#e6a400" stroke="none" stroke-width="0"/><path d="M243.95982,175.79375v-1h15.28571v1z" fill="url(#color-5)" stroke="none" stroke-width="0"/><path d="M239.78125,176.29375v-2.125h4.25v2.125z" fill="#b28000" stroke="none" stroke-width="0"/><path d="M245.32143,183.76429v-7.28571h1.64286v7.28571z" fill="#e6a500" stroke="none" stroke-width="0"/><path d="M248.03572,182.97857v-5.78572h1.57143v5.78572z" fill="#e6a500" stroke="none" stroke-width="0"/><path d="M250.75,182.26429v-4.35714h1.5v4.35714z" fill="#e6a500" stroke="none" stroke-width="0"/></g></g></svg>