<svg version="1.1" xmlns="http://www.w3.org/2000/svg" xmlns:xlink="http://www.w3.org/1999/xlink" width="69.875" height="69.875" viewBox="0,0,69.875,69.875"><defs><linearGradient x1="240.05167" y1="180.03112" x2="240.05167" y2="192.36746" gradientUnits="userSpaceOnUse" id="color-1"><stop offset="0" stop-color="#00b3ff"/><stop offset="1" stop-color="#00b3ff" stop-opacity="0"/></linearGradient><linearGradient x1="239.94833" y1="179.97994" x2="239.94833" y2="167.6436" gradientUnits="userSpaceOnUse" id="color-2"><stop offset="0" stop-color="#00b3ff"/><stop offset="1" stop-color="#00b3ff" stop-opacity="0"/></linearGradient><linearGradient x1="239.99125" y1="179.93541" x2="252.32948" y2="179.93541" gradientUnits="userSpaceOnUse" id="color-3"><stop offset="0" stop-color="#00b3ff"/><stop offset="1" stop-color="#00b3ff" stop-opacity="0"/></linearGradient><linearGradient x1="240.05821" y1="180.06458" x2="227.71998" y2="180.06458" gradientUnits="userSpaceOnUse" id="color-4"><stop offset="0" stop-color="#00b3ff"/><stop offset="1" stop-color="#00b3ff" stop-opacity="0"/></linearGradient></defs><g transform="translate(-205.0625,-145.0625)"><g data-paper-data="{&quot;isPaintingLayer&quot;:true}" fill-rule="nonzero" stroke-linejoin="miter" stroke-miterlimit="10" stroke-dasharray="" stroke-dashoffset="0" style="mix-blend-mode: normal"><g stroke="none" stroke-width="0" stroke-linecap="butt"><path d="M227.74392,192.31026l12.33635,-12.27915l12.27915,12.33635z" fill="url(#color-1)"/><path d="M252.25607,167.6436l-12.27915,12.33635l-12.33634,-12.27915z" data-paper-data="{&quot;index&quot;:null}" fill="url(#color-2)"/><path d="M252.32948,192.24315l-12.33824,-12.27725l12.27725,-12.33824z" data-paper-data="{&quot;index&quot;:null}" fill="url(#color-3)"/><path d="M227.78097,167.75685l12.27725,12.33824l-12.33824,12.27725z" data-paper-data="{&quot;index&quot;:null}" fill="url(#color-4)"/></g><path d="M231.67361,188.32639v-16.65278h16.65278v16.65278z" fill="#3f3f3f" stroke-opacity="0.50196" stroke="#00b3ff" stroke-width="1.5" stroke-linecap="butt"/><path d="M237.37368,174.96866l5.37742,0.00511l2.96477,5.02993l-3.00387,4.99647l-5.49189,0.03117l-2.93589,-5.02254z" fill="#00a4e6" stroke="#000000" stroke-width="0" stroke-linecap="round"/><path d="M243.5672,181.9329v-3.74164h4.73208v3.74164z" fill="#00a4e6" stroke="none" stroke-width="0" stroke-linecap="butt"/><path d="M205.0625,214.9375v-69.875h69.875v69.875z" fill="none" stroke="none" stroke-width="0" stroke-linecap="butt"/></g></g></svg>