<svg version="1.1" xmlns="http://www.w3.org/2000/svg" xmlns:xlink="http://www.w3.org/1999/xlink" width="355.64422" height="266.33333" viewBox="0,0,355.64422,266.33333"><defs><linearGradient x1="124.33334" y1="128.33333" x2="122.11744" y2="126.08361" gradientUnits="userSpaceOnUse" id="color-1"><stop offset="0" stop-color="#8000ff" stop-opacity="0.34902"/><stop offset="1" stop-color="#8000ff" stop-opacity="0"/></linearGradient><linearGradient x1="124.33334" y1="128.33333" x2="126.54923" y2="130.58306" gradientUnits="userSpaceOnUse" id="color-2"><stop offset="0" stop-color="#8000ff" stop-opacity="0.34902"/><stop offset="1" stop-color="#8000ff" stop-opacity="0"/></linearGradient><linearGradient x1="124.33334" y1="128.33333" x2="122.07183" y2="130.53723" gradientUnits="userSpaceOnUse" id="color-3"><stop offset="0" stop-color="#8000ff" stop-opacity="0.34902"/><stop offset="1" stop-color="#8000ff" stop-opacity="0"/></linearGradient><linearGradient x1="124.33334" y1="128.33333" x2="126.59484" y2="126.12944" gradientUnits="userSpaceOnUse" id="color-4"><stop offset="0" stop-color="#8000ff" stop-opacity="0.34902"/><stop offset="1" stop-color="#8000ff" stop-opacity="0"/></linearGradient><radialGradient cx="124.33334" cy="128.33333" r="7.6532" gradientUnits="userSpaceOnUse" id="color-5"><stop offset="0" stop-color="#8000ff" stop-opacity="0.50196"/><stop offset="1" stop-color="#8000ff" stop-opacity="0"/></radialGradient></defs><g transform="translate(-62.17789,-46.83338)"><g data-paper-data="{&quot;isPaintingLayer&quot;:true}" fill-rule="nonzero" stroke-linecap="butt" stroke-linejoin="miter" stroke-miterlimit="10" stroke-dasharray="" stroke-dashoffset="0" style="mix-blend-mode: normal"><path d="M62.17789,313.16671v-266.33333h355.64422v266.33333z" fill="#4d4d4d" stroke="#333333" stroke-width="0"/><text transform="translate(73.83341,198.50499) scale(0.37501,0.37501)" font-size="40" xml:space="preserve" fill="#818181" fill-rule="nonzero" stroke="none" stroke-width="1" stroke-linecap="butt" stroke-linejoin="miter" stroke-miterlimit="10" stroke-dasharray="" stroke-dashoffset="0" font-family="Sans Serif" font-weight="normal" text-anchor="start" style="mix-blend-mode: normal"><tspan x="0" dy="0">装备着干扰炮的特殊敌人。速度极低。</tspan><tspan x="0" dy="48px">每30时间向75范围内最近的炮塔发射干扰光束，</tspan><tspan x="0" dy="48px">使那座炮塔在60时间内无法攻击。</tspan><tspan x="0" dy="48px"> 被冻结时干扰炮不起效。</tspan></text><text transform="translate(73.83341,77.67549) scale(0.52747,0.52747)" font-size="40" xml:space="preserve" fill="#818181" fill-rule="nonzero" stroke="#818181" stroke-width="0.5" stroke-linecap="butt" stroke-linejoin="miter" stroke-miterlimit="10" stroke-dasharray="" stroke-dashoffset="0" font-family="Sans Serif" font-weight="normal" text-anchor="start" style="mix-blend-mode: normal"><tspan x="0" dy="0">新敌人  Pur</tspan></text><path d="M91.5,161.50004v-66h66v66z" fill="#3f3f3f" stroke="none" stroke-width="0"/><text transform="translate(171.83341,111.66512) scale(0.445,0.445)" font-size="40" xml:space="preserve" fill="#818181" fill-rule="nonzero" stroke="none" stroke-width="1" stroke-linecap="butt" stroke-linejoin="miter" stroke-miterlimit="10" stroke-dasharray="" stroke-dashoffset="0" font-family="Sans Serif" font-weight="normal" text-anchor="start" style="mix-blend-mode: normal"><tspan x="0" dy="0">装甲：300</tspan><tspan x="0" dy="48px">速度：0.3</tspan><tspan x="0" dy="48px">掉落零件：10</tspan></text><g><path d="M104.31846,128.33333c0,-11.05389 8.96099,-20.01488 20.01488,-20.01488c11.05389,0 20.01488,8.96098 20.01488,20.01488c0,11.0539 -8.96098,20.01488 -20.01488,20.01488c-11.05389,0 -20.01488,-8.96098 -20.01488,-20.01488z" fill="#676767" stroke="#323232" stroke-width="1.5"/><path d="M107.76193,128.33333c0,-9.15211 7.41929,-16.5714 16.5714,-16.5714c9.15211,0 16.5714,7.41929 16.5714,16.5714c0,9.15212 -7.41929,16.5714 -16.5714,16.5714c-9.15211,0 -16.5714,-7.41929 -16.5714,-16.5714z" fill="#818181" stroke="#323232" stroke-width="1.5"/><g stroke="none" stroke-width="0"><path d="M133.48167,114.83285l2.21589,2.24972l-22.72843,22.50153l-2.21589,-2.24972z" fill="url(#color-1)"/><path d="M113.70774,140.33402l-1.47726,-1.49981l22.72845,-22.50153l1.47725,1.49981z" data-paper-data="{&quot;index&quot;:null}" fill-opacity="0.50196" fill="#8000ff"/><path d="M115.185,141.83382l-2.21589,-2.24972l22.72843,-22.50153l2.21589,2.24972z" data-paper-data="{&quot;index&quot;:null}" fill="url(#color-2)"/></g><g stroke="none" stroke-width="0"><path d="M111.06053,119.23812l2.2615,-2.2039l22.02262,22.5982l-2.2615,2.2039z" fill="url(#color-3)"/><path d="M136.09848,138.89781l-1.50767,1.46925l-22.02263,-22.59821l1.50767,-1.46926z" data-paper-data="{&quot;index&quot;:null}" fill-opacity="0.50196" fill="#8000ff"/><path d="M137.60614,137.42854l-2.2615,2.20389l-22.02262,-22.5982l2.2615,-2.20389z" data-paper-data="{&quot;index&quot;:null}" fill="url(#color-4)"/></g><path d="M117.1248,128.33333c0,-3.98115 3.22738,-7.20853 7.20854,-7.20853c3.98115,0 7.20853,3.22737 7.20853,7.20853c0,3.98115 -3.22737,7.20854 -7.20853,7.20854c-3.98115,0 -7.20854,-3.22738 -7.20854,-7.20854z" fill="#656565" stroke="#343434" stroke-width="1.5"/><path d="M116.68013,128.33333c0,-4.22675 3.42646,-7.65321 7.65321,-7.65321c4.22675,0 7.6532,3.42646 7.6532,7.65321c0,4.22675 -3.42646,7.65322 -7.6532,7.65322c-4.22675,0 -7.6532,-3.42647 -7.6532,-7.65322z" fill="url(#color-5)" stroke="none" stroke-width="0"/><path d="M121.68432,128.33333c0,-1.46301 1.18601,-2.64901 2.64902,-2.64901c1.46301,0 2.64901,1.186 2.64901,2.64901c0,1.46302 -1.186,2.64901 -2.64901,2.64901c-1.46301,0 -2.64902,-1.18601 -2.64902,-2.64901z" fill="#8000ff" stroke="none" stroke-width="0"/></g></g></g></svg>