<svg version="1.1" xmlns="http://www.w3.org/2000/svg" xmlns:xlink="http://www.w3.org/1999/xlink" width="355.64422" height="266.33333" viewBox="0,0,355.64422,266.33333"><g transform="translate(-62.17789,-46.83334)"><g data-paper-data="{&quot;isPaintingLayer&quot;:true}" fill-rule="nonzero" stroke-linecap="butt" stroke-linejoin="miter" stroke-miterlimit="10" stroke-dasharray="" stroke-dashoffset="0" style="mix-blend-mode: normal"><path d="M62.17789,313.16667v-266.33333h355.64422v266.33333z" fill="#4d4d4d" stroke="#333333" stroke-width="0"/><text transform="translate(73.83341,198.50494) scale(0.37501,0.37501)" font-size="40" xml:space="preserve" fill="#818181" fill-rule="nonzero" stroke="none" stroke-width="1" stroke-linecap="butt" stroke-linejoin="miter" stroke-miterlimit="10" stroke-dasharray="" stroke-dashoffset="0" font-family="Sans Serif" font-weight="normal" text-anchor="start" style="mix-blend-mode: normal"><tspan x="0" dy="0">最弱小的敌人。携带着最薄弱的装甲，但是速度</tspan><tspan x="0" dy="48px">很快。</tspan></text><text transform="translate(73.83341,77.67545) scale(0.52747,0.52747)" font-size="40" xml:space="preserve" fill="#818181" fill-rule="nonzero" stroke="#818181" stroke-width="0.5" stroke-linecap="butt" stroke-linejoin="miter" stroke-miterlimit="10" stroke-dasharray="" stroke-dashoffset="0" font-family="Sans Serif" font-weight="normal" text-anchor="start" style="mix-blend-mode: normal"><tspan x="0" dy="0">新敌人  N-1</tspan></text><path d="M91.5,161.5v-66h66v66z" fill="#3f3f3f" stroke="none" stroke-width="0"/><g fill="#999999" stroke-width="1.5"><path d="M112.77083,128.5c0,-6.47783 5.25134,-11.72917 11.72917,-11.72917c6.47783,0 11.72917,5.25134 11.72917,11.72917c0,6.47783 -5.25134,11.72917 -11.72917,11.72917c-6.47783,0 -11.72917,-5.25134 -11.72917,-11.72917z" stroke="#343434"/><path d="M116.82831,128.5c0,-4.23696 3.43473,-7.67169 7.67169,-7.67169c4.23696,0 7.67169,3.43473 7.67169,7.67169c0,4.23696 -3.43473,7.67169 -7.67169,7.67169c-4.23696,0 -7.67169,-3.43473 -7.67169,-7.67169z" stroke="#323232"/></g><text transform="translate(171.83341,111.66507) scale(0.445,0.445)" font-size="40" xml:space="preserve" fill="#818181" fill-rule="nonzero" stroke="none" stroke-width="1" stroke-linecap="butt" stroke-linejoin="miter" stroke-miterlimit="10" stroke-dasharray="" stroke-dashoffset="0" font-family="Sans Serif" font-weight="normal" text-anchor="start" style="mix-blend-mode: normal"><tspan x="0" dy="0">装甲：1</tspan><tspan x="0" dy="48px">速度：0.9</tspan><tspan x="0" dy="48px">掉落零件：1</tspan></text></g></g></svg>