<svg version="1.1" xmlns="http://www.w3.org/2000/svg" xmlns:xlink="http://www.w3.org/1999/xlink" width="355.64422" height="266.33333" viewBox="0,0,355.64422,266.33333"><defs><radialGradient cx="125" cy="128.5" r="15.15145" gradientUnits="userSpaceOnUse" id="color-1"><stop offset="0" stop-color="#ff0000"/><stop offset="1" stop-color="#ff0000" stop-opacity="0"/></radialGradient><radialGradient cx="125" cy="128.5" r="15.15145" gradientUnits="userSpaceOnUse" id="color-2"><stop offset="0" stop-color="#000000" stop-opacity="0"/><stop offset="1" stop-color="#000000" stop-opacity="0"/></radialGradient></defs><g transform="translate(-62.17789,-46.83337)"><g data-paper-data="{&quot;isPaintingLayer&quot;:true}" fill-rule="nonzero" stroke-linejoin="miter" stroke-miterlimit="10" stroke-dasharray="" stroke-dashoffset="0" style="mix-blend-mode: normal"><path d="M62.17789,313.1667v-266.33333h355.64422v266.33333z" fill="#4d4d4d" stroke="#333333" stroke-width="0" stroke-linecap="butt"/><text transform="translate(73.83341,198.50498) scale(0.37501,0.37501)" font-size="40" xml:space="preserve" fill="#818181" fill-rule="nonzero" stroke="none" stroke-width="1" stroke-linecap="butt" stroke-linejoin="miter" stroke-miterlimit="10" stroke-dasharray="" stroke-dashoffset="0" font-family="Sans Serif" font-weight="normal" text-anchor="start" style="mix-blend-mode: normal"><tspan x="0" dy="0">真正的钢铁巨兽。速度极低。</tspan><tspan x="0" dy="48px">击破后生成四个R-1。</tspan></text><text transform="translate(73.83341,77.67549) scale(0.52747,0.52747)" font-size="40" xml:space="preserve" fill="#818181" fill-rule="nonzero" stroke="#818181" stroke-width="0.5" stroke-linecap="butt" stroke-linejoin="miter" stroke-miterlimit="10" stroke-dasharray="" stroke-dashoffset="0" font-family="Sans Serif" font-weight="normal" text-anchor="start" style="mix-blend-mode: normal"><tspan x="0" dy="0">新敌人  R-2</tspan></text><path d="M91.5,161.50003v-66h66v66z" fill="#3f3f3f" stroke="none" stroke-width="0" stroke-linecap="butt"/><text transform="translate(171.83341,111.66511) scale(0.445,0.445)" font-size="40" xml:space="preserve" fill="#818181" fill-rule="nonzero" stroke="none" stroke-width="1" stroke-linecap="butt" stroke-linejoin="miter" stroke-miterlimit="10" stroke-dasharray="" stroke-dashoffset="0" font-family="Sans Serif" font-weight="normal" text-anchor="start" style="mix-blend-mode: normal"><tspan x="0" dy="0">装甲：450</tspan><tspan x="0" dy="48px">速度：0.2</tspan><tspan x="0" dy="48px">掉落零件：30</tspan></text><g><path d="M101.1875,128.5c0,-13.15126 10.66124,-23.8125 23.8125,-23.8125c13.15126,0 23.8125,10.66124 23.8125,23.8125c0,13.15126 -10.66124,23.8125 -23.8125,23.8125c-13.15126,0 -23.8125,-10.66124 -23.8125,-23.8125z" fill="#676767" stroke="#323232" stroke-width="2" stroke-linecap="butt"/><path d="M109.10176,112.60176l31.79648,31.79648" fill="none" stroke="#323232" stroke-width="2" stroke-linecap="round"/><path d="M140.89824,112.60176l-31.79648,31.79648" data-paper-data="{&quot;index&quot;:null}" fill="none" stroke="#323232" stroke-width="2" stroke-linecap="round"/><path d="M148,128.5h-46" fill="none" stroke="#323232" stroke-width="2" stroke-linecap="round"/><path d="M125,106v45" fill="none" stroke="#323232" stroke-width="2" stroke-linecap="round"/><path d="M109.42496,128.5c0,-8.60185 6.97317,-15.57504 15.57504,-15.57504c8.60185,0 15.57504,6.97317 15.57504,15.57504c0,8.60185 -6.97317,15.57504 -15.57504,15.57504c-8.60185,0 -15.57504,-6.97317 -15.57504,-15.57504z" fill="#808080" stroke="#323232" stroke-width="2" stroke-linecap="butt"/><path d="M109.84855,128.5c0,-8.3679 6.78353,-15.15142 15.15145,-15.15142c8.3679,0 15.15145,6.78351 15.15145,15.15142c0,8.3679 -6.78355,15.15142 -15.15145,15.15142c-8.3679,0 -15.15145,-6.78351 -15.15145,-15.15142z" fill="url(#color-1)" stroke="url(#color-2)" stroke-width="0" stroke-linecap="butt"/><path d="M114.42722,128.5c0,-5.83918 4.73361,-10.57279 10.57279,-10.57279c5.83918,0 10.57279,4.73361 10.57279,10.57279c0,5.83918 -4.73361,10.57279 -10.57279,10.57279c-5.83918,0 -10.57279,-4.73361 -10.57279,-10.57279z" fill="#808080" stroke-opacity="0.50196" stroke="#ff0000" stroke-width="2" stroke-linecap="butt"/><path d="M118.63746,128.5c0,-3.51392 2.8486,-6.36254 6.36254,-6.36254c3.51392,0 6.36254,2.8486 6.36254,6.36254c0,3.51392 -2.8486,6.36254 -6.36254,6.36254c-3.51392,0 -6.36254,-2.8486 -6.36254,-6.36254z" fill="#676767" stroke="#323232" stroke-width="2" stroke-linecap="butt"/></g></g></g></svg>