<svg version="1.1" xmlns="http://www.w3.org/2000/svg" xmlns:xlink="http://www.w3.org/1999/xlink" width="355.64422" height="266.33333" viewBox="0,0,355.64422,266.33333"><g transform="translate(-62.17789,-46.83335)"><g data-paper-data="{&quot;isPaintingLayer&quot;:true}" fill-rule="nonzero" stroke-linecap="butt" stroke-linejoin="miter" stroke-miterlimit="10" stroke-dasharray="" stroke-dashoffset="0" style="mix-blend-mode: normal"><path d="M62.17789,313.16668v-266.33333h355.64422v266.33333z" fill="#4d4d4d" stroke="#333333" stroke-width="0"/><text transform="translate(73.83341,198.50495) scale(0.37501,0.37501)" font-size="40" xml:space="preserve" fill="#818181" fill-rule="nonzero" stroke="none" stroke-width="1" stroke-linecap="butt" stroke-linejoin="miter" stroke-miterlimit="10" stroke-dasharray="" stroke-dashoffset="0" font-family="Sans Serif" font-weight="normal" text-anchor="start" style="mix-blend-mode: normal"><tspan x="0" dy="0">携带着N-1五倍的装甲，速度略低。</tspan></text><text transform="translate(73.83341,77.67546) scale(0.52747,0.52747)" font-size="40" xml:space="preserve" fill="#818181" fill-rule="nonzero" stroke="#818181" stroke-width="0.5" stroke-linecap="butt" stroke-linejoin="miter" stroke-miterlimit="10" stroke-dasharray="" stroke-dashoffset="0" font-family="Sans Serif" font-weight="normal" text-anchor="start" style="mix-blend-mode: normal"><tspan x="0" dy="0">新敌人  N-3</tspan></text><path d="M91.5,161.50001v-66h66v66z" fill="#3f3f3f" stroke="none" stroke-width="0"/><text transform="translate(171.83341,111.66508) scale(0.445,0.445)" font-size="40" xml:space="preserve" fill="#818181" fill-rule="nonzero" stroke="none" stroke-width="1" stroke-linecap="butt" stroke-linejoin="miter" stroke-miterlimit="10" stroke-dasharray="" stroke-dashoffset="0" font-family="Sans Serif" font-weight="normal" text-anchor="start" style="mix-blend-mode: normal"><tspan x="0" dy="0">装甲：5</tspan><tspan x="0" dy="48px">速度：0.7</tspan><tspan x="0" dy="48px">掉落零件：1</tspan></text><g fill="#656565" stroke-width="1.5"><path d="M109.77083,128.75c0,-7.99661 6.48256,-14.47917 14.47917,-14.47917c7.99661,0 14.47917,6.48256 14.47917,14.47917c0,7.99661 -6.48256,14.47917 -14.47917,14.47917c-7.99661,0 -14.47917,-6.48256 -14.47917,-14.47917z" stroke="#343434"/><path d="M114.77962,128.75c0,-5.23035 4.24003,-9.47038 9.47038,-9.47038c5.23035,0 9.47038,4.24003 9.47038,9.47038c0,5.23035 -4.24003,9.47038 -9.47038,9.47038c-5.23035,0 -9.47038,-4.24003 -9.47038,-9.47038z" stroke="#323232"/></g></g></g></svg>