<svg version="1.1" xmlns="http://www.w3.org/2000/svg" xmlns:xlink="http://www.w3.org/1999/xlink" width="355.64422" height="266.33333" viewBox="0,0,355.64422,266.33333"><defs><linearGradient x1="124.51189" y1="128.52226" x2="118.87195" y2="134.13583" gradientUnits="userSpaceOnUse" id="color-1"><stop offset="0" stop-color="#00ff19"/><stop offset="1" stop-color="#00ff19" stop-opacity="0"/></linearGradient><linearGradient x1="124.48826" y1="128.45172" x2="130.12822" y2="122.83815" gradientUnits="userSpaceOnUse" id="color-2"><stop offset="0" stop-color="#00ff19"/><stop offset="1" stop-color="#00ff19" stop-opacity="0"/></linearGradient><linearGradient x1="124.52817" y1="128.45108" x2="130.14258" y2="134.09192" gradientUnits="userSpaceOnUse" id="color-3"><stop offset="0" stop-color="#00ff19"/><stop offset="1" stop-color="#00ff19" stop-opacity="0"/></linearGradient><linearGradient x1="124.49958" y1="128.54047" x2="118.88514" y2="122.89966" gradientUnits="userSpaceOnUse" id="color-4"><stop offset="0" stop-color="#00ff19"/><stop offset="1" stop-color="#00ff19" stop-opacity="0"/></linearGradient></defs><g transform="translate(-62.17789,-46.83337)"><g data-paper-data="{&quot;isPaintingLayer&quot;:true}" fill-rule="nonzero" stroke-linejoin="miter" stroke-miterlimit="10" stroke-dasharray="" stroke-dashoffset="0" style="mix-blend-mode: normal"><path d="M62.17789,313.1667v-266.33333h355.64422v266.33333z" fill="#4d4d4d" stroke="#333333" stroke-width="0" stroke-linecap="butt"/><text transform="translate(73.83341,198.50499) scale(0.37501,0.37501)" font-size="40" xml:space="preserve" fill="#818181" fill-rule="nonzero" stroke="none" stroke-width="1" stroke-linecap="butt" stroke-linejoin="miter" stroke-miterlimit="10" stroke-dasharray="" stroke-dashoffset="0" font-family="Sans Serif" font-weight="normal" text-anchor="start" style="mix-blend-mode: normal"><tspan x="0" dy="0">镶嵌着再生结晶的特殊敌人。速度极低。</tspan><tspan x="0" dy="48px">每2时间回复1装甲。</tspan><tspan x="0" dy="48px">被冰冻或冻结时再生结晶不起效。</tspan></text><text transform="translate(73.83341,77.67548) scale(0.52747,0.52747)" font-size="40" xml:space="preserve" fill="#818181" fill-rule="nonzero" stroke="#818181" stroke-width="0.5" stroke-linecap="butt" stroke-linejoin="miter" stroke-miterlimit="10" stroke-dasharray="" stroke-dashoffset="0" font-family="Sans Serif" font-weight="normal" text-anchor="start" style="mix-blend-mode: normal"><tspan x="0" dy="0">新敌人  G-2</tspan></text><path d="M91.5,161.50005v-66h66v66z" fill="#3f3f3f" stroke="none" stroke-width="0" stroke-linecap="butt"/><text transform="translate(171.83341,111.66512) scale(0.445,0.445)" font-size="40" xml:space="preserve" fill="#818181" fill-rule="nonzero" stroke="none" stroke-width="1" stroke-linecap="butt" stroke-linejoin="miter" stroke-miterlimit="10" stroke-dasharray="" stroke-dashoffset="0" font-family="Sans Serif" font-weight="normal" text-anchor="start" style="mix-blend-mode: normal"><tspan x="0" dy="0">装甲：150</tspan><tspan x="0" dy="48px">速度：0.3</tspan><tspan x="0" dy="48px">掉落零件：10</tspan></text><g><path d="M104.48512,128.5c0,-11.05389 8.96099,-20.01488 20.01488,-20.01488c11.05389,0 20.01488,8.96099 20.01488,20.01488c0,11.05389 -8.96099,20.01488 -20.01488,20.01488c-11.05389,0 -20.01488,-8.96099 -20.01488,-20.01488z" fill="#676767" stroke="#343434" stroke-width="1.5" stroke-linecap="butt"/><path d="M137.86278,141.86278l-26.72558,-26.72558" fill="none" stroke="#343434" stroke-width="1.5" stroke-linecap="round"/><path d="M137.86279,115.13721l-26.72558,26.72558" data-paper-data="{&quot;index&quot;:null}" fill="none" stroke="#343434" stroke-width="1.5" stroke-linecap="round"/><path d="M111.40887,128.5c0,-7.23003 5.86109,-13.09113 13.09113,-13.09113c7.23003,0 13.09113,5.86109 13.09113,13.09113c0,7.23003 -5.86109,13.09113 -13.09113,13.09113c-7.23003,0 -13.09113,-5.86109 -13.09113,-13.09113z" fill="#7e7e7e" stroke="#343434" stroke-width="1.5" stroke-linecap="butt"/><path d="M124.5,116.23732v24.52536" fill="none" stroke="#343434" stroke-width="1.5" stroke-linecap="round"/><path d="M137.07845,128.5h-25.15691" fill="none" stroke="#343434" stroke-width="1.5" stroke-linecap="round"/><g stroke="none" stroke-width="0" stroke-linecap="butt"><path d="M113.29754,128.48294l11.22736,0.05241l-0.0524,11.22735z" fill="url(#color-1)"/><path d="M135.72876,128.46504l-11.22751,-0.00023l0.00023,-11.22749z" data-paper-data="{&quot;index&quot;:null}" fill="url(#color-2)"/><path d="M124.51572,139.69243l-0.00149,-11.22749l11.22749,-0.00149z" data-paper-data="{&quot;index&quot;:null}" fill="url(#color-3)"/><path d="M124.53977,117.327l-0.05412,11.22735l-11.22735,-0.05415z" data-paper-data="{&quot;index&quot;:null}" fill="url(#color-4)"/></g><path d="M119.34805,128.53633l5.11562,-5.18828l5.18828,5.11562l-5.11562,5.18828z" fill="#7f7f7f" stroke-opacity="0.50196" stroke="#00ff15" stroke-width="2" stroke-linecap="butt"/></g></g></g></svg>