<svg version="1.1" xmlns="http://www.w3.org/2000/svg" xmlns:xlink="http://www.w3.org/1999/xlink" width="355.64422" height="266.33333" viewBox="0,0,355.64422,266.33333"><defs><radialGradient cx="124.75" cy="128.75" r="14.21653" gradientUnits="userSpaceOnUse" id="color-1"><stop offset="0" stop-color="#006aff"/><stop offset="1" stop-color="#006aff" stop-opacity="0"/></radialGradient><radialGradient cx="124.75" cy="128.75" r="14.21653" gradientUnits="userSpaceOnUse" id="color-2"><stop offset="0" stop-color="#000000" stop-opacity="0"/><stop offset="1" stop-color="#000000" stop-opacity="0"/></radialGradient></defs><g transform="translate(-62.17789,-46.83338)"><g data-paper-data="{&quot;isPaintingLayer&quot;:true}" fill-rule="nonzero" stroke-linecap="butt" stroke-linejoin="miter" stroke-miterlimit="10" stroke-dasharray="" stroke-dashoffset="0" style="mix-blend-mode: normal"><path d="M62.17789,313.16671v-266.33333h355.64422v266.33333z" fill="#4d4d4d" stroke="#333333" stroke-width="0"/><text transform="translate(73.83341,198.50499) scale(0.37501,0.37501)" font-size="40" xml:space="preserve" fill="#818181" fill-rule="nonzero" stroke="none" stroke-width="1" stroke-linecap="butt" stroke-linejoin="miter" stroke-miterlimit="10" stroke-dasharray="" stroke-dashoffset="0" font-family="Sans Serif" font-weight="normal" text-anchor="start" style="mix-blend-mode: normal"><tspan x="0" dy="0">装备着隐形装置的特殊敌人。速度极高。</tspan><tspan x="0" dy="48px">免疫第一次受到的伤害，并进入隐形状态，</tspan><tspan x="0" dy="48px">持续120时间。隐形状态下不会被瞄准，命中和</tspan><tspan x="0" dy="48px">被物理攻击伤害。</tspan></text><text transform="translate(73.83341,77.67549) scale(0.52747,0.52747)" font-size="40" xml:space="preserve" fill="#818181" fill-rule="nonzero" stroke="#818181" stroke-width="0.5" stroke-linecap="butt" stroke-linejoin="miter" stroke-miterlimit="10" stroke-dasharray="" stroke-dashoffset="0" font-family="Sans Serif" font-weight="normal" text-anchor="start" style="mix-blend-mode: normal"><tspan x="0" dy="0">新敌人  Blu</tspan></text><path d="M91.5,161.50004v-66h66v66z" fill="#3f3f3f" stroke="none" stroke-width="0"/><text transform="translate(171.83341,111.66512) scale(0.445,0.445)" font-size="40" xml:space="preserve" fill="#818181" fill-rule="nonzero" stroke="none" stroke-width="1" stroke-linecap="butt" stroke-linejoin="miter" stroke-miterlimit="10" stroke-dasharray="" stroke-dashoffset="0" font-family="Sans Serif" font-weight="normal" text-anchor="start" style="mix-blend-mode: normal"><tspan x="0" dy="0">装甲：1</tspan><tspan x="0" dy="48px">速度：2</tspan><tspan x="0" dy="48px">掉落零件：5</tspan></text><g><path d="M110.53347,128.75c0,-7.85158 6.36495,-14.21653 14.21653,-14.21653c7.85159,0 14.21653,6.36495 14.21653,14.21653c0,7.85159 -6.36498,14.21653 -14.21653,14.21653c-7.85158,0 -14.21653,-6.36495 -14.21653,-14.21653z" fill="url(#color-1)" stroke="url(#color-2)" stroke-width="0"/><path d="M115.27386,128.75c0,-5.23352 4.24262,-9.47614 9.47614,-9.47614c5.23352,0 9.47614,4.24262 9.47614,9.47614c0,5.23352 -4.24262,9.47614 -9.47614,9.47614c-5.23352,0 -9.47614,-4.24262 -9.47614,-9.47614z" fill="#7f7f7f" stroke-opacity="0.50196" stroke="#006aff" stroke-width="2.5"/><path d="M121.13294,128.75c0,-1.99764 1.61941,-3.61706 3.61706,-3.61706c1.99764,0 3.61706,1.61941 3.61706,3.61706c0,1.99764 -1.61941,3.61706 -3.61706,3.61706c-1.99764,0 -3.61706,-1.61941 -3.61706,-3.61706z" fill="#9a9a9a" stroke="#343434" stroke-width="1.5"/></g></g></g></svg>