<svg version="1.1" xmlns="http://www.w3.org/2000/svg" xmlns:xlink="http://www.w3.org/1999/xlink" width="355.64422" height="266.33333" viewBox="0,0,355.64422,266.33333"><defs><radialGradient cx="124.75" cy="128.25" r="15.67911" gradientUnits="userSpaceOnUse" id="color-1"><stop offset="0" stop-color="#ffea00"/><stop offset="1" stop-color="#ffea00" stop-opacity="0"/></radialGradient><radialGradient cx="124.75" cy="128.25" r="15.67911" gradientUnits="userSpaceOnUse" id="color-2"><stop offset="0" stop-color="#000000" stop-opacity="0"/><stop offset="1" stop-color="#000000" stop-opacity="0"/></radialGradient></defs><g transform="translate(-62.17789,-46.83338)"><g data-paper-data="{&quot;isPaintingLayer&quot;:true}" fill-rule="nonzero" stroke-linejoin="miter" stroke-miterlimit="10" stroke-dasharray="" stroke-dashoffset="0" style="mix-blend-mode: normal"><path d="M62.17789,313.16671v-266.33333h355.64422v266.33333z" fill="#4d4d4d" stroke="#333333" stroke-width="0" stroke-linecap="butt"/><text transform="translate(73.83341,198.50499) scale(0.37501,0.37501)" font-size="40" xml:space="preserve" fill="#818181" fill-rule="nonzero" stroke="none" stroke-width="1" stroke-linecap="butt" stroke-linejoin="miter" stroke-miterlimit="10" stroke-dasharray="" stroke-dashoffset="0" font-family="Sans Serif" font-weight="normal" text-anchor="start" style="mix-blend-mode: normal"><tspan x="0" dy="0">装备着吸收盾的特殊敌人。速度较低。</tspan><tspan x="0" dy="48px">免疫1点伤害。不免疫火焰伤害。</tspan></text><text transform="translate(73.83341,77.67549) scale(0.52747,0.52747)" font-size="40" xml:space="preserve" fill="#818181" fill-rule="nonzero" stroke="#818181" stroke-width="0.5" stroke-linecap="butt" stroke-linejoin="miter" stroke-miterlimit="10" stroke-dasharray="" stroke-dashoffset="0" font-family="Sans Serif" font-weight="normal" text-anchor="start" style="mix-blend-mode: normal"><tspan x="0" dy="0">新敌人  Y-1</tspan></text><path d="M91.5,161.50004v-66h66v66z" fill="#3f3f3f" stroke="none" stroke-width="0" stroke-linecap="butt"/><text transform="translate(171.83341,111.66512) scale(0.445,0.445)" font-size="40" xml:space="preserve" fill="#818181" fill-rule="nonzero" stroke="none" stroke-width="1" stroke-linecap="butt" stroke-linejoin="miter" stroke-miterlimit="10" stroke-dasharray="" stroke-dashoffset="0" font-family="Sans Serif" font-weight="normal" text-anchor="start" style="mix-blend-mode: normal"><tspan x="0" dy="0">装甲：5</tspan><tspan x="0" dy="48px">速度：0.6</tspan><tspan x="0" dy="48px">掉落零件：5</tspan></text><g><path d="M108.02083,128.25c0,-9.23925 7.48993,-16.72917 16.72917,-16.72917c9.23924,0 16.72917,7.48992 16.72917,16.72917c0,9.23925 -7.48993,16.72917 -16.72917,16.72917c-9.23925,0 -16.72917,-7.48992 -16.72917,-16.72917z" fill="#808080" stroke="#343434" stroke-width="1.5" stroke-linecap="butt"/><path d="M124.75,144.57473v-32.64945" fill="none" stroke="#343434" stroke-width="1.5" stroke-linecap="round"/><path d="M109.04297,128.25h31.41406" fill="none" stroke="#343434" stroke-width="1.5" stroke-linecap="round"/><path d="M109.07089,128.25c0,-8.65934 7.01977,-15.6791 15.67911,-15.6791c8.65934,0 15.67911,7.01977 15.67911,15.6791c0,8.65934 -7.01981,15.67909 -15.67911,15.67909c-8.65934,0 -15.67911,-7.01977 -15.67911,-15.67909z" fill="url(#color-1)" stroke="url(#color-2)" stroke-width="0" stroke-linecap="butt"/><path d="M113.45637,128.25c0,-6.23729 5.05634,-11.29363 11.29363,-11.29363c6.23729,0 11.29363,5.05634 11.29363,11.29363c0,6.23729 -5.05634,11.29363 -11.29363,11.29363c-6.2373,0 -11.29363,-5.05634 -11.29363,-11.29363z" fill="#989898" stroke-opacity="0.50196" stroke="#ffde00" stroke-width="1.5" stroke-linecap="butt"/><path d="M119.48485,128.25c0,-2.90786 2.35729,-5.26515 5.26516,-5.26515c2.90786,0 5.26515,2.35729 5.26515,5.26515c0,2.90786 -2.35729,5.26515 -5.26515,5.26515c-2.90787,0 -5.26516,-2.35729 -5.26516,-5.26515z" fill="#808080" stroke="#343434" stroke-width="1.5" stroke-linecap="butt"/></g></g></g></svg>