<svg version="1.1" xmlns="http://www.w3.org/2000/svg" xmlns:xlink="http://www.w3.org/1999/xlink" width="355.64422" height="266.33333" viewBox="0,0,355.64422,266.33333"><defs><radialGradient cx="124" cy="128.50003" r="9.40176" gradientUnits="userSpaceOnUse" id="color-1"><stop offset="0" stop-color="#ff0000"/><stop offset="1" stop-color="#ff0000" stop-opacity="0"/></radialGradient><radialGradient cx="124" cy="128.50003" r="9.40176" gradientUnits="userSpaceOnUse" id="color-2"><stop offset="0" stop-color="#000000" stop-opacity="0"/><stop offset="1" stop-color="#000000" stop-opacity="0"/></radialGradient></defs><g transform="translate(-62.17789,-46.83335)"><g data-paper-data="{&quot;isPaintingLayer&quot;:true}" fill-rule="nonzero" stroke-linejoin="miter" stroke-miterlimit="10" stroke-dasharray="" stroke-dashoffset="0" style="mix-blend-mode: normal"><path d="M62.17789,313.16668v-266.33333h355.64422v266.33333z" fill="#4d4d4d" stroke="#333333" stroke-width="0" stroke-linecap="butt"/><text transform="translate(73.83341,198.50497) scale(0.37501,0.37501)" font-size="40" xml:space="preserve" fill="#818181" fill-rule="nonzero" stroke="none" stroke-width="1" stroke-linecap="butt" stroke-linejoin="miter" stroke-miterlimit="10" stroke-dasharray="" stroke-dashoffset="0" font-family="Sans Serif" font-weight="normal" text-anchor="start" style="mix-blend-mode: normal"><tspan x="0" dy="0">携带着极厚的装甲，速度较低。</tspan><tspan x="0" dy="48px">击破后生成四个N-3。</tspan></text><text transform="translate(73.83341,77.67548) scale(0.52747,0.52747)" font-size="40" xml:space="preserve" fill="#818181" fill-rule="nonzero" stroke="#818181" stroke-width="0.5" stroke-linecap="butt" stroke-linejoin="miter" stroke-miterlimit="10" stroke-dasharray="" stroke-dashoffset="0" font-family="Sans Serif" font-weight="normal" text-anchor="start" style="mix-blend-mode: normal"><tspan x="0" dy="0">新敌人  R-1</tspan></text><path d="M91.5,161.50001v-66h66v66z" fill="#3f3f3f" stroke="none" stroke-width="0" stroke-linecap="butt"/><text transform="translate(171.83341,111.6651) scale(0.445,0.445)" font-size="40" xml:space="preserve" fill="#818181" fill-rule="nonzero" stroke="none" stroke-width="1" stroke-linecap="butt" stroke-linejoin="miter" stroke-miterlimit="10" stroke-dasharray="" stroke-dashoffset="0" font-family="Sans Serif" font-weight="normal" text-anchor="start" style="mix-blend-mode: normal"><tspan x="0" dy="0">装甲：30</tspan><tspan x="0" dy="48px">速度：0.5</tspan><tspan x="0" dy="48px">掉落零件：10</tspan></text><g><path d="M105.27083,128.50003c0,-10.34382 8.38535,-18.72917 18.72917,-18.72917c10.34382,0 18.72917,8.38535 18.72917,18.72917c0,10.34382 -8.38536,18.72917 -18.72917,18.72917c-10.34382,0 -18.72917,-8.38536 -18.72917,-18.72917z" fill="#808080" stroke="#343434" stroke-width="2" stroke-linecap="butt"/><path d="M111.49561,115.99564l25.00878,25.00878" fill="none" stroke="#343434" stroke-width="2" stroke-linecap="round"/><path d="M111.49561,141.00442l25.00878,-25.00878" data-paper-data="{&quot;index&quot;:null}" fill="none" stroke="#343434" stroke-width="2" stroke-linecap="round"/><path d="M111.74982,128.50003c0,-6.76558 5.48459,-12.25018 12.25018,-12.25018c6.76558,0 12.25018,5.48459 12.25018,12.25018c0,6.76558 -5.48459,12.25018 -12.25018,12.25018c-6.76558,0 -12.25018,-5.48459 -12.25018,-12.25018z" fill="#9a9a9a" stroke="#343434" stroke-width="2" stroke-linecap="butt"/><path d="M114.59824,128.50003c0,-5.19244 4.20931,-9.40175 9.40176,-9.40175c5.19244,0 9.40176,4.20931 9.40176,9.40175c0,5.19244 -4.20933,9.40175 -9.40176,9.40175c-5.19244,0 -9.40176,-4.20931 -9.40176,-9.40175z" fill="url(#color-1)" stroke="url(#color-2)" stroke-width="0" stroke-linecap="butt"/><path d="M119.18839,128.50003c0,-2.90688 2.3565,-5.26337 5.26337,-5.26337c2.90688,0 5.26337,2.3565 5.26337,5.26337c0,2.90688 -2.3565,5.26337 -5.26337,5.26337c-2.90688,0 -5.26337,-2.3565 -5.26337,-5.26337z" fill="#9a9a9a" stroke-opacity="0.50196" stroke="#ff0000" stroke-width="2" stroke-linecap="butt"/></g></g></g></svg>