<svg version="1.1" xmlns="http://www.w3.org/2000/svg" xmlns:xlink="http://www.w3.org/1999/xlink" width="367.06452" height="73.02166" viewBox="0,0,367.06452,73.02166"><g transform="translate(-59.43548,-38.40334)"><g data-paper-data="{&quot;isPaintingLayer&quot;:true}" fill-rule="nonzero" stroke-linejoin="miter" stroke-miterlimit="10" stroke-dasharray="" stroke-dashoffset="0" style="mix-blend-mode: normal"><path d="M402.25,66.425l0.25,43.25h10.25v-32.5h12v-10.5z" fill="#595959" stroke-opacity="0.50196" stroke="#7ec7ff" stroke-width="3.5" stroke-linecap="round"/><path d="M350.125,66.34167l42.25,0.25v26.5l-26.5,-0.25v-10.25h16v-5.25h-21.25v21l31.75,0.25v10.75l-42,-0.25z" fill="#595959" stroke-opacity="0.50196" stroke="#990000" stroke-width="3.5" stroke-linecap="round"/><path d="M297.125,66.34167l0.25,42l43,0.25v-42h-10.75l0.25,31.5h-5.75l-0.25,-31.5h-10.75v31.25h-5.5v-31.5z" fill="#595959" stroke-opacity="0.50196" stroke="#00b3ff" stroke-width="3.5" stroke-linecap="round"/><path d="M287.3,66.24v42.5l-43.2,-0.2v-42.35l27.45,0.05v10.9h-17.05v20.8l22.2,0.2v-31.9z" fill="#595959" stroke-opacity="0.50196" stroke="#ffbb00" stroke-width="3.5" stroke-linecap="round"/><path d="M187.3,48.14h54.2l0.2,10.4l-21.8,0.2l0.2,50.8h-11.2v-50.8h-21.8z" fill="#595959" stroke-opacity="0.50196" stroke="#00ff15" stroke-width="3.5" stroke-linecap="round"/><path d="M60.64042,52.2915v-12.88815h60.72305v12.88816z" fill="#676767" stroke="#333333" stroke-width="2" stroke-linecap="butt"/><path d="M60.43652,46.39016l12.88815,-0.01428l0.06505,62.78961l-12.88815,0.01427z" fill="#676767" stroke="#333333" stroke-width="2" stroke-linecap="butt"/><path d="M67.17937,109.00151v-12.88815h35.15399v12.88816z" fill="#676767" stroke="#333333" stroke-width="2" stroke-linecap="butt"/><path d="M91.62156,79.02236v-12.88815h29.98975v12.88816z" fill="#7f7f7f" stroke="#333333" stroke-width="2" stroke-linecap="butt"/><path d="M108.56671,73.22038l12.88815,-0.00812l0.06505,35.71152l-12.88815,0.00811z" fill="#7f7f7f" stroke="#333333" stroke-width="2" stroke-linecap="butt"/><path d="M115.28337,108.80111v-12.88815h39.02091v12.88816z" fill="#7f7f7f" stroke="#333333" stroke-width="2" stroke-linecap="butt"/><path d="M141.2828,66.0088l12.88815,-0.0054l0.06505,23.72716l-12.88815,0.00539z" fill="#9a9a9a" stroke="#333333" stroke-width="2" stroke-linecap="butt"/><path d="M147.59299,79.02236v-12.88815h35.73277v12.88816z" fill="#9a9a9a" stroke="#333333" stroke-width="2" stroke-linecap="butt"/><path d="M170.529,72.98331l12.88815,-0.00826l0.06504,36.30198l-12.88815,0.00825z" fill="#9a9a9a" stroke="#333333" stroke-width="2" stroke-linecap="butt"/></g></g></svg>