<svg version="1.1" xmlns="http://www.w3.org/2000/svg" xmlns:xlink="http://www.w3.org/1999/xlink" width="355.64422" height="266.33333" viewBox="0,0,355.64422,266.33333"><defs><linearGradient x1="124.75953" y1="128.76795" x2="120.21317" y2="133.27243" gradientUnits="userSpaceOnUse" id="color-1"><stop offset="0" stop-color="#00ff19"/><stop offset="1" stop-color="#00ff19" stop-opacity="0"/></linearGradient><linearGradient x1="124.74065" y1="128.71118" x2="129.28697" y2="124.20669" gradientUnits="userSpaceOnUse" id="color-2"><stop offset="0" stop-color="#00ff19"/><stop offset="1" stop-color="#00ff19" stop-opacity="0"/></linearGradient><linearGradient x1="124.77272" y1="128.71073" x2="129.27787" y2="133.25776" gradientUnits="userSpaceOnUse" id="color-3"><stop offset="0" stop-color="#00ff19"/><stop offset="1" stop-color="#00ff19" stop-opacity="0"/></linearGradient><linearGradient x1="124.74959" y1="128.78257" x2="120.2444" y2="124.23553" gradientUnits="userSpaceOnUse" id="color-4"><stop offset="0" stop-color="#00ff19"/><stop offset="1" stop-color="#00ff19" stop-opacity="0"/></linearGradient></defs><g transform="translate(-62.17789,-46.83337)"><g data-paper-data="{&quot;isPaintingLayer&quot;:true}" fill-rule="nonzero" stroke-linejoin="miter" stroke-miterlimit="10" stroke-dasharray="" stroke-dashoffset="0" style="mix-blend-mode: normal"><path d="M62.17789,313.1667v-266.33333h355.64422v266.33333z" fill="#4d4d4d" stroke="#333333" stroke-width="0" stroke-linecap="butt"/><text transform="translate(73.83341,198.50499) scale(0.37501,0.37501)" font-size="40" xml:space="preserve" fill="#818181" fill-rule="nonzero" stroke="none" stroke-width="1" stroke-linecap="butt" stroke-linejoin="miter" stroke-miterlimit="10" stroke-dasharray="" stroke-dashoffset="0" font-family="Sans Serif" font-weight="normal" text-anchor="start" style="mix-blend-mode: normal"><tspan x="0" dy="0">镶嵌着再生石的特殊敌人。速度较低。</tspan><tspan x="0" dy="48px">每15时间回复1装甲。</tspan><tspan x="0" dy="48px">被冰冻或冻结时再生石不起效。</tspan></text><text transform="translate(73.83341,77.67548) scale(0.52747,0.52747)" font-size="40" xml:space="preserve" fill="#818181" fill-rule="nonzero" stroke="#818181" stroke-width="0.5" stroke-linecap="butt" stroke-linejoin="miter" stroke-miterlimit="10" stroke-dasharray="" stroke-dashoffset="0" font-family="Sans Serif" font-weight="normal" text-anchor="start" style="mix-blend-mode: normal"><tspan x="0" dy="0">新敌人  G-1</tspan></text><path d="M91.5,161.50005v-66h66v66z" fill="#3f3f3f" stroke="none" stroke-width="0" stroke-linecap="butt"/><text transform="translate(171.83341,111.66512) scale(0.445,0.445)" font-size="40" xml:space="preserve" fill="#818181" fill-rule="nonzero" stroke="none" stroke-width="1" stroke-linecap="butt" stroke-linejoin="miter" stroke-miterlimit="10" stroke-dasharray="" stroke-dashoffset="0" font-family="Sans Serif" font-weight="normal" text-anchor="start" style="mix-blend-mode: normal"><tspan x="0" dy="0">装甲：15</tspan><tspan x="0" dy="48px">速度：0.6</tspan><tspan x="0" dy="48px">掉落零件：5</tspan></text><g><path d="M107.52083,128.75c0,-9.51539 7.71378,-17.22917 17.22917,-17.22917c9.51539,0 17.22917,7.71378 17.22917,17.22917c0,9.51539 -7.71378,17.22917 -17.22917,17.22917c-9.51539,0 -17.22917,-7.71378 -17.22917,-17.22917z" fill="#808080" stroke="#343434" stroke-width="1.5" stroke-linecap="butt"/><path d="M113.0471,117.04712l23.40577,23.40577" fill="none" stroke="#343434" stroke-width="1.5" stroke-linecap="round"/><path d="M136.4529,117.04712l-23.40577,23.40577" data-paper-data="{&quot;index&quot;:null}" fill="none" stroke="#343434" stroke-width="1.5" stroke-linecap="round"/><path d="M115.38938,128.75c0,-5.16973 4.19089,-9.36062 9.36062,-9.36062c5.16973,0 9.36062,4.19089 9.36062,9.36062c0,5.16973 -4.19089,9.36062 -9.36062,9.36062c-5.16973,0 -9.36062,-4.19089 -9.36062,-9.36062z" fill="#989898" stroke="#343434" stroke-width="1.5" stroke-linecap="butt"/><g stroke="none" stroke-width="0" stroke-linecap="butt"><path d="M115.74023,128.71574l9.02974,0.06275l-0.06275,9.02974z" fill="url(#color-1)"/><path d="M133.78102,128.74248l-9.02993,-0.02078l0.02078,-9.02993z" data-paper-data="{&quot;index&quot;:null}" fill="url(#color-2)"/><path d="M124.74209,137.75179l0.0194,-9.02993l9.02993,0.0194z" data-paper-data="{&quot;index&quot;:null}" fill="url(#color-3)"/><path d="M124.80245,119.76399l-0.06414,9.0297l-9.02974,-0.06414z" data-paper-data="{&quot;index&quot;:null}" fill="url(#color-4)"/></g><path d="M120.62936,128.74065l4.13,-4.11129l4.11129,4.13001l-4.13001,4.11129z" fill-opacity="0.50196" fill="#00ff1a" stroke-opacity="0.50196" stroke="#00ff15" stroke-width="0" stroke-linecap="butt"/></g></g></g></svg>