<svg version="1.1" xmlns="http://www.w3.org/2000/svg" xmlns:xlink="http://www.w3.org/1999/xlink" width="355.64422" height="266.33333" viewBox="0,0,355.64422,266.33333"><defs><radialGradient cx="124.5" cy="128.5" r="10.62955" gradientUnits="userSpaceOnUse" id="color-1"><stop offset="0" stop-color="#ffea00"/><stop offset="1" stop-color="#ffea00" stop-opacity="0"/></radialGradient><radialGradient cx="124.5" cy="128.5" r="10.62955" gradientUnits="userSpaceOnUse" id="color-2"><stop offset="0" stop-color="#000000" stop-opacity="0"/><stop offset="1" stop-color="#000000" stop-opacity="0"/></radialGradient></defs><g transform="translate(-62.17789,-46.83337)"><g data-paper-data="{&quot;isPaintingLayer&quot;:true}" fill-rule="nonzero" stroke-linejoin="miter" stroke-miterlimit="10" stroke-dasharray="" stroke-dashoffset="0" style="mix-blend-mode: normal"><path d="M62.17789,313.1667v-266.33333h355.64422v266.33333z" fill="#4d4d4d" stroke="#333333" stroke-width="0" stroke-linecap="butt"/><text transform="translate(73.83341,198.50499) scale(0.37501,0.37501)" font-size="40" xml:space="preserve" fill="#818181" fill-rule="nonzero" stroke="none" stroke-width="1" stroke-linecap="butt" stroke-linejoin="miter" stroke-miterlimit="10" stroke-dasharray="" stroke-dashoffset="0" font-family="Sans Serif" font-weight="normal" text-anchor="start" style="mix-blend-mode: normal"><tspan x="0" dy="0">装备着吸收器的特殊敌人。速度极低。</tspan><tspan x="0" dy="48px">免疫3点伤害。不免疫火焰伤害。</tspan></text><text transform="translate(73.83341,77.67548) scale(0.52747,0.52747)" font-size="40" xml:space="preserve" fill="#818181" fill-rule="nonzero" stroke="#818181" stroke-width="0.5" stroke-linecap="butt" stroke-linejoin="miter" stroke-miterlimit="10" stroke-dasharray="" stroke-dashoffset="0" font-family="Sans Serif" font-weight="normal" text-anchor="start" style="mix-blend-mode: normal"><tspan x="0" dy="0">新敌人  Y-2</tspan></text><path d="M91.5,161.50004v-66h66v66z" fill="#3f3f3f" stroke="none" stroke-width="0" stroke-linecap="butt"/><text transform="translate(171.83341,111.66512) scale(0.445,0.445)" font-size="40" xml:space="preserve" fill="#818181" fill-rule="nonzero" stroke="none" stroke-width="1" stroke-linecap="butt" stroke-linejoin="miter" stroke-miterlimit="10" stroke-dasharray="" stroke-dashoffset="0" font-family="Sans Serif" font-weight="normal" text-anchor="start" style="mix-blend-mode: normal"><tspan x="0" dy="0">装甲：80</tspan><tspan x="0" dy="48px">速度：0.3</tspan><tspan x="0" dy="48px">掉落零件：10</tspan></text><g><path d="M104.48512,128.5c0,-11.05389 8.96098,-20.01488 20.01488,-20.01488c11.0539,0 20.01488,8.96099 20.01488,20.01488c0,11.0539 -8.96098,20.01488 -20.01488,20.01488c-11.0539,0 -20.01488,-8.96098 -20.01488,-20.01488z" fill="#656565" stroke="#343434" stroke-width="1.5" stroke-linecap="butt"/><path d="M111.13721,115.13721l26.72557,26.72557" fill="none" stroke="#343434" stroke-width="1.5" stroke-linecap="round"/><path d="M137.8628,115.13721l-26.72557,26.72557" data-paper-data="{&quot;index&quot;:null}" fill="none" stroke="#343434" stroke-width="1.5" stroke-linecap="round"/><path d="M109.82435,128.5c0,-8.10514 6.57052,-14.67566 14.67566,-14.67566c8.10513,0 14.67566,6.57052 14.67566,14.67566c0,8.10513 -6.57052,14.67566 -14.67566,14.67566c-8.10514,0 -14.67566,-6.57052 -14.67566,-14.67566z" fill="#7e7e7e" stroke="#343434" stroke-width="1" stroke-linecap="butt"/><path d="M124.5,114.39028v28.21945" fill="none" stroke="#343434" stroke-width="1.5" stroke-linecap="round"/><path d="M110.1146,128.5h28.7708" fill="none" stroke="#343434" stroke-width="1.5" stroke-linecap="round"/><path d="M109.29805,128.5c0,-8.3958 6.80615,-15.20195 15.20195,-15.20195c8.3958,0 15.20195,6.80616 15.20195,15.20195c0,8.3958 -6.80615,15.20195 -15.20195,15.20195c-8.3958,0 -15.20195,-6.80615 -15.20195,-15.20195z" fill="none" stroke-opacity="0.50196" stroke="#ffe900" stroke-width="2" stroke-linecap="butt"/><path d="M113.87045,128.5c0,-5.87054 4.759,-10.62953 10.62955,-10.62953c5.87054,0 10.62955,4.759 10.62955,10.62953c0,5.87054 -4.75903,10.62953 -10.62955,10.62953c-5.87054,0 -10.62955,-4.759 -10.62955,-10.62953z" fill="url(#color-1)" stroke="url(#color-2)" stroke-width="0" stroke-linecap="butt"/><path d="M118.99692,128.5c0,-3.03926 2.46382,-5.50308 5.50308,-5.50308c3.03926,0 5.50308,2.46382 5.50308,5.50308c0,3.03926 -2.46382,5.50308 -5.50308,5.50308c-3.03926,0 -5.50308,-2.46382 -5.50308,-5.50308z" fill="#7e7e7e" stroke="#343434" stroke-width="1" stroke-linecap="butt"/><path d="M118.53327,128.5c0,-3.29533 2.6714,-5.96673 5.96674,-5.96673c3.29533,0 5.96674,2.6714 5.96674,5.96674c0,3.29533 -2.6714,5.96674 -5.96673,5.96674c-3.29533,0 -5.96673,-2.6714 -5.96673,-5.96673z" fill="none" stroke-opacity="0.50196" stroke="#ffe900" stroke-width="2" stroke-linecap="butt"/></g></g></g></svg>