<svg version="1.1" xmlns="http://www.w3.org/2000/svg" xmlns:xlink="http://www.w3.org/1999/xlink" width="136" height="136" viewBox="0,0,136,136"><g transform="translate(-172,-112)"><g data-paper-data="{&quot;isPaintingLayer&quot;:true}" fill-rule="nonzero" stroke="none" stroke-width="0" stroke-linecap="butt" stroke-linejoin="miter" stroke-miterlimit="10" stroke-dasharray="" stroke-dashoffset="0" style="mix-blend-mode: normal"><path d="M233.47792,178.38013l2.98557,0.00894l-0.01016,3.39665l-2.98557,-0.00894z" data-paper-data="{&quot;index&quot;:null}" fill="#67bdff"/><path d="M243.55718,178.31758l2.98557,0.00893l-0.01016,3.39664l-2.98557,-0.00893z" data-paper-data="{&quot;index&quot;:null}" fill="#67bdff"/><path d="M238.34655,186.52152v-2.98558h3.39666v2.98558z" data-paper-data="{&quot;index&quot;:null}" fill="#67bdff"/><path d="M238.284,176.45062v-2.98558h3.39666v2.98558z" fill="#67bdff"/><path d="M235.99393,180.00001c0,-2.21249 1.79358,-4.00607 4.00607,-4.00607c2.21249,0 4.00607,1.79358 4.00607,4.00607c0,2.21249 -1.79358,4.00607 -4.00607,4.00607c-2.21249,0 -4.00607,-1.79358 -4.00607,-4.00607z" fill="#b2dfff"/><path d="M172,248v-136h136v136z" fill="none"/></g></g></svg>