<svg version="1.1" xmlns="http://www.w3.org/2000/svg" xmlns:xlink="http://www.w3.org/1999/xlink" width="69.875" height="69.875" viewBox="0,0,69.875,69.875"><g transform="translate(-205.0625,-145.0625)"><g data-paper-data="{&quot;isPaintingLayer&quot;:true}" fill-rule="nonzero" stroke-linejoin="miter" stroke-miterlimit="10" stroke-dasharray="" stroke-dashoffset="0" style="mix-blend-mode: normal"><path d="M223.625,196.375v-32.75h32.75v32.75z" fill="none" stroke="none" stroke-width="0" stroke-linecap="butt"/><path d="M251.20779,176.05384l0.06145,7.92308h-5.53043l2.6566,-2.07692l-2.7795,-1.84615l2.7795,-2.15385l-2.9024,-1.84615z" fill="#7f0000" stroke="#7f0000" stroke-width="0" stroke-linecap="round"/><path d="M239.95833,176.89167v1.91667" fill="none" stroke="#7f0000" stroke-width="1" stroke-linecap="round"/><path d="M239.95833,181.225v1.91667" fill="none" stroke="#7f0000" stroke-width="1" stroke-linecap="round"/><path d="M236.91667,180.01444l1.91666,0.00445" fill="none" stroke="#7f0000" stroke-width="1" stroke-linecap="round"/><path d="M241.08333,180.01444l1.91667,0.00445" fill="none" stroke="#7f0000" stroke-width="1" stroke-linecap="round"/><path d="M237.44444,180c0,-1.41139 1.14416,-2.55556 2.55556,-2.55556c1.41139,0 2.55556,1.14416 2.55556,2.55556c0,1.41139 -1.14416,2.55556 -2.55556,2.55556c-1.41139,0 -2.55556,-1.14416 -2.55556,-2.55556z" fill="none" stroke="#7f0000" stroke-width="1" stroke-linecap="butt"/><path d="M205.0625,214.9375v-69.875h69.875v69.875z" fill="none" stroke="none" stroke-width="0" stroke-linecap="butt"/></g></g></svg>